<ttFont>
        <CharString name=".notdef">
          0 787 878 rmoveto
          -4 0 -3 3 -3 4 -79 212 -39 108 1 4 3 15 7 7 11 0 rrcurveto
          365 hlineto
          10 0 3 -7 -3 -15 -1 -4 -85 -108 -169 -212 -4 -5 -5 -2 -5 0 rrcurveto
          33 -707 rmoveto
          -365 hlineto
          -10 0 -4 7 3 14 1 6 85 108 169 210 6 6 4 3 3 0 5 0 3 -2 2 -6 80 -211 39 -108 -1 -6 -3 -14 -7 -7 -10 0 rrcurveto
          -431 253 rmoveto
          -12 0 -5 6 3 12 rrcurveto
          109 515 rlineto
          3 13 7 6 12 0 6 0 4 -2 3 -4 83 -174 40 -89 -1 -6 -1 -6 -79 -90 -157 -175 -4 -4 -5 -2 -6 0 rrcurveto
          603 hmoveto
          -4 0 -4 2 -4 5 -81 174 -40 90 1 6 1 5 78 89 156 174 5 5 5 2 4 0 13 0 5 -6 -3 -13 rrcurveto
          -109 -515 rlineto
          -3 -12 -7 -6 -13 0 rrcurveto
          -18 -444 rmoveto
          39 0 35 13 30 27 30 27 18 28 6 30 rrcurveto
          253 1187 rlineto
          7 33 -6 29 -19 27 -18 26 -30 13 -39 0 rrcurveto
          -756 hlineto
          -39 0 -34 -13 -30 -25 -30 -26 -18 -30 -7 -34 rrcurveto
          -253 -1187 rlineto
          -6 -30 6 -28 18 -27 19 -27 29 -13 39 0 rrcurveto
          endchar
        </CharString>
        <CharString name="A">
          0 897 532 rmoveto
          -368 hlineto
          292 563 rlineto
          4 8 5 4 5 0 6 0 3 -4 1 -8 rrcurveto
          193 -1145 rmoveto
          35 0 30 12 27 23 34 29 18 33 0 36 rrcurveto
          -120 1232 rlineto
          -5 39 -17 33 -27 25 -28 25 -35 13 -42 0 -42 0 -40 -13 -38 -25 -39 -25 -30 -33 -22 -39 rrcurveto
          -638 -1221 rlineto
          -10 -19 -4 -18 0 -17 0 -20 6 -18 13 -17 17 -23 25 -12 34 0 27 0 26 7 23 15 23 15 19 19 13 24 rrcurveto
          151 283 rlineto
          490 hlineto
          30 -283 rlineto
          3 -24 11 -19 17 -15 17 -15 21 -7 27 0 rrcurveto
          endchar
        </CharString>
        <CharString name="AE">
          0 1120 -20 rmoveto
          55 0 55 47 10 48 11 52 -40 51 -57 0 rrcurveto
          -182 hlineto
          -10 0 -3 3 0 15 rrcurveto
          1 410 rlineto
          2 9 4 3 8 0 rrcurveto
          225 hlineto
          54 0 56 47 10 48 11 52 -40 51 -58 0 rrcurveto
          -256 hlineto
          -10 0 -2 3 0 14 rrcurveto
          -3 376 rlineto
          2 9 4 4 7 0 rrcurveto
          348 hlineto
          53 0 57 46 10 50 10 51 -40 51 -56 0 rrcurveto
          -619 hlineto
          -44 0 -48 -32 -20 -38 rrcurveto
          -612 -1218 rlineto
          -5 -10 -3 -11 -2 -8 -13 -61 44 -62 70 0 53 0 57 38 23 48 rrcurveto
          118 245 rlineto
          7 16 10 6 12 0 rrcurveto
          323 hlineto
          10 0 3 -3 0 -14 rrcurveto
          -3 -252 rlineto
          0 -44 39 -40 50 0 rrcurveto
          -98 555 rmoveto
          -241 hlineto
          -3 0 1 -1 2 10 rrcurveto
          2 4 266 585 rlineto
          2 6 -2 -2 2 0 1 0 -7 5 0 -3 rrcurveto
          -9 -591 rlineto
          -2 -10 -4 -3 -8 0 rrcurveto
          endchar
        </CharString>
        <CharString name="Aacute">
          0 875 532 rmoveto
          -332 hlineto
          -4 0 -2 3 0 6 0 4 95 184 189 363 5 10 7 5 7 0 3 0 1 -3 1 -6 34 -355 17 -183 0 -11 0 -2 -2 -4 -5 -5 -5 -4 -4 -2 -5 0 rrcurveto
          168 -582 rmoveto
          33 0 29 11 26 22 33 29 17 33 0 39 rrcurveto
          -120 1228 rlineto
          -5 40 -16 33 -29 26 -29 26 -35 13 -43 0 -41 0 -39 -12 -38 -25 -38 -24 -29 -32 -22 -39 rrcurveto
          -638 -1221 rlineto
          -9 -18 -5 -18 0 -17 0 -20 6 -19 12 -17 19 -25 28 -13 35 0 26 0 25 7 22 14 22 15 18 18 12 23 rrcurveto
          142 266 rlineto
          7 13 10 7 11 0 rrcurveto
          462 hlineto
          7 0 4 -5 1 -9 rrcurveto
          28 -266 rlineto
          3 -24 11 -20 18 -16 18 -15 23 -8 28 0 rrcurveto
          -249 1595 rmoveto
          12 0 12 3 11 4 rrcurveto
          306 109 rlineto
          55 20 35 55 0 44 0 45 -42 44 -55 0 -19 0 -22 -6 -19 -9 rrcurveto
          -293 -153 rlineto
          -32 -16 -25 -39 0 -30 0 -33 32 -38 44 0 rrcurveto
          endchar
        </CharString>
        <CharString name="Acircumflex">
          0 875 532 rmoveto
          -332 hlineto
          -4 0 -2 3 0 6 0 4 95 184 189 363 5 10 7 5 7 0 3 0 1 -3 1 -6 34 -355 17 -183 0 -11 0 -2 -2 -4 -5 -5 -5 -4 -4 -2 -5 0 rrcurveto
          168 -582 rmoveto
          33 0 29 11 26 22 33 29 17 33 0 39 rrcurveto
          -120 1228 rlineto
          -5 40 -16 33 -29 26 -29 26 -35 13 -43 0 -41 0 -39 -12 -38 -25 -38 -24 -29 -32 -22 -39 rrcurveto
          -638 -1221 rlineto
          -9 -18 -5 -18 0 -17 0 -20 6 -19 12 -17 19 -25 28 -13 35 0 26 0 25 7 22 14 22 15 18 18 12 23 rrcurveto
          142 266 rlineto
          7 13 10 7 11 0 rrcurveto
          462 hlineto
          7 0 4 -5 1 -9 rrcurveto
          28 -266 rlineto
          3 -24 11 -20 18 -16 18 -15 23 -8 28 0 rrcurveto
          -355 1605 rmoveto
          16 0 20 6 16 9 rrcurveto
          200 113 rlineto
          10 5 6 2 8 0 7 0 3 -1 6 -5 rrcurveto
          155 -113 rlineto
          14 -10 19 -5 16 0 25 0 30 12 19 18 16 15 11 20 5 17 1 6 0 6 0 5 0 17 -7 20 -12 13 rrcurveto
          -146 144 rlineto
          -30 31 -48 19 -48 0 -46 0 -52 -18 -40 -28 rrcurveto
          -208 -144 rlineto
          -23 -16 -16 -25 -5 -22 -1 -5 0 -6 0 -6 0 -13 4 -15 8 -12 13 -20 28 -14 26 0 rrcurveto
          endchar
        </CharString>
        <CharString name="Adieresis">
          0 875 532 rmoveto
          -332 hlineto
          -4 0 -2 3 0 6 0 4 95 184 189 363 5 10 7 5 7 0 3 0 1 -3 1 -6 34 -355 17 -183 0 -11 0 -2 -2 -4 -5 -5 -5 -4 -4 -2 -5 0 rrcurveto
          168 -582 rmoveto
          33 0 29 11 26 22 33 29 17 33 0 39 rrcurveto
          -120 1228 rlineto
          -5 40 -16 33 -29 26 -29 26 -35 13 -43 0 -41 0 -39 -12 -38 -25 -38 -24 -29 -32 -22 -39 rrcurveto
          -638 -1221 rlineto
          -9 -18 -5 -18 0 -17 0 -20 6 -19 12 -17 19 -25 28 -13 35 0 26 0 25 7 22 14 22 15 18 18 12 23 rrcurveto
          142 266 rlineto
          7 13 10 7 11 0 rrcurveto
          462 hlineto
          7 0 4 -5 1 -9 rrcurveto
          28 -266 rlineto
          3 -24 11 -20 18 -16 18 -15 23 -8 28 0 rrcurveto
          -324 1603 rmoveto
          41 0 36 13 32 25 43 35 21 43 0 51 0 25 -8 23 -15 19 -24 29 -33 14 -42 0 -42 0 -37 -13 -32 -25 -43 -34 -22 -43 0 -50 0 -26 8 -23 16 -20 24 -29 33 -14 44 0 rrcurveto
          431 hmoveto
          41 0 37 13 32 25 43 35 22 43 0 51 0 25 -8 23 -15 19 -24 29 -33 14 -44 0 -41 0 -36 -13 -32 -25 -43 -34 -22 -43 0 -50 0 -26 8 -23 16 -20 24 -29 33 -14 42 0 rrcurveto
          endchar
        </CharString>
        <CharString name="Agrave">
          0 875 532 rmoveto
          -332 hlineto
          -4 0 -2 3 0 6 0 4 95 184 189 363 5 10 7 5 7 0 3 0 1 -3 1 -6 34 -355 17 -183 0 -11 0 -2 -2 -4 -5 -5 -5 -4 -4 -2 -5 0 rrcurveto
          168 -582 rmoveto
          33 0 29 11 26 22 33 29 17 33 0 39 rrcurveto
          -120 1228 rlineto
          -5 40 -16 33 -29 26 -29 26 -35 13 -43 0 -41 0 -39 -12 -38 -25 -38 -24 -29 -32 -22 -39 rrcurveto
          -638 -1221 rlineto
          -9 -18 -5 -18 0 -17 0 -20 6 -19 12 -17 19 -25 28 -13 35 0 26 0 25 7 22 14 22 15 18 18 12 23 rrcurveto
          142 266 rlineto
          7 13 10 7 11 0 rrcurveto
          462 hlineto
          7 0 4 -5 1 -9 rrcurveto
          28 -266 rlineto
          3 -24 11 -20 18 -16 18 -15 23 -8 28 0 rrcurveto
          51 1595 rmoveto
          29 0 35 19 20 25 8 12 6 13 3 13 rrcurveto
          2 15 rlineto
          0 21 -12 23 -19 13 rrcurveto
          -229 153 rlineto
          -16 11 -22 6 -19 0 -37 0 -42 -20 -27 -31 -14 -17 -8 -19 -4 -18 -1 -7 -1 -8 0 -7 0 -32 20 -34 33 -15 rrcurveto
          261 -109 rlineto
          9 -4 13 -3 12 0 rrcurveto
          endchar
        </CharString>
        <CharString name="Aring">
          0 875 532 rmoveto
          -332 hlineto
          -4 0 -2 3 0 6 0 4 95 184 189 363 5 10 7 5 7 0 3 0 1 -3 1 -6 34 -355 17 -183 0 -11 0 -2 -2 -4 -5 -5 -5 -4 -4 -2 -5 0 rrcurveto
          168 -582 rmoveto
          33 0 29 11 26 22 33 29 17 33 0 39 rrcurveto
          -120 1228 rlineto
          -5 40 -16 33 -29 26 -29 26 -35 13 -43 0 -41 0 -39 -12 -38 -25 -38 -24 -29 -32 -22 -39 rrcurveto
          -638 -1221 rlineto
          -9 -18 -5 -18 0 -17 0 -20 6 -19 12 -17 19 -25 28 -13 35 0 26 0 25 7 22 14 22 15 18 18 12 23 rrcurveto
          142 266 rlineto
          7 13 10 7 11 0 rrcurveto
          462 hlineto
          7 0 4 -5 1 -9 rrcurveto
          28 -266 rlineto
          3 -24 11 -20 18 -16 18 -15 23 -8 28 0 rrcurveto
          -120 1541 rmoveto
          76 0 67 23 57 45 76 61 37 73 0 85 0 45 -14 40 -30 36 -39 47 -59 24 -78 0 -77 0 -67 -23 -57 -46 -58 -46 -35 -57 -15 -66 -3 -17 -2 -16 0 -16 0 -45 14 -39 28 -35 rrcurveto
          41 -49 59 -24 79 0 rrcurveto
          22 144 rmoveto
          -23 0 -16 6 -9 12 -10 13 -5 14 0 17 0 9 2 9 2 11 7 32 13 24 20 17 20 17 22 8 25 0 42 0 21 -21 0 -41 0 -9 -1 -10 -3 -11 -7 -31 -13 -24 -19 -17 rrcurveto
          -19 -17 -23 -8 -26 0 rrcurveto
          endchar
        </CharString>
        <CharString name="Atilde">
          0 875 532 rmoveto
          -332 hlineto
          -4 0 -2 3 0 6 0 4 95 184 189 363 5 10 7 5 7 0 3 0 1 -3 1 -6 34 -355 17 -183 0 -11 0 -2 -2 -4 -5 -5 -5 -4 -4 -2 -5 0 rrcurveto
          168 -582 rmoveto
          33 0 29 11 26 22 33 29 17 33 0 39 rrcurveto
          -120 1228 rlineto
          -5 40 -16 33 -29 26 -29 26 -35 13 -43 0 -41 0 -39 -12 -38 -25 -38 -24 -29 -32 -22 -39 rrcurveto
          -638 -1221 rlineto
          -9 -18 -5 -18 0 -17 0 -20 6 -19 12 -17 19 -25 28 -13 35 0 26 0 25 7 22 14 22 15 18 18 12 23 rrcurveto
          142 266 rlineto
          7 13 10 7 11 0 rrcurveto
          462 hlineto
          7 0 4 -5 1 -9 rrcurveto
          28 -266 rlineto
          3 -24 11 -20 18 -16 18 -15 23 -8 28 0 rrcurveto
          14 1620 rmoveto
          84 0 82 44 69 79 11 14 8 17 4 14 rrcurveto
          2 17 rlineto
          0 25 -14 30 -28 11 -11 6 -17 3 -13 0 -26 0 -31 -13 -21 -20 -7 -8 -8 -7 -8 -5 -18 -13 -10 -4 -16 0 -20 0 -12 4 -14 14 -19 17 -21 17 -24 16 -26 19 -40 10 -42 0 rrcurveto
          -57 0 -57 -21 -49 -38 -24 -21 -25 -22 -20 -24 -13 -13 -9 -17 -4 -16 -1 -6 0 -6 0 -5 0 -23 13 -26 23 -13 12 -7 18 -4 14 0 50 0 21 27 31 30 15 12 12 5 19 0 rrcurveto
          19 0 12 -5 18 -15 17 -15 22 -17 22 -17 28 -20 38 -10 41 0 rrcurveto
          endchar
        </CharString>
        <CharString name="B">
          0 681 200 rmoveto
          -225 hlineto
          -9 0 -5 5 0 11 rrcurveto
          80 375 rlineto
          3 15 7 7 11 0 rrcurveto
          226 1 rlineto
          69 -3 50 -19 29 -33 30 -33 14 -35 0 -35 0 -10 -1 -11 -2 -11 -13 -61 -33 -53 -55 -44 -55 -44 -58 -22 -63 0 rrcurveto
          134 634 rmoveto
          -225 hlineto
          -8 0 -5 5 0 10 rrcurveto
          69 328 rlineto
          4 15 7 7 11 0 rrcurveto
          225 hlineto
          47 0 36 -13 25 -27 25 -27 13 -30 0 -33 0 -62 -30 -58 -58 -53 -46 -41 -45 -21 -45 0 rrcurveto
          -182 -854 rmoveto
          85 0 81 20 79 41 78 40 67 54 55 67 55 67 37 73 17 81 6 28 3 27 0 25 0 91 -39 73 -78 54 -1 0 -3 1 -3 3 -3 2 -2 2 0 1 1 1 5 4 10 7 rrcurveto
          93 60 60 98 29 134 5 21 2 22 0 21 0 38 -7 38 -15 38 -23 59 -38 50 -53 40 -53 39 -66 20 -78 0 rrcurveto
          -353 hlineto
          -34 0 -31 -11 -27 -23 -28 -23 -17 -27 -6 -30 -174 -816 -87 -412 0 -8 0 -21 7 -18 13 -17 18 -23 26 -11 34 0 rrcurveto
          endchar
        </CharString>
        <CharString name="C">
          0 715 -50 rmoveto
          98 0 91 14 84 27 73 22 37 46 0 70 0 23 -7 20 -14 15 -14 15 -22 7 -29 0 -13 0 -13 -3 -13 -6 -45 -21 -68 -10 -91 0 -105 3 -72 36 -37 70 -37 70 -18 73 0 76 rrcurveto
          0 60 8 67 16 75 37 175 64 132 92 90 91 89 93 46 95 3 105 0 65 -7 24 -15 13 -7 12 -4 12 0 25 0 24 8 22 17 38 27 18 34 0 42 0 81 -106 40 -214 0 rrcurveto
          -177 0 -157 -70 -137 -139 -129 -137 -90 -183 -52 -230 -17 -82 -9 -77 0 -71 0 -114 22 -101 45 -87 78 -139 127 -70 177 0 rrcurveto
          endchar
        </CharString>
        <CharString name="Ccedilla">
          0 720 -50 rmoveto
          98 0 90 13 84 27 70 22 35 44 0 69 0 56 -29 28 -60 0 -13 0 -13 -3 -12 -6 -45 -21 -68 -10 -92 0 -103 2 -71 36 -36 69 -37 69 -18 74 0 77 0 59 8 67 16 74 rrcurveto
          37 175 65 133 92 90 93 91 94 47 95 2 105 0 64 -7 23 -14 14 -8 13 -4 13 0 25 0 22 8 20 15 37 27 18 33 0 41 0 83 -108 42 -216 0 -176 0 -156 -69 -135 -138 rrcurveto
          -128 -136 -91 -183 -52 -230 -17 -82 -9 -76 0 -72 0 -114 23 -101 45 -88 79 -141 128 -70 179 0 rrcurveto
          -248 -467 rmoveto
          75 0 72 19 62 37 63 39 42 57 15 72 2 13 2 14 0 12 0 31 -9 31 -19 27 -24 35 -48 25 -61 9 1 -1 4 -4 0 3 rrcurveto
          3 vlineto
          13 59 2 15 rlineto
          0 38 -36 36 -44 0 -44 0 -48 -37 -11 -40 rrcurveto
          -42 -141 -1 -10 rlineto
          0 -23 23 -26 29 -2 37 -2 24 -4 20 -7 17 -6 4 -6 0 -19 0 -5 0 -5 -2 -6 -6 -26 -9 -13 -20 -10 -21 -10 -25 -5 -32 0 -30 0 -24 3 -26 9 -7 2 -11 2 -8 0 rrcurveto
          -29 0 -35 -18 -19 -24 -8 -12 -6 -13 -3 -13 rrcurveto
          -1 -14 rlineto
          0 -50 37 -12 39 -12 40 -10 42 -5 44 0 rrcurveto
          endchar
        </CharString>
        <CharString name="D">
          0 488 200 rmoveto
          -32 hlineto
          -10 0 -5 6 0 11 rrcurveto
          204 960 rlineto
          4 15 8 7 11 0 51 0 47 -1 43 -3 43 -3 39 -7 34 -13 34 -13 29 -21 24 -31 19 -25 11 -27 2 -29 3 -29 1 -22 0 -15 0 -58 -15 -103 -30 -147 -35 -163 -58 -116 -80 -69 rrcurveto
          -80 -69 -114 -35 -148 0 rrcurveto
          -47 -220 rmoveto
          147 0 127 23 107 45 106 45 87 73 67 99 67 99 50 129 34 159 rrcurveto
          28 136 rlineto
          17 81 9 72 0 65 0 167 -59 116 -117 64 -81 45 -109 22 -135 0 rrcurveto
          -200 hlineto
          -34 0 -31 -11 -27 -23 -28 -23 -17 -27 -6 -30 -174 -816 -87 -412 0 -8 0 -21 7 -18 13 -17 18 -23 26 -11 34 0 rrcurveto
          endchar
        </CharString>
        <CharString name="E">
          0 964 -20 rmoveto
          33 0 29 11 27 22 34 28 17 33 0 38 0 20 -6 19 -13 16 -17 22 -25 11 -32 0 rrcurveto
          -525 hlineto
          -10 0 -5 6 0 11 rrcurveto
          75 351 rlineto
          3 15 7 7 12 0 rrcurveto
          468 hlineto
          33 0 29 11 27 22 35 29 17 33 0 37 0 20 -6 19 -13 16 -17 22 -25 11 -33 0 rrcurveto
          -468 hlineto
          -9 0 -5 5 0 11 rrcurveto
          74 351 rlineto
          4 15 8 8 11 0 rrcurveto
          525 hlineto
          33 0 29 11 27 22 35 28 17 34 0 39 0 19 -6 18 -13 16 -17 22 -25 11 -33 0 rrcurveto
          -654 hlineto
          -34 0 -31 -11 -27 -23 -28 -23 -17 -26 -6 -30 -174 -818 -87 -412 0 -8 0 -20 7 -18 13 -17 18 -23 26 -11 34 0 rrcurveto
          endchar
        </CharString>
        <CharString name="Eacute">
          0 968 -20 rmoveto
          32 0 28 10 25 21 34 28 17 33 0 38 0 20 -6 18 -13 17 -19 23 -26 12 -34 0 rrcurveto
          -525 hlineto
          -3 0 -2 1 -2 3 -2 2 -1 4 0 4 0 2 25 117 50 232 1 8 4 6 6 4 5 5 6 2 5 0 rrcurveto
          468 hlineto
          32 0 28 10 25 21 34 28 17 33 0 38 0 20 -6 18 -13 17 -19 23 -26 12 -34 0 rrcurveto
          -468 hlineto
          -3 0 -2 1 -2 3 -2 2 -1 3 0 4 0 2 24 117 50 232 1 8 4 6 6 5 6 5 5 2 5 0 rrcurveto
          525 hlineto
          32 0 28 10 25 21 34 28 17 33 0 38 0 20 -6 18 -13 16 -18 24 -26 12 -34 0 rrcurveto
          -654 hlineto
          -33 0 -30 -11 -26 -22 -27 -22 -16 -25 -7 -30 -173 -817 -87 -413 0 -7 0 -21 6 -18 13 -16 20 -25 27 -13 35 0 rrcurveto
          480 1565 rmoveto
          12 0 12 3 11 4 rrcurveto
          306 109 rlineto
          45 16 34 42 9 39 1 7 1 8 0 7 0 11 -2 11 -4 11 -14 33 -39 23 -38 0 -19 0 -22 -6 -19 -9 rrcurveto
          -293 -153 rlineto
          -28 -15 -22 -28 -5 -25 -1 -5 -1 -6 0 -6 0 -7 2 -8 2 -6 7 -28 33 -22 32 0 rrcurveto
          endchar
        </CharString>
        <CharString name="Ecircumflex">
          0 968 -20 rmoveto
          32 0 28 10 25 21 34 28 17 33 0 38 0 20 -6 18 -13 17 -19 23 -26 12 -34 0 rrcurveto
          -525 hlineto
          -3 0 -2 1 -2 3 -2 2 -1 4 0 4 0 2 25 117 50 232 1 8 4 6 6 4 5 5 6 2 5 0 rrcurveto
          468 hlineto
          32 0 28 10 25 21 34 28 17 33 0 38 0 20 -6 18 -13 17 -19 23 -26 12 -34 0 rrcurveto
          -468 hlineto
          -3 0 -2 1 -2 3 -2 2 -1 3 0 4 0 2 24 117 50 232 1 8 4 6 6 5 6 5 5 2 5 0 rrcurveto
          525 hlineto
          32 0 28 10 25 21 34 28 17 33 0 38 0 20 -6 18 -13 16 -18 24 -26 12 -34 0 rrcurveto
          -654 hlineto
          -33 0 -30 -11 -26 -22 -27 -22 -16 -25 -7 -30 -173 -817 -87 -413 0 -7 0 -21 6 -18 13 -16 20 -25 27 -13 35 0 rrcurveto
          374 1575 rmoveto
          16 0 20 6 16 9 rrcurveto
          200 113 rlineto
          10 5 6 2 8 0 7 0 3 -1 6 -5 rrcurveto
          155 -113 rlineto
          14 -10 19 -5 16 0 25 0 30 12 19 18 16 15 11 20 5 17 1 6 0 6 0 5 0 17 -7 20 -12 13 rrcurveto
          -146 144 rlineto
          -30 31 -48 19 -48 0 -46 0 -52 -18 -40 -28 rrcurveto
          -208 -144 rlineto
          -23 -16 -16 -25 -5 -22 -1 -5 0 -6 0 -6 0 -13 4 -15 8 -12 13 -20 28 -14 26 0 rrcurveto
          endchar
        </CharString>
        <CharString name="Edieresis">
          0 968 -20 rmoveto
          32 0 28 10 25 21 34 28 17 33 0 38 0 20 -6 18 -13 17 -19 23 -26 12 -34 0 rrcurveto
          -525 hlineto
          -3 0 -2 1 -2 3 -2 2 -1 4 0 4 0 2 25 117 50 232 1 8 4 6 6 4 5 5 6 2 5 0 rrcurveto
          468 hlineto
          32 0 28 10 25 21 34 28 17 33 0 38 0 20 -6 18 -13 17 -19 23 -26 12 -34 0 rrcurveto
          -468 hlineto
          -3 0 -2 1 -2 3 -2 2 -1 3 0 4 0 2 24 117 50 232 1 8 4 6 6 5 6 5 5 2 5 0 rrcurveto
          525 hlineto
          32 0 28 10 25 21 34 28 17 33 0 38 0 20 -6 18 -13 16 -18 24 -26 12 -34 0 rrcurveto
          -654 hlineto
          -33 0 -30 -11 -26 -22 -27 -22 -16 -25 -7 -30 -173 -817 -87 -413 0 -7 0 -21 6 -18 13 -16 20 -25 27 -13 35 0 rrcurveto
          405 1573 rmoveto
          41 0 36 13 32 25 43 35 21 43 0 51 0 25 -8 23 -15 19 -24 29 -33 14 -42 0 -42 0 -37 -13 -32 -25 -43 -34 -22 -43 0 -50 0 -26 8 -23 16 -20 24 -29 33 -14 44 0 rrcurveto
          431 hmoveto
          41 0 37 13 32 25 43 35 22 43 0 51 0 25 -8 23 -15 19 -24 29 -33 14 -44 0 -41 0 -36 -13 -32 -25 -43 -34 -22 -43 0 -50 0 -26 8 -23 16 -20 24 -29 33 -14 42 0 rrcurveto
          endchar
        </CharString>
        <CharString name="Egrave">
          0 968 -20 rmoveto
          32 0 28 10 25 21 34 28 17 33 0 38 0 20 -6 18 -13 17 -19 23 -26 12 -34 0 rrcurveto
          -525 hlineto
          -3 0 -2 1 -2 3 -2 2 -1 4 0 4 0 2 25 117 50 232 1 8 4 6 6 4 5 5 6 2 5 0 rrcurveto
          468 hlineto
          32 0 28 10 25 21 34 28 17 33 0 38 0 20 -6 18 -13 17 -19 23 -26 12 -34 0 rrcurveto
          -468 hlineto
          -3 0 -2 1 -2 3 -2 2 -1 3 0 4 0 2 24 117 50 232 1 8 4 6 6 5 6 5 5 2 5 0 rrcurveto
          525 hlineto
          32 0 28 10 25 21 34 28 17 33 0 38 0 20 -6 18 -13 16 -18 24 -26 12 -34 0 rrcurveto
          -654 hlineto
          -33 0 -30 -11 -26 -22 -27 -22 -16 -25 -7 -30 -173 -817 -87 -413 0 -7 0 -21 6 -18 13 -16 20 -25 27 -13 35 0 rrcurveto
          780 1565 rmoveto
          29 0 35 19 20 25 8 12 6 13 3 13 rrcurveto
          2 15 rlineto
          0 21 -12 23 -19 13 rrcurveto
          -229 153 rlineto
          -16 11 -22 6 -19 0 -37 0 -42 -20 -27 -31 -14 -17 -8 -19 -4 -18 -1 -7 -1 -8 0 -7 0 -32 20 -34 33 -15 rrcurveto
          261 -109 rlineto
          9 -4 13 -3 12 0 rrcurveto
          endchar
        </CharString>
        <CharString name="Eth">
          0 483 200 rmoveto
          -32 hlineto
          -3 0 -2 1 -2 3 -2 2 -1 4 0 4 0 3 68 320 136 637 1 8 4 6 6 4 5 5 6 2 5 0 51 0 47 -1 43 -3 43 -2 38 -8 33 -13 33 -12 28 -21 23 -29 rrcurveto
          20 -25 12 -27 2 -27 2 -27 1 -21 0 -13 0 -69 -15 -105 -30 -141 -35 -164 -58 -117 -81 -69 -81 -70 -115 -35 -150 0 rrcurveto
          -38 -220 rmoveto
          147 0 127 23 105 45 106 45 86 71 66 99 67 98 50 129 34 159 rrcurveto
          28 136 rlineto
          17 81 9 73 0 65 0 167 -60 117 -121 66 -80 44 -108 22 -136 0 rrcurveto
          -200 hlineto
          -33 0 -30 -11 -26 -22 -27 -23 -16 -25 -7 -30 -173 -816 -87 -412 0 -8 0 -21 6 -18 13 -16 20 -25 27 -13 35 0 rrcurveto
          406 610 rmoveto
          32 0 28 10 25 21 34 28 17 33 0 38 0 20 -6 18 -13 17 -19 23 -26 12 -34 0 rrcurveto
          -430 hlineto
          -32 0 -28 -10 -25 -21 -34 -28 -17 -33 0 -38 0 -20 6 -18 13 -16 19 -24 26 -12 34 0 rrcurveto
          endchar
        </CharString>
        <CharString name="F">
          0 299 -50 rmoveto
          33 0 29 11 27 22 27 22 16 26 7 29 rrcurveto
          108 508 rlineto
          3 15 7 7 12 0 rrcurveto
          460 hlineto
          33 0 29 11 27 22 35 29 17 33 0 37 0 20 -6 19 -13 16 -17 22 -25 11 -33 0 rrcurveto
          -460 hlineto
          -9 0 -5 5 0 11 rrcurveto
          74 351 rlineto
          4 15 8 8 11 0 rrcurveto
          537 hlineto
          33 0 29 11 27 22 35 28 17 34 0 39 0 19 -6 18 -13 16 -17 22 -25 11 -33 0 rrcurveto
          -666 hlineto
          -34 0 -31 -11 -27 -23 -28 -23 -17 -26 -6 -30 -179 -840 -89 -424 0 -7 0 -19 6 -18 13 -16 18 -22 25 -11 32 0 rrcurveto
          endchar
        </CharString>
        <CharString name="G">
          0 595 -50 rmoveto
          155 0 141 58 129 116 33 31 22 38 9 44 65 303 32 154 0 5 0 12 -3 12 -7 10 -10 13 -15 7 -21 0 rrcurveto
          -319 hlineto
          -29 0 -27 -9 -26 -19 -35 -26 -17 -34 0 -44 0 -23 7 -19 14 -16 19 -22 24 -11 28 0 rrcurveto
          150 hlineto
          8 0 3 -4 0 -8 0 -3 -17 -82 -35 -163 -3 -17 -9 -14 -15 -10 -59 -39 -61 -19 -64 0 -97 0 -61 30 -23 61 -23 61 -12 59 0 59 0 53 6 58 13 66 rrcurveto
          36 167 rlineto
          15 71 23 68 32 66 73 160 100 80 127 0 100 0 54 -64 9 -127 4 -54 32 -27 59 0 31 0 28 11 25 21 25 21 16 27 7 32 1 5 1 6 0 7 rrcurveto
          -1 16 rlineto
          -10 231 -115 115 -219 0 -135 0 -110 -36 -86 -71 -154 -125 -105 -187 -57 -248 rrcurveto
          -35 -165 rlineto
          -12 -65 -6 -63 0 -63 0 -164 38 -126 78 -88 58 -66 87 -33 116 0 rrcurveto
          endchar
        </CharString>
        <CharString name="H">
          0 939 -50 rmoveto
          33 0 29 11 27 22 27 22 16 26 7 29 183 861 91 434 0 7 0 20 -6 19 -13 16 -17 22 -25 11 -33 0 -33 0 -29 -11 -27 -22 -27 -22 -16 -26 -6 -29 rrcurveto
          -108 -507 rlineto
          -1 -7 -3 -6 -5 -4 -5 -4 -5 -2 -4 0 rrcurveto
          -434 hlineto
          -8 0 -5 5 0 11 rrcurveto
          55 261 rlineto
          38 176 18 92 0 7 0 20 -6 19 -13 16 -18 22 -25 11 -33 0 -33 0 -29 -11 -27 -22 -27 -22 -16 -26 -6 -29 -183 -862 -92 -435 0 -7 0 -19 6 -18 13 -16 18 -22 25 -11 32 0 rrcurveto
          33 0 30 11 27 22 27 22 16 26 7 29 rrcurveto
          108 508 rlineto
          3 15 7 7 11 0 rrcurveto
          434 hlineto
          10 0 5 -5 0 -11 rrcurveto
          -55 -260 rlineto
          -38 -177 -19 -93 0 -8 0 -19 6 -18 13 -16 18 -22 25 -11 32 0 rrcurveto
          endchar
        </CharString>
        <CharString name="I">
          0 920 hmoveto
          33 0 29 11 27 22 35 28 17 34 0 39 0 19 -6 18 -13 16 -17 22 -25 11 -33 0 rrcurveto
          -188 hlineto
          -3 0 -3 2 -3 3 -3 3 -1 4 0 3 0 2 65 307 130 613 3 15 7 7 12 0 rrcurveto
          188 hlineto
          32 0 30 11 27 22 34 28 17 33 0 38 0 20 -6 19 -13 16 -17 23 -24 11 -33 0 rrcurveto
          -640 hlineto
          -33 0 -29 -11 -27 -22 -35 -29 -17 -33 0 -38 0 -20 6 -19 13 -16 17 -22 25 -11 33 0 rrcurveto
          187 hlineto
          9 0 5 -5 0 -10 rrcurveto
          -195 -921 rlineto
          -4 -15 -8 -8 -11 0 rrcurveto
          -187 hlineto
          -33 0 -29 -11 -27 -22 -35 -29 -17 -33 0 -37 0 -20 6 -19 13 -16 17 -22 25 -11 33 0 rrcurveto
          endchar
        </CharString>
        <CharString name="Iacute">
          0 920 -20 rmoveto
          32 0 28 10 25 21 34 28 17 33 0 38 0 20 -6 18 -13 17 -19 23 -26 12 -34 0 rrcurveto
          -188 hlineto
          -2 0 -2 1 -2 3 -2 2 -1 4 0 4 0 3 68 320 136 637 1 8 4 6 6 4 5 5 5 2 5 0 rrcurveto
          188 hlineto
          32 0 28 10 25 21 34 28 17 33 0 38 0 20 -6 18 -13 16 -18 25 -26 12 -34 0 rrcurveto
          -640 hlineto
          -32 0 -28 -11 -25 -21 -35 -28 -17 -33 0 -38 0 -20 6 -18 13 -16 19 -24 26 -12 34 0 rrcurveto
          187 hlineto
          3 0 3 -1 1 -2 2 -2 1 -3 0 -4 0 -2 -68 -320 -136 -639 -1 -8 -4 -6 -5 -5 -6 -5 -6 -2 -5 0 rrcurveto
          -187 hlineto
          -32 0 -28 -10 -25 -21 -34 -28 -17 -33 0 -38 0 -20 6 -18 13 -16 19 -24 26 -12 34 0 rrcurveto
          514 1565 rmoveto
          12 0 12 3 11 4 rrcurveto
          306 109 rlineto
          45 16 34 42 9 39 1 7 1 8 0 7 0 11 -2 11 -4 11 -14 33 -39 23 -38 0 -19 0 -22 -6 -19 -9 rrcurveto
          -293 -153 rlineto
          -28 -15 -22 -28 -5 -25 -1 -5 -1 -6 0 -6 0 -7 2 -8 2 -6 7 -28 33 -22 32 0 rrcurveto
          endchar
        </CharString>
        <CharString name="Icircumflex">
          0 920 -20 rmoveto
          32 0 28 10 25 21 34 28 17 33 0 38 0 20 -6 18 -13 17 -19 23 -26 12 -34 0 rrcurveto
          -188 hlineto
          -2 0 -2 1 -2 3 -2 2 -1 4 0 4 0 3 68 320 136 637 1 8 4 6 6 4 5 5 5 2 5 0 rrcurveto
          188 hlineto
          32 0 28 10 25 21 34 28 17 33 0 38 0 20 -6 18 -13 16 -18 25 -26 12 -34 0 rrcurveto
          -640 hlineto
          -32 0 -28 -11 -25 -21 -35 -28 -17 -33 0 -38 0 -20 6 -18 13 -16 19 -24 26 -12 34 0 rrcurveto
          187 hlineto
          3 0 3 -1 1 -2 2 -2 1 -3 0 -4 0 -2 -68 -320 -136 -639 -1 -8 -4 -6 -5 -5 -6 -5 -6 -2 -5 0 rrcurveto
          -187 hlineto
          -32 0 -28 -10 -25 -21 -34 -28 -17 -33 0 -38 0 -20 6 -18 13 -16 19 -24 26 -12 34 0 rrcurveto
          408 1575 rmoveto
          16 0 20 6 16 9 rrcurveto
          200 113 rlineto
          10 5 6 2 8 0 7 0 3 -1 6 -5 rrcurveto
          155 -113 rlineto
          14 -10 19 -5 16 0 25 0 30 12 19 18 16 15 11 20 5 17 1 6 0 6 0 5 0 17 -7 20 -12 13 rrcurveto
          -146 144 rlineto
          -30 31 -48 19 -48 0 -46 0 -52 -18 -40 -28 rrcurveto
          -208 -144 rlineto
          -23 -16 -16 -25 -5 -22 -1 -5 0 -6 0 -6 0 -13 4 -15 8 -12 13 -20 28 -14 26 0 rrcurveto
          endchar
        </CharString>
        <CharString name="Idieresis">
          0 920 -20 rmoveto
          32 0 28 10 25 21 34 28 17 33 0 38 0 20 -6 18 -13 17 -19 23 -26 12 -34 0 rrcurveto
          -188 hlineto
          -2 0 -2 1 -2 3 -2 2 -1 4 0 4 0 3 68 320 136 637 1 8 4 6 6 4 5 5 5 2 5 0 rrcurveto
          188 hlineto
          32 0 28 10 25 21 34 28 17 33 0 38 0 20 -6 18 -13 16 -18 25 -26 12 -34 0 rrcurveto
          -640 hlineto
          -32 0 -28 -11 -25 -21 -35 -28 -17 -33 0 -38 0 -20 6 -18 13 -16 19 -24 26 -12 34 0 rrcurveto
          187 hlineto
          3 0 3 -1 1 -2 2 -2 1 -3 0 -4 0 -2 -68 -320 -136 -639 -1 -8 -4 -6 -5 -5 -6 -5 -6 -2 -5 0 rrcurveto
          -187 hlineto
          -32 0 -28 -10 -25 -21 -34 -28 -17 -33 0 -38 0 -20 6 -18 13 -16 19 -24 26 -12 34 0 rrcurveto
          439 1573 rmoveto
          41 0 36 13 32 25 43 35 21 43 0 51 0 25 -8 23 -15 19 -24 29 -33 14 -42 0 -42 0 -37 -13 -32 -25 -43 -34 -22 -43 0 -50 0 -26 8 -23 16 -20 24 -29 33 -14 44 0 rrcurveto
          431 hmoveto
          41 0 37 13 32 25 43 35 22 43 0 51 0 25 -8 23 -15 19 -24 29 -33 14 -44 0 -41 0 -36 -13 -32 -25 -43 -34 -22 -43 0 -50 0 -26 8 -23 16 -20 24 -29 33 -14 42 0 rrcurveto
          endchar
        </CharString>
        <CharString name="Igrave">
          0 920 -20 rmoveto
          32 0 28 10 25 21 34 28 17 33 0 38 0 20 -6 18 -13 17 -19 23 -26 12 -34 0 rrcurveto
          -188 hlineto
          -2 0 -2 1 -2 3 -2 2 -1 4 0 4 0 3 68 320 136 637 1 8 4 6 6 4 5 5 5 2 5 0 rrcurveto
          188 hlineto
          32 0 28 10 25 21 34 28 17 33 0 38 0 20 -6 18 -13 16 -18 25 -26 12 -34 0 rrcurveto
          -640 hlineto
          -32 0 -28 -11 -25 -21 -35 -28 -17 -33 0 -38 0 -20 6 -18 13 -16 19 -24 26 -12 34 0 rrcurveto
          187 hlineto
          3 0 3 -1 1 -2 2 -2 1 -3 0 -4 0 -2 -68 -320 -136 -639 -1 -8 -4 -6 -5 -5 -6 -5 -6 -2 -5 0 rrcurveto
          -187 hlineto
          -32 0 -28 -10 -25 -21 -34 -28 -17 -33 0 -38 0 -20 6 -18 13 -16 19 -24 26 -12 34 0 rrcurveto
          814 1565 rmoveto
          29 0 35 19 20 25 8 12 6 13 3 13 rrcurveto
          2 15 rlineto
          0 21 -12 23 -19 13 rrcurveto
          -229 153 rlineto
          -16 11 -22 6 -19 0 -37 0 -42 -20 -27 -31 -14 -17 -8 -19 -4 -18 -1 -7 -1 -8 0 -7 0 -32 20 -34 33 -15 rrcurveto
          261 -109 rlineto
          9 -4 13 -3 12 0 rrcurveto
          endchar
        </CharString>
        <CharString name="J">
          0 579 -50 rmoveto
          81 0 78 18 74 37 74 36 63 49 51 62 51 62 34 70 17 77 133 625 66 316 0 7 0 21 -6 19 -14 17 -18 23 -26 11 -33 0 rrcurveto
          -413 hlineto
          -33 0 -29 -11 -27 -22 -35 -29 -17 -33 0 -37 0 -20 6 -18 13 -17 17 -23 25 -11 33 0 rrcurveto
          285 hlineto
          8 0 5 -5 0 -9 rrcurveto
          -170 -804 rlineto
          -11 -53 -29 -45 -45 -39 -29 -24 -30 -16 -29 -7 -29 -8 -37 -4 -45 0 -57 0 -43 13 -29 26 -30 26 -16 34 -3 41 -10 53 -32 26 -53 0 -35 0 -30 -11 -26 -23 -35 -30 -17 -38 0 -46 rrcurveto
          0 -56 23 -54 45 -53 41 -50 48 -33 55 -16 55 -16 65 -8 75 0 rrcurveto
          endchar
        </CharString>
        <CharString name="K">
          0 991 -50 rmoveto
          33 0 30 11 27 23 34 28 17 31 0 35 0 11 -2 11 -4 11 -180 457 -89 230 0 3 0 8 3 7 7 7 rrcurveto
          427 451 rlineto
          25 28 13 29 0 29 0 19 -6 19 -11 17 -16 23 -25 12 -35 0 -37 0 -33 -14 -31 -29 rrcurveto
          -518 -544 rlineto
          -5 -5 -5 -2 -4 0 -4 0 -4 1 -3 3 -3 3 -1 4 0 4 0 2 17 80 33 157 34 161 17 84 0 7 0 21 -6 18 -13 16 -17 22 -25 11 -33 0 -32 0 -29 -11 -27 -21 rrcurveto
          -27 -22 -17 -26 -6 -30 -183 -863 -92 -434 0 -7 0 -19 6 -18 13 -16 18 -22 25 -11 32 0 33 0 29 11 27 22 27 22 16 25 7 29 rrcurveto
          76 362 rlineto
          4 18 9 16 13 13 rrcurveto
          118 129 rlineto
          5 5 5 2 4 0 5 0 5 -4 3 -7 rrcurveto
          236 -586 rlineto
          16 -38 30 -19 44 0 rrcurveto
          endchar
        </CharString>
        <CharString name="L">
          0 982 hmoveto
          32 0 29 11 27 22 33 28 17 33 0 38 0 21 -6 18 -12 16 -16 22 -26 11 -35 0 rrcurveto
          -461 hlineto
          -17 0 -12 6 -8 11 -9 11 -4 11 0 13 0 5 38 181 76 357 76 357 38 182 0 8 0 18 -6 18 -10 16 -15 23 -25 12 -36 1 -36 0 -31 -11 -25 -22 -26 -22 -16 -26 -6 -29 rrcurveto
          -170 -799 -85 -405 0 -11 0 -29 9 -26 18 -23 25 -31 35 -16 47 0 rrcurveto
          endchar
        </CharString>
        <CharString name="M">
          0 957 -50 rmoveto
          32 0 30 11 27 22 27 22 17 26 7 30 181 849 90 429 0 8 0 23 -8 22 -15 19 -21 26 -29 13 -38 0 -28 0 -26 -7 -25 -14 -25 -15 -21 -19 -16 -25 rrcurveto
          -328 -550 rlineto
          -8 -14 -6 -7 -5 0 -5 0 -4 7 -2 13 rrcurveto
          -95 551 rlineto
          -4 25 -12 19 -19 15 -20 14 -24 7 -28 0 -37 0 -34 -13 -31 -26 -31 -26 -19 -30 -7 -34 -181 -849 -90 -428 0 -7 0 -20 6 -18 13 -16 17 -22 25 -11 33 0 32 0 30 11 27 22 rrcurveto
          27 22 16 26 7 30 rrcurveto
          171 804 53 -316 rlineto
          5 -27 14 -20 21 -15 21 -15 25 -7 28 0 29 0 28 8 28 15 28 15 22 21 16 25 rrcurveto
          190 323 rlineto
          -117 -549 -58 -279 0 -7 0 -20 6 -18 13 -16 17 -22 25 -11 33 0 rrcurveto
          endchar
        </CharString>
        <CharString name="N">
          0 930 -50 rmoveto
          37 0 35 13 32 26 31 25 20 31 7 35 180 847 90 428 0 7 0 21 -6 19 -13 16 -17 21 -25 11 -33 0 -33 0 -29 -11 -27 -21 -27 -22 -16 -26 -6 -30 rrcurveto
          -183 -861 -273 896 rlineto
          -19 50 -35 25 -52 0 -38 0 -35 -13 -31 -26 -31 -26 -20 -30 -7 -34 -181 -849 -90 -428 0 -7 0 -20 6 -18 13 -16 17 -22 25 -11 33 0 33 0 30 11 27 22 27 22 16 26 7 30 rrcurveto
          183 860 272 -895 rlineto
          18 -51 35 -25 53 0 rrcurveto
          endchar
        </CharString>
        <CharString name="Ntilde">
          0 935 -50 rmoveto
          36 0 33 12 31 25 30 25 19 30 8 35 180 848 90 428 0 7 0 21 -7 18 -14 18 -18 22 -25 11 -34 0 -32 0 -28 -10 -26 -21 -26 -21 -15 -25 -7 -30 rrcurveto
          -187 -880 rlineto
          0 -3 0 -1 0 0 6 0 4 -1 0 -3 rrcurveto
          -279 917 rlineto
          -20 52 -36 26 -54 0 -37 0 -34 -13 -30 -25 -31 -25 -19 -29 -7 -34 -180 -848 -90 -428 0 -7 0 -21 6 -18 13 -16 19 -24 26 -12 34 0 32 0 29 11 26 21 26 21 15 25 7 30 rrcurveto
          187 880 rlineto
          0 2 0 1 -2 0 -4 0 -3 1 -1 2 rrcurveto
          278 -915 rlineto
          20 -53 37 -26 54 0 rrcurveto
          122 1620 rmoveto
          84 0 82 44 69 79 11 14 8 17 4 14 rrcurveto
          2 17 rlineto
          0 25 -14 30 -28 11 -11 6 -17 3 -13 0 -26 0 -31 -13 -21 -20 -7 -8 -8 -7 -8 -5 -18 -13 -10 -4 -16 0 -20 0 -12 4 -14 14 -19 17 -21 17 -24 16 -26 19 -40 10 -42 0 rrcurveto
          -57 0 -57 -21 -49 -38 -24 -21 -25 -22 -20 -24 -13 -13 -9 -17 -4 -16 -1 -6 0 -6 0 -5 0 -23 13 -26 23 -13 12 -7 18 -4 14 0 50 0 21 27 31 30 15 12 12 5 19 0 rrcurveto
          19 0 12 -5 18 -15 17 -15 22 -17 22 -17 28 -20 38 -10 41 0 rrcurveto
          endchar
        </CharString>
        <CharString name="O">
          0 636 170 rmoveto
          -115 0 -58 91 0 182 0 74 10 86 21 97 30 143 42 119 55 94 67 116 80 58 93 0 115 0 58 -92 0 -185 0 -74 -10 -85 -20 -94 -30 -140 -42 -118 -55 -96 -67 -117 -81 -59 -93 0 rrcurveto
          -47 -220 rmoveto
          156 0 130 59 105 119 117 133 84 191 53 248 24 117 12 104 0 89 0 104 -16 86 -32 70 -55 120 -105 60 -153 0 -155 0 -129 -60 -105 -119 -119 -135 -85 -191 -52 -245 -25 -118 -13 -105 0 -90 rrcurveto
          0 -188 54 -129 108 -71 51 -33 67 -16 83 0 rrcurveto
          endchar
        </CharString>
        <CharString name="Oacute">
          0 632 170 rmoveto
          -113 0 -56 90 0 179 0 75 10 86 20 96 31 143 43 120 55 96 68 117 81 58 95 0 112 0 56 -91 0 -182 0 -74 -10 -85 -20 -95 -29 -140 -43 -118 -56 -97 -67 -119 -82 -59 -95 0 rrcurveto
          -38 -220 rmoveto
          154 0 129 60 104 119 116 131 84 189 53 248 24 117 12 103 0 90 0 101 -16 88 -33 72 -55 121 -106 61 -155 0 -153 0 -129 -60 -105 -119 -117 -134 -85 -189 -52 -245 -25 -119 -13 -105 0 -91 rrcurveto
          0 -187 55 -129 108 -70 52 -35 68 -17 85 0 rrcurveto
          200 1595 rmoveto
          12 0 12 3 11 4 rrcurveto
          306 109 rlineto
          45 16 34 42 9 39 1 7 1 8 0 7 0 11 -2 11 -4 11 -14 33 -39 23 -38 0 -19 0 -22 -6 -19 -9 rrcurveto
          -293 -153 rlineto
          -28 -15 -22 -28 -5 -25 -1 -5 -1 -6 0 -6 0 -7 2 -8 2 -6 7 -28 33 -22 32 0 rrcurveto
          endchar
        </CharString>
        <CharString name="Ocircumflex">
          0 632 170 rmoveto
          -113 0 -56 90 0 179 0 75 10 86 20 96 31 143 43 120 55 96 68 117 81 58 95 0 112 0 56 -91 0 -182 0 -74 -10 -85 -20 -95 -29 -140 -43 -118 -56 -97 -67 -119 -82 -59 -95 0 rrcurveto
          -38 -220 rmoveto
          154 0 129 60 104 119 116 131 84 189 53 248 24 117 12 103 0 90 0 101 -16 88 -33 72 -55 121 -106 61 -155 0 -153 0 -129 -60 -105 -119 -117 -134 -85 -189 -52 -245 -25 -119 -13 -105 0 -91 rrcurveto
          0 -187 55 -129 108 -70 52 -35 68 -17 85 0 rrcurveto
          94 1605 rmoveto
          16 0 20 6 16 9 rrcurveto
          200 113 rlineto
          10 5 6 2 8 0 7 0 3 -1 6 -5 rrcurveto
          155 -113 rlineto
          14 -10 19 -5 16 0 25 0 30 12 19 18 16 15 11 20 5 17 1 6 0 6 0 5 0 17 -7 20 -12 13 rrcurveto
          -146 144 rlineto
          -30 31 -48 19 -48 0 -46 0 -52 -18 -40 -28 rrcurveto
          -208 -144 rlineto
          -23 -16 -16 -25 -5 -22 -1 -5 0 -6 0 -6 0 -13 4 -15 8 -12 13 -20 28 -14 26 0 rrcurveto
          endchar
        </CharString>
        <CharString name="Odieresis">
          0 632 170 rmoveto
          -113 0 -56 90 0 179 0 75 10 86 20 96 31 143 43 120 55 96 68 117 81 58 95 0 112 0 56 -91 0 -182 0 -74 -10 -85 -20 -95 -29 -140 -43 -118 -56 -97 -67 -119 -82 -59 -95 0 rrcurveto
          -38 -220 rmoveto
          154 0 129 60 104 119 116 131 84 189 53 248 24 117 12 103 0 90 0 101 -16 88 -33 72 -55 121 -106 61 -155 0 -153 0 -129 -60 -105 -119 -117 -134 -85 -189 -52 -245 -25 -119 -13 -105 0 -91 rrcurveto
          0 -187 55 -129 108 -70 52 -35 68 -17 85 0 rrcurveto
          125 1603 rmoveto
          41 0 36 13 32 25 43 35 21 43 0 51 0 25 -8 23 -15 19 -24 29 -33 14 -42 0 -42 0 -37 -13 -32 -25 -43 -34 -22 -43 0 -50 0 -26 8 -23 16 -20 24 -29 33 -14 44 0 rrcurveto
          431 hmoveto
          41 0 37 13 32 25 43 35 22 43 0 51 0 25 -8 23 -15 19 -24 29 -33 14 -44 0 -41 0 -36 -13 -32 -25 -43 -34 -22 -43 0 -50 0 -26 8 -23 16 -20 24 -29 33 -14 42 0 rrcurveto
          endchar
        </CharString>
        <CharString name="Ograve">
          0 632 170 rmoveto
          -113 0 -56 90 0 179 0 75 10 86 20 96 31 143 43 120 55 96 68 117 81 58 95 0 112 0 56 -91 0 -182 0 -74 -10 -85 -20 -95 -29 -140 -43 -118 -56 -97 -67 -119 -82 -59 -95 0 rrcurveto
          -38 -220 rmoveto
          154 0 129 60 104 119 116 131 84 189 53 248 24 117 12 103 0 90 0 101 -16 88 -33 72 -55 121 -106 61 -155 0 -153 0 -129 -60 -105 -119 -117 -134 -85 -189 -52 -245 -25 -119 -13 -105 0 -91 rrcurveto
          0 -187 55 -129 108 -70 52 -35 68 -17 85 0 rrcurveto
          500 1595 rmoveto
          29 0 35 19 20 25 8 12 6 13 3 13 rrcurveto
          2 15 rlineto
          0 21 -12 23 -19 13 rrcurveto
          -229 153 rlineto
          -16 11 -22 6 -19 0 -37 0 -42 -20 -27 -31 -14 -17 -8 -19 -4 -18 -1 -7 -1 -8 0 -7 0 -32 20 -34 33 -15 rrcurveto
          261 -109 rlineto
          9 -4 13 -3 12 0 rrcurveto
          endchar
        </CharString>
        <CharString name="Oslash">
          0 632 170 rmoveto
          -113 0 -56 90 0 179 0 75 10 86 20 96 31 143 43 120 55 96 68 117 81 58 95 0 112 0 56 -91 0 -182 0 -74 -10 -85 -20 -95 -29 -140 -43 -118 -56 -97 -67 -119 -82 -59 -95 0 rrcurveto
          -38 -220 rmoveto
          154 0 129 60 104 119 116 131 84 189 53 248 24 117 12 103 0 90 0 101 -16 88 -33 72 -55 121 -106 61 -155 0 -153 0 -129 -60 -105 -119 -117 -134 -85 -189 -52 -245 -25 -119 -13 -105 0 -91 rrcurveto
          0 -187 55 -129 108 -70 52 -35 68 -17 85 0 rrcurveto
          -397 -170 rmoveto
          22 0 21 6 22 12 21 12 18 15 12 20 rrcurveto
          1064 1620 rlineto
          14 22 7 21 0 21 0 12 -3 12 -4 12 -15 37 -31 18 -45 0 -22 0 -21 -6 -21 -11 -22 -12 -17 -15 -12 -20 rrcurveto
          -1065 -1620 rlineto
          -14 -21 -6 -22 0 -21 0 -13 2 -12 5 -11 15 -37 30 -19 45 0 rrcurveto
          endchar
        </CharString>
        <CharString name="Otilde">
          0 632 170 rmoveto
          -113 0 -56 90 0 179 0 75 10 86 20 96 31 143 43 120 55 96 68 117 81 58 95 0 112 0 56 -91 0 -182 0 -74 -10 -85 -20 -95 -29 -140 -43 -118 -56 -97 -67 -119 -82 -59 -95 0 rrcurveto
          -38 -220 rmoveto
          154 0 129 60 104 119 116 131 84 189 53 248 24 117 12 103 0 90 0 101 -16 88 -33 72 -55 121 -106 61 -155 0 -153 0 -129 -60 -105 -119 -117 -134 -85 -189 -52 -245 -25 -119 -13 -105 0 -91 rrcurveto
          0 -187 55 -129 108 -70 52 -35 68 -17 85 0 rrcurveto
          463 1620 rmoveto
          84 0 82 44 69 79 11 14 8 17 4 14 rrcurveto
          2 17 rlineto
          0 25 -14 30 -28 11 -11 6 -17 3 -13 0 -26 0 -31 -13 -21 -20 -7 -8 -8 -7 -8 -5 -18 -13 -10 -4 -16 0 -20 0 -12 4 -14 14 -19 17 -21 17 -24 16 -26 19 -40 10 -42 0 rrcurveto
          -57 0 -57 -21 -49 -38 -24 -21 -25 -22 -20 -24 -13 -13 -9 -17 -4 -16 -1 -6 0 -6 0 -5 0 -23 13 -26 23 -13 12 -7 18 -4 14 0 50 0 21 27 31 30 15 12 12 5 19 0 rrcurveto
          19 0 12 -5 18 -15 17 -15 22 -17 22 -17 28 -20 38 -10 41 0 rrcurveto
          endchar
        </CharString>
        <CharString name="P">
          0 839 760 rmoveto
          -234 hlineto
          -10 0 -5 6 0 11 rrcurveto
          85 400 rlineto
          4 15 8 7 11 0 rrcurveto
          234 hlineto
          32 0 28 -7 23 -15 39 -25 20 -39 0 -55 0 -20 -3 -21 -5 -24 -18 -84 -30 -60 -43 -35 -43 -36 -46 -18 -47 0 rrcurveto
          -540 -810 rmoveto
          33 0 29 11 27 22 27 22 16 26 7 29 rrcurveto
          97 457 rlineto
          1 7 4 6 5 4 5 4 4 2 4 0 rrcurveto
          234 hlineto
          75 0 72 20 71 39 71 39 60 54 51 68 51 67 34 78 19 88 9 44 5 40 0 35 0 71 -22 62 -44 53 -63 81 -89 41 -113 0 rrcurveto
          -363 hlineto
          -34 0 -31 -11 -27 -23 -28 -23 -17 -27 -6 -30 -179 -839 -89 -424 0 -7 0 -19 6 -18 13 -16 18 -22 25 -11 32 0 rrcurveto
          endchar
        </CharString>
        <CharString name="Q">
          0 636 170 rmoveto
          -115 0 -58 91 0 182 0 74 10 86 21 97 30 143 42 119 55 94 67 116 80 58 93 0 115 0 58 -92 0 -185 0 -74 -10 -85 -20 -94 -30 -140 -42 -118 -55 -96 -67 -117 -81 -59 -93 0 rrcurveto
          -47 -220 rmoveto
          156 0 130 59 105 119 117 133 84 191 53 248 24 117 12 104 0 89 0 104 -16 86 -32 70 -55 120 -105 60 -153 0 -155 0 -129 -60 -105 -119 -119 -135 -85 -191 -52 -245 -25 -118 -13 -105 0 -90 rrcurveto
          0 -188 54 -129 108 -71 51 -33 67 -16 83 0 rrcurveto
          303 -391 rmoveto
          33 0 30 12 27 23 35 29 17 31 0 35 0 40 -18 28 -37 15 rrcurveto
          -360 142 rlineto
          -12 5 -13 3 -14 0 -33 0 -30 -11 -27 -23 -34 -30 -17 -32 0 -35 0 -14 3 -13 6 -12 9 -19 15 -15 20 -9 rrcurveto
          361 -142 rlineto
          13 -5 13 -3 13 0 rrcurveto
          endchar
        </CharString>
        <CharString name="R">
          0 802 770 rmoveto
          -224 hlineto
          -9 0 -5 5 0 10 0 2 27 130 55 260 4 15 8 7 11 0 rrcurveto
          224 hlineto
          33 0 28 -7 23 -13 39 -23 19 -39 0 -54 0 -21 -2 -23 -6 -25 -10 -49 -17 -42 -25 -33 -25 -34 -27 -25 -30 -16 -31 -17 -30 -8 -30 0 rrcurveto
          154 -820 rmoveto
          35 0 30 11 27 23 33 29 17 32 0 35 0 10 -2 10 -3 11 -125 296 -63 149 0 2 0 13 6 9 12 6 109 43 88 75 66 108 33 54 24 61 14 67 10 46 5 40 0 35 rrcurveto
          0 68 -23 61 -45 54 -63 81 -88 41 -113 0 rrcurveto
          -354 hlineto
          -33 0 -31 -11 -28 -23 -28 -23 -17 -27 -6 -30 -178 -838 -90 -423 0 -8 0 -21 7 -18 13 -16 18 -21 26 -11 33 0 31 0 29 11 27 22 27 22 16 26 7 30 rrcurveto
          99 466 rlineto
          1 7 4 6 5 4 5 4 4 2 4 0 rrcurveto
          109 hlineto
          5 0 3 -4 3 -7 rrcurveto
          217 -532 rlineto
          17 -38 29 -19 42 0 rrcurveto
          endchar
        </CharString>
        <CharString name="S">
          0 599 -50 rmoveto
          87 0 77 15 67 31 67 31 63 45 61 60 61 60 39 74 19 89 6 28 3 28 0 26 0 109 -52 90 -105 73 -47 31 -65 32 -84 32 -120 43 -59 66 0 87 0 13 1 14 3 15 rrcurveto
          13 61 30 47 47 33 47 33 54 16 61 0 53 0 45 -10 36 -21 36 -21 21 -26 5 -31 8 -59 30 -29 53 0 68 0 42 36 15 72 2 11 1 11 0 12 -2 78 -33 65 -65 52 rrcurveto
          -65 52 -92 26 -120 0 -79 0 -75 -16 -69 -31 -70 -32 -62 -47 -55 -63 -55 -63 -38 -80 -21 -97 -6 -28 -3 -27 0 -25 0 -155 106 -118 213 -81 37 -14 38 -17 37 -21 72 -38 36 -46 0 -53 rrcurveto
          0 -9 -1 -10 -2 -9 -16 -76 -44 -55 -71 -34 -45 -21 -46 -11 -45 0 -97 3 -76 49 -57 95 -22 38 -30 19 -37 0 -34 0 -29 -12 -25 -23 -25 -23 -15 -28 -7 -33 -2 -7 0 -7 0 -7 rrcurveto
          0 -6 0 -6 2 -6 15 -65 46 -61 76 -57 75 -57 90 -29 104 0 rrcurveto
          endchar
        </CharString>
        <CharString name="T">
          0 589 -50 rmoveto
          33 0 29 11 27 22 27 22 16 26 7 29 rrcurveto
          233 1097 rlineto
          1 7 4 6 5 4 5 4 4 2 4 0 rrcurveto
          247 hlineto
          32 0 30 11 27 22 34 27 17 33 0 38 0 20 -6 19 -13 16 -17 23 -24 11 -33 0 rrcurveto
          -760 hlineto
          -33 0 -29 -11 -27 -22 -35 -29 -17 -33 0 -38 0 -20 6 -18 13 -16 17 -22 25 -11 33 0 rrcurveto
          247 hlineto
          9 0 5 -5 0 -10 rrcurveto
          -117 -556 rlineto
          -80 -374 -40 -191 0 -8 0 -19 6 -18 13 -16 18 -22 25 -11 32 0 rrcurveto
          endchar
        </CharString>
        <CharString name="Thorn">
          0 771 460 rmoveto
          -234 hlineto
          -3 0 -2 1 -2 3 -2 2 -1 3 0 4 0 2 35 167 71 332 1 8 4 6 5 4 6 5 6 2 5 0 rrcurveto
          234 hlineto
          31 0 26 -9 23 -17 41 -32 20 -41 0 -52 0 -29 -4 -38 -10 -45 -21 -98 -33 -71 -46 -43 -46 -43 -50 -21 -54 0 rrcurveto
          -467 -510 rmoveto
          32 0 28 11 26 21 26 21 15 25 7 29 rrcurveto
          33 157 rlineto
          1 8 4 6 6 5 6 5 5 2 5 0 rrcurveto
          234 hlineto
          81 0 74 19 67 39 66 39 61 56 55 74 55 74 38 88 22 101 11 55 6 49 0 44 0 84 -22 73 -45 61 -65 83 -90 41 -114 0 rrcurveto
          -247 hlineto
          18 86 9 46 0 8 0 20 -6 18 -13 17 -19 23 -26 12 -34 0 -32 0 -28 -11 -26 -21 -26 -21 -15 -25 -7 -29 -183 -861 -91 -434 0 -8 0 -20 6 -18 13 -16 19 -24 26 -12 34 0 rrcurveto
          endchar
        </CharString>
        <CharString name="U">
          0 588 -50 rmoveto
          98 0 89 23 80 47 79 47 67 64 55 83 54 83 38 95 23 109 122 569 60 289 0 7 0 20 -6 19 -13 16 -17 22 -25 11 -33 0 -33 0 -29 -11 -27 -22 -27 -22 -17 -26 -6 -29 rrcurveto
          -180 -843 rlineto
          -13 -64 -21 -57 -29 -49 -29 -50 -35 -38 -40 -27 -41 -27 -45 -14 -51 0 -51 0 -39 14 -28 28 -29 27 -17 31 -5 34 -5 34 -3 27 0 20 0 35 4 37 8 39 122 569 60 289 0 7 rrcurveto
          0 20 -6 19 -13 16 -17 22 -25 11 -33 0 -33 0 -29 -11 -27 -22 -27 -22 -16 -26 -6 -29 rrcurveto
          -180 -843 rlineto
          -12 -60 -7 -55 0 -52 0 -142 44 -104 87 -68 60 -47 78 -23 97 0 rrcurveto
          endchar
        </CharString>
        <CharString name="Uacute">
          0 593 -50 rmoveto
          97 0 88 23 79 46 79 47 66 64 54 82 53 82 39 95 23 109 121 570 61 288 0 8 0 20 -6 18 -13 17 -19 23 -26 12 -34 0 -32 0 -28 -11 -26 -21 -26 -21 -16 -25 -7 -29 rrcurveto
          -180 -843 rlineto
          -13 -64 -22 -57 -29 -50 -29 -51 -35 -38 -41 -28 -41 -27 -47 -14 -51 0 -50 0 -38 14 -28 27 -27 27 -17 30 -5 34 -6 34 -2 27 0 20 0 34 4 37 8 39 121 570 61 288 0 8 rrcurveto
          0 20 -6 18 -13 17 -19 23 -26 12 -34 0 -32 0 -28 -11 -26 -21 -26 -21 -15 -25 -7 -29 rrcurveto
          -180 -843 rlineto
          -12 -59 -7 -56 0 -51 0 -142 45 -106 89 -70 60 -47 79 -23 98 0 rrcurveto
          201 1595 rmoveto
          12 0 12 3 11 4 rrcurveto
          306 109 rlineto
          45 16 34 42 9 39 1 7 1 8 0 7 0 11 -2 11 -4 11 -14 33 -39 23 -38 0 -19 0 -22 -6 -19 -9 rrcurveto
          -293 -153 rlineto
          -28 -15 -22 -28 -5 -25 -1 -5 -1 -6 0 -6 0 -7 2 -8 2 -6 7 -28 33 -22 32 0 rrcurveto
          endchar
        </CharString>
        <CharString name="Ucircumflex">
          0 593 -50 rmoveto
          97 0 88 23 79 46 79 47 66 64 54 82 53 82 39 95 23 109 121 570 61 288 0 8 0 20 -6 18 -13 17 -19 23 -26 12 -34 0 -32 0 -28 -11 -26 -21 -26 -21 -16 -25 -7 -29 rrcurveto
          -180 -843 rlineto
          -13 -64 -22 -57 -29 -50 -29 -51 -35 -38 -41 -28 -41 -27 -47 -14 -51 0 -50 0 -38 14 -28 27 -27 27 -17 30 -5 34 -6 34 -2 27 0 20 0 34 4 37 8 39 121 570 61 288 0 8 rrcurveto
          0 20 -6 18 -13 17 -19 23 -26 12 -34 0 -32 0 -28 -11 -26 -21 -26 -21 -15 -25 -7 -29 rrcurveto
          -180 -843 rlineto
          -12 -59 -7 -56 0 -51 0 -142 45 -106 89 -70 60 -47 79 -23 98 0 rrcurveto
          126 1603 rmoveto
          41 0 36 13 32 25 43 35 21 43 0 51 0 25 -8 23 -15 19 -24 29 -33 14 -42 0 -42 0 -37 -13 -32 -25 -43 -34 -22 -43 0 -50 0 -26 8 -23 16 -20 24 -29 33 -14 44 0 rrcurveto
          431 hmoveto
          41 0 37 13 32 25 43 35 22 43 0 51 0 25 -8 23 -15 19 -24 29 -33 14 -44 0 -41 0 -36 -13 -32 -25 -43 -34 -22 -43 0 -50 0 -26 8 -23 16 -20 24 -29 33 -14 42 0 rrcurveto
          endchar
        </CharString>
        <CharString name="Udieresis">
          0 593 -50 rmoveto
          97 0 88 23 79 46 79 47 66 64 54 82 53 82 39 95 23 109 121 570 61 288 0 8 0 20 -6 18 -13 17 -19 23 -26 12 -34 0 -32 0 -28 -11 -26 -21 -26 -21 -16 -25 -7 -29 rrcurveto
          -180 -843 rlineto
          -13 -64 -22 -57 -29 -50 -29 -51 -35 -38 -41 -28 -41 -27 -47 -14 -51 0 -50 0 -38 14 -28 27 -27 27 -17 30 -5 34 -6 34 -2 27 0 20 0 34 4 37 8 39 121 570 61 288 0 8 rrcurveto
          0 20 -6 18 -13 17 -19 23 -26 12 -34 0 -32 0 -28 -11 -26 -21 -26 -21 -15 -25 -7 -29 rrcurveto
          -180 -843 rlineto
          -12 -59 -7 -56 0 -51 0 -142 45 -106 89 -70 60 -47 79 -23 98 0 rrcurveto
          95 1605 rmoveto
          16 0 20 6 16 9 rrcurveto
          200 113 rlineto
          10 5 6 2 8 0 7 0 3 -1 6 -5 rrcurveto
          155 -113 rlineto
          14 -10 19 -5 16 0 25 0 30 12 19 18 16 15 11 20 5 17 1 6 0 6 0 5 0 17 -7 20 -12 13 rrcurveto
          -146 144 rlineto
          -30 31 -48 19 -48 0 -46 0 -52 -18 -40 -28 rrcurveto
          -208 -144 rlineto
          -23 -16 -16 -25 -5 -22 -1 -5 0 -6 0 -6 0 -13 4 -15 8 -12 13 -20 28 -14 26 0 rrcurveto
          endchar
        </CharString>
        <CharString name="Ugrave">
          0 593 -50 rmoveto
          97 0 88 23 79 46 79 47 66 64 54 82 53 82 39 95 23 109 121 570 61 288 0 8 0 20 -6 18 -13 17 -19 23 -26 12 -34 0 -32 0 -28 -11 -26 -21 -26 -21 -16 -25 -7 -29 rrcurveto
          -180 -843 rlineto
          -13 -64 -22 -57 -29 -50 -29 -51 -35 -38 -41 -28 -41 -27 -47 -14 -51 0 -50 0 -38 14 -28 27 -27 27 -17 30 -5 34 -6 34 -2 27 0 20 0 34 4 37 8 39 121 570 61 288 0 8 rrcurveto
          0 20 -6 18 -13 17 -19 23 -26 12 -34 0 -32 0 -28 -11 -26 -21 -26 -21 -15 -25 -7 -29 rrcurveto
          -180 -843 rlineto
          -12 -59 -7 -56 0 -51 0 -142 45 -106 89 -70 60 -47 79 -23 98 0 rrcurveto
          501 1595 rmoveto
          29 0 35 19 20 25 8 12 6 13 3 13 rrcurveto
          2 15 rlineto
          0 21 -12 23 -19 13 rrcurveto
          -229 153 rlineto
          -16 11 -22 6 -19 0 -37 0 -42 -20 -27 -31 -14 -17 -8 -19 -4 -18 -1 -7 -1 -8 0 -7 0 -32 20 -34 33 -15 rrcurveto
          261 -109 rlineto
          9 -4 13 -3 12 0 rrcurveto
          endchar
        </CharString>
        <CharString name="V">
          0 593 -33 rmoveto
          33 0 31 10 29 20 29 20 22 25 15 30 rrcurveto
          624 1258 rlineto
          6 18 3 15 0 14 0 20 -5 18 -12 17 -16 23 -25 12 -35 0 -27 0 -26 -8 -24 -15 -24 -16 -18 -20 -11 -24 rrcurveto
          -472 -965 -64 965 rlineto
          -1 24 -9 20 -17 16 -17 15 -22 8 -27 0 -30 0 -29 -11 -28 -21 -29 -22 -17 -26 -7 -30 rrcurveto
          -3 vlineto
          0 -40 25 -427 49 -815 3 -34 12 -26 23 -18 23 -18 29 -9 36 0 rrcurveto
          endchar
        </CharString>
        <CharString name="W">
          0 895 -50 rmoveto
          37 0 33 12 31 24 31 23 20 29 10 35 226 851 113 429 0 8 0 21 -7 18 -14 17 -19 22 -25 11 -32 0 -31 0 -29 -10 -26 -21 -27 -21 -18 -25 -9 -30 rrcurveto
          -214 -829 -24 418 rlineto
          -3 25 -11 21 -19 16 -20 16 -24 8 -28 0 -28 0 -27 -8 -26 -16 -26 -16 -19 -20 -13 -24 rrcurveto
          -202 -411 rlineto
          90 554 45 280 0 6 0 21 -7 19 -13 16 -17 21 -25 10 -32 0 -32 0 -30 -11 -27 -21 -27 -21 -17 -25 -7 -29 -136 -857 -67 -431 0 -6 0 -24 8 -21 16 -18 21 -24 28 -12 36 0 rrcurveto
          29 0 28 8 27 17 27 16 21 21 15 27 rrcurveto
          308 605 51 -603 rlineto
          3 -27 11 -21 19 -17 19 -17 25 -9 30 0 rrcurveto
          endchar
        </CharString>
        <CharString name="X">
          0 950 -50 rmoveto
          35 0 31 12 27 24 33 31 17 33 0 36 0 10 -1 10 -3 10 -134 392 -67 196 0 2 0 7 142 192 284 378 18 25 8 25 0 25 0 20 -5 19 -12 17 -16 24 -26 12 -35 0 rrcurveto
          -44 0 -39 -21 -35 -41 rrcurveto
          -325 -445 -136 445 rlineto
          -16 41 -31 21 -47 0 -35 0 -30 -12 -26 -24 -35 -31 -17 -34 0 -36 0 -10 2 -10 3 -10 121 -371 61 -191 0 -9 -1 -4 -151 -198 -301 -393 -19 -25 -9 -26 0 -25 0 -20 6 -19 13 -17 rrcurveto
          17 -23 26 -12 35 0 43 0 38 20 35 41 rrcurveto
          360 490 149 -490 rlineto
          17 -41 31 -20 44 0 rrcurveto
          endchar
        </CharString>
        <CharString name="Y">
          0 590 -50 rmoveto
          33 0 29 11 27 22 26 22 16 26 7 30 rrcurveto
          134 632 rlineto
          3 11 5 11 8 11 rrcurveto
          435 562 rlineto
          18 25 9 25 0 25 0 19 -5 18 -12 16 -16 23 -25 11 -34 0 -21 0 -21 -5 -21 -9 -21 -10 -18 -14 -14 -18 rrcurveto
          -311 -404 rlineto
          -5 -6 -5 -3 -4 0 -5 0 -4 3 -3 6 rrcurveto
          -136 404 rlineto
          -15 37 -31 19 -48 0 -33 0 -30 -11 -26 -22 -33 -29 -17 -32 0 -34 0 -11 2 -12 4 -11 134 -384 67 -195 0 -5 0 -6 -23 -110 -46 -216 -46 -216 -23 -111 0 -8 0 -20 6 -18 13 -16 rrcurveto
          18 -22 25 -11 33 0 rrcurveto
          endchar
        </CharString>
        <CharString name="Yacute">
          0 595 -50 rmoveto
          32 0 28 11 25 21 26 21 15 26 7 29 rrcurveto
          134 632 rlineto
          2 11 6 11 8 12 rrcurveto
          434 562 rlineto
          19 25 9 24 0 24 0 20 -6 18 -13 18 -16 23 -26 12 -35 0 -20 0 -21 -5 -20 -9 -21 -10 -16 -13 -13 -17 rrcurveto
          -312 -404 rlineto
          -7 -7 -6 -4 -6 0 -3 0 -2 2 -2 4 rrcurveto
          -136 404 rlineto
          -16 39 -33 20 -49 0 -32 0 -29 -11 -25 -21 -33 -28 -16 -31 0 -35 0 -11 2 -11 4 -11 134 -383 68 -194 0 -6 0 -6 -23 -110 -46 -216 -46 -216 -23 -112 0 -7 0 -21 6 -18 13 -16 rrcurveto
          19 -24 27 -12 34 0 rrcurveto
          199 1595 rmoveto
          12 0 12 3 11 4 rrcurveto
          306 109 rlineto
          45 16 34 42 9 39 1 7 1 8 0 7 0 11 -2 11 -4 11 -14 33 -39 23 -38 0 -19 0 -22 -6 -19 -9 rrcurveto
          -293 -153 rlineto
          -28 -15 -22 -28 -5 -25 -1 -5 -1 -6 0 -6 0 -7 2 -8 2 -6 7 -28 33 -22 32 0 rrcurveto
          endchar
        </CharString>
        <CharString name="Z">
          0 936 -20 rmoveto
          33 0 29 11 27 22 34 28 18 34 0 38 0 21 -7 17 -13 16 -17 22 -25 11 -32 0 rrcurveto
          -483 hlineto
          -9 0 -4 5 0 10 0 8 2 8 5 7 rrcurveto
          792 944 rlineto
          27 36 14 38 0 39 0 29 -9 26 -18 23 -25 31 -35 16 -46 0 rrcurveto
          -631 hlineto
          -31 0 -30 -11 -27 -22 -35 -29 -18 -32 0 -38 0 -21 7 -18 13 -17 18 -22 25 -11 31 0 rrcurveto
          483 hlineto
          10 0 5 -5 0 -11 0 -7 -2 -6 -4 -6 rrcurveto
          -793 -943 rlineto
          -29 -36 -14 -38 0 -40 0 -29 9 -27 19 -23 25 -32 36 -16 47 0 rrcurveto
          endchar
        </CharString>
        <CharString name="a">
          0 487 185 rmoveto
          -81 0 -41 43 0 87 0 27 4 31 7 34 21 91 29 80 38 67 38 67 44 53 52 37 52 37 52 18 54 0 57 0 38 -27 18 -55 7 -22 3 -24 0 -24 0 -20 -2 -20 -5 -20 rrcurveto
          -29 -141 -52 -112 -74 -83 -75 -81 -76 -41 -79 -2 rrcurveto
          542 62 rmoveto
          3 52 9 63 15 73 47 221 49 185 50 148 1 10 1 8 0 7 0 21 -6 16 -12 12 -22 25 -27 12 -32 0 -63 0 -43 -29 -22 -57 -1 -4 0 -2 3 0 2 0 1 0 0 -1 rrcurveto
          -38 61 -62 30 -84 2 -107 0 -99 -34 -92 -67 -91 -67 -76 -86 -60 -103 -61 -103 -43 -113 -27 -123 -12 -56 -6 -51 0 -46 0 -73 15 -60 31 -47 50 -81 89 -40 128 0 68 0 72 22 78 43 rrcurveto
          78 43 54 43 32 44 1 3 1 1 0 0 -3 0 -2 0 -1 1 3 -5 1 -11 0 -15 1 -30 11 -31 21 -32 33 -50 54 -25 74 -1 60 0 59 24 57 49 59 52 30 47 0 44 rrcurveto
          0 15 -6 15 -11 14 -11 15 -16 7 -23 0 -33 0 -28 -14 -24 -28 -19 -23 -20 -12 -20 0 -16 0 -10 5 -5 10 -4 9 -2 22 -1 33 rrcurveto
          endchar
        </CharString>
        <CharString name="a_alt">
          0 968 -55 rmoveto
          55 0 61 49 12 56 rrcurveto
          143 671 rlineto
          49 231 -140 153 -258 0 -117 0 -106 -29 -90 -57 -56 -34 -80 -56 -13 -62 -14 -63 40 -61 62 0 37 0 41 21 21 19 85 76 58 32 93 0 69 0 42 -15 27 -30 34 -41 1 -26 -21 -97 rrcurveto
          -8 -40 -6 -6 -47 0 -26 0 -25 7 -27 5 -41 6 -41 2 -42 0 -243 0 -214 -114 -53 -246 -43 -203 116 -148 248 0 96 0 87 22 71 41 71 43 34 39 -38 -46 rrcurveto
          3 17 rlineto
          -12 -58 45 -58 60 0 rrcurveto
          -343 198 rmoveto
          -137 0 -34 47 22 106 30 140 154 8 46 1 rrcurveto
          24 hlineto
          69 0 84 -7 36 -29 14 -12 8 -9 -4 -20 rrcurveto
          -9 -43 rlineto
          -24 -111 -122 -71 -157 0 rrcurveto
          endchar
        </CharString>
        <CharString name="aacute">
          0 730 1245 rmoveto
          12 0 12 3 11 4 rrcurveto
          306 109 rlineto
          45 16 35 42 8 39 1 7 1 8 0 7 0 11 -2 11 -4 11 -14 33 -39 23 -38 0 -19 0 -23 -6 -17 -9 rrcurveto
          -294 -153 rlineto
          -28 -15 -22 -28 -5 -26 -1 -5 0 -6 0 -5 0 -7 1 -8 2 -7 9 -27 31 -22 32 0 rrcurveto
          -223 -1060 rmoveto
          -81 0 -41 43 0 87 0 27 4 31 7 34 21 91 29 80 38 67 38 67 44 53 52 37 52 37 52 18 54 0 57 0 38 -27 18 -55 7 -22 3 -24 0 -24 0 -20 -2 -20 -5 -20 rrcurveto
          -29 -141 -52 -112 -74 -83 -75 -81 -76 -41 -79 -2 rrcurveto
          542 62 rmoveto
          3 52 9 63 15 73 47 221 49 185 50 148 1 10 1 8 0 7 0 21 -6 16 -12 12 -22 25 -27 12 -32 0 -63 0 -43 -29 -22 -57 -1 -4 0 -2 3 0 2 0 1 0 0 -1 rrcurveto
          -38 61 -62 30 -84 2 -107 0 -99 -34 -92 -67 -91 -67 -76 -86 -60 -103 -61 -103 -43 -113 -27 -123 -12 -56 -6 -51 0 -46 0 -73 15 -60 31 -47 50 -81 89 -40 128 0 68 0 72 22 78 43 rrcurveto
          78 43 54 43 32 44 1 3 1 1 0 0 -3 0 -2 0 -1 1 3 -5 1 -11 0 -15 1 -30 11 -31 21 -32 33 -50 54 -25 74 -1 60 0 59 24 57 49 59 52 30 47 0 44 rrcurveto
          0 15 -6 15 -11 14 -11 15 -16 7 -23 0 -33 0 -28 -14 -24 -28 -19 -23 -20 -12 -20 0 -16 0 -10 5 -5 10 -4 9 -2 22 -1 33 rrcurveto
          endchar
        </CharString>
        <CharString name="aacute_alt">
          0 790 1240 rmoveto
          10 0 13 3 10 3 rrcurveto
          306 109 rlineto
          45 17 36 43 9 41 4 19 -1 23 -8 18 -14 36 -39 22 -37 0 -18 0 -22 -5 -18 -10 rrcurveto
          -293 -153 rlineto
          -28 -14 -23 -30 -6 -28 -2 -13 0 -17 4 -12 9 -31 33 -21 30 0 rrcurveto
          178 -1295 rmoveto
          55 0 61 49 12 56 rrcurveto
          143 671 rlineto
          49 231 -140 153 -258 0 -117 0 -106 -29 -90 -57 -56 -34 -80 -56 -13 -62 -14 -63 40 -61 62 0 37 0 41 21 21 19 85 76 58 32 93 0 69 0 42 -15 27 -30 34 -41 1 -26 -21 -97 rrcurveto
          -8 -40 -6 -6 -47 0 -26 0 -25 7 -27 5 -41 6 -41 2 -42 0 -243 0 -214 -114 -53 -246 -43 -203 116 -148 248 0 96 0 87 22 71 41 71 43 34 39 -38 -46 rrcurveto
          3 17 rlineto
          -12 -58 45 -58 60 0 rrcurveto
          -343 198 rmoveto
          -137 0 -34 47 22 106 30 140 154 8 46 1 rrcurveto
          24 hlineto
          69 0 84 -7 36 -29 14 -12 8 -9 -4 -20 rrcurveto
          -9 -43 rlineto
          -24 -111 -122 -71 -157 0 rrcurveto
          endchar
        </CharString>
        <CharString name="acircumflex">
          0 624 1255 rmoveto
          16 0 22 6 14 9 rrcurveto
          200 113 rlineto
          10 5 6 2 8 0 7 0 3 -1 6 -5 rrcurveto
          155 -113 rlineto
          14 -10 19 -5 17 0 24 0 30 12 19 18 16 15 12 20 4 18 1 5 0 7 0 5 0 17 -7 19 -13 13 rrcurveto
          -145 144 rlineto
          -30 31 -47 19 -48 0 -46 0 -53 -18 -40 -28 rrcurveto
          -208 -144 rlineto
          -22 -16 -16 -25 -6 -22 -1 -5 0 -6 0 -6 0 -13 4 -15 8 -12 13 -20 28 -14 26 0 rrcurveto
          -117 -1070 rmoveto
          -81 0 -41 43 0 87 0 27 4 31 7 34 21 91 29 80 38 67 38 67 44 53 52 37 52 37 52 18 54 0 57 0 38 -27 18 -55 7 -22 3 -24 0 -24 0 -20 -2 -20 -5 -20 rrcurveto
          -29 -141 -52 -112 -74 -83 -75 -81 -76 -41 -79 -2 rrcurveto
          542 62 rmoveto
          3 52 9 63 15 73 47 221 49 185 50 148 1 10 1 8 0 7 0 21 -6 16 -12 12 -22 25 -27 12 -32 0 -63 0 -43 -29 -22 -57 -1 -4 0 -2 3 0 2 0 1 0 0 -1 rrcurveto
          -38 61 -62 30 -84 2 -107 0 -99 -34 -92 -67 -91 -67 -76 -86 -60 -103 -61 -103 -43 -113 -27 -123 -12 -56 -6 -51 0 -46 0 -73 15 -60 31 -47 50 -81 89 -40 128 0 68 0 72 22 78 43 rrcurveto
          78 43 54 43 32 44 1 3 1 1 0 0 -3 0 -2 0 -1 1 3 -5 1 -11 0 -15 1 -30 11 -31 21 -32 33 -50 54 -25 74 -1 60 0 59 24 57 49 59 52 30 47 0 44 rrcurveto
          0 15 -6 15 -11 14 -11 15 -16 7 -23 0 -33 0 -28 -14 -24 -28 -19 -23 -20 -12 -20 0 -16 0 -10 5 -5 10 -4 9 -2 22 -1 33 rrcurveto
          endchar
        </CharString>
        <CharString name="acircumflex_alt">
          0 684 1250 rmoveto
          16 0 19 5 16 9 rrcurveto
          200 113 rlineto
          9 6 7 2 9 0 9 0 3 -2 7 -4 rrcurveto
          154 -113 rlineto
          13 -10 19 -5 16 0 23 0 29 11 19 19 17 15 12 22 4 19 5 24 -6 31 -18 19 rrcurveto
          -146 144 rlineto
          -29 30 -48 19 -46 0 -46 0 -51 -17 -40 -28 rrcurveto
          -208 -145 rlineto
          -23 -16 -17 -27 -5 -23 -4 -20 3 -26 12 -18 14 -21 28 -13 24 0 rrcurveto
          284 -1305 rmoveto
          55 0 61 49 12 56 rrcurveto
          143 671 rlineto
          49 231 -140 153 -258 0 -117 0 -106 -29 -90 -57 -56 -34 -80 -56 -13 -62 -14 -63 40 -61 62 0 37 0 41 21 21 19 85 76 58 32 93 0 69 0 42 -15 27 -30 34 -41 1 -26 -21 -97 rrcurveto
          -8 -40 -6 -6 -47 0 -26 0 -25 7 -27 5 -41 6 -41 2 -42 0 -243 0 -214 -114 -53 -246 -43 -203 116 -148 248 0 96 0 87 22 71 41 71 43 34 39 -38 -46 rrcurveto
          3 17 rlineto
          -12 -58 45 -58 60 0 rrcurveto
          -343 198 rmoveto
          -137 0 -34 47 22 106 30 140 154 8 46 1 rrcurveto
          24 hlineto
          69 0 84 -7 36 -29 14 -12 8 -9 -4 -20 rrcurveto
          -9 -43 rlineto
          -24 -111 -122 -71 -157 0 rrcurveto
          endchar
        </CharString>
        <CharString name="acute">
          0 1137 1682 rmoveto
          -510 -261 52 -146 526 196 rlineto
          endchar
        </CharString>
        <CharString name="adieresis">
          0 656 1253 rmoveto
          40 0 36 13 32 25 43 36 22 42 0 50 0 26 -8 23 -16 19 -24 29 -33 14 -42 0 -41 0 -37 -13 -32 -25 -43 -35 -22 -42 0 -51 0 -26 8 -22 16 -20 23 -29 34 -14 44 0 rrcurveto
          430 hmoveto
          42 0 37 13 32 25 43 36 22 42 0 49 0 26 -8 23 -16 20 -24 29 -33 14 -44 0 -40 0 -36 -13 -32 -25 -44 -34 -22 -43 0 -50 0 -26 8 -23 16 -20 24 -29 33 -14 42 0 rrcurveto
          -579 -1068 rmoveto
          -81 0 -41 43 0 87 0 27 4 31 7 34 21 91 29 80 38 67 38 67 44 53 52 37 52 37 52 18 54 0 57 0 38 -27 18 -55 7 -22 3 -24 0 -24 0 -20 -2 -20 -5 -20 rrcurveto
          -29 -141 -52 -112 -74 -83 -75 -81 -76 -41 -79 -2 rrcurveto
          542 62 rmoveto
          3 52 9 63 15 73 47 221 49 185 50 148 1 10 1 8 0 7 0 21 -6 16 -12 12 -22 25 -27 12 -32 0 -63 0 -43 -29 -22 -57 -1 -4 0 -2 3 0 2 0 1 0 0 -1 rrcurveto
          -38 61 -62 30 -84 2 -107 0 -99 -34 -92 -67 -91 -67 -76 -86 -60 -103 -61 -103 -43 -113 -27 -123 -12 -56 -6 -51 0 -46 0 -73 15 -60 31 -47 50 -81 89 -40 128 0 68 0 72 22 78 43 rrcurveto
          78 43 54 43 32 44 1 3 1 1 0 0 -3 0 -2 0 -1 1 3 -5 1 -11 0 -15 1 -30 11 -31 21 -32 33 -50 54 -25 74 -1 60 0 59 24 57 49 59 52 30 47 0 44 rrcurveto
          0 15 -6 15 -11 14 -11 15 -16 7 -23 0 -33 0 -28 -14 -24 -28 -19 -23 -20 -12 -20 0 -16 0 -10 5 -5 10 -4 9 -2 22 -1 33 rrcurveto
          endchar
        </CharString>
        <CharString name="adieresis_alt">
          0 716 1248 rmoveto
          39 0 36 13 33 27 32 26 21 33 8 39 9 42 -7 35 -24 29 -23 29 -33 14 -41 0 -41 0 -36 -13 -33 -26 -33 -26 -20 -34 -9 -40 -9 -41 8 -35 23 -29 24 -28 33 -15 43 0 rrcurveto
          430 hmoveto
          41 0 37 13 33 27 32 26 21 33 8 39 9 42 -7 35 -24 29 -23 29 -33 14 -43 0 -40 0 -36 -13 -32 -26 -33 -26 -20 -34 -9 -40 -9 -41 8 -35 23 -29 24 -28 32 -15 41 0 rrcurveto
          -178 -1303 rmoveto
          55 0 61 49 12 56 rrcurveto
          143 671 rlineto
          49 231 -140 153 -258 0 -117 0 -106 -29 -90 -57 -56 -34 -80 -56 -13 -62 -14 -63 40 -61 62 0 37 0 41 21 21 19 85 76 58 32 93 0 69 0 42 -15 27 -30 34 -41 1 -26 -21 -97 rrcurveto
          -8 -40 -6 -6 -47 0 -26 0 -25 7 -27 5 -41 6 -41 2 -42 0 -243 0 -214 -114 -53 -246 -43 -203 116 -148 248 0 96 0 87 22 71 41 71 43 34 39 -38 -46 rrcurveto
          3 17 rlineto
          -12 -58 45 -58 60 0 rrcurveto
          -343 198 rmoveto
          -137 0 -34 47 22 106 30 140 154 8 46 1 rrcurveto
          24 hlineto
          69 0 84 -7 36 -29 14 -12 8 -9 -4 -20 rrcurveto
          -9 -43 rlineto
          -24 -111 -122 -71 -157 0 rrcurveto
          endchar
        </CharString>
        <CharString name="ae">
          0 875 -50 rmoveto
          59 0 56 11 51 21 24 11 25 11 24 14 29 16 21 30 6 27 5 23 -4 16 -8 18 -12 27 -32 18 -29 0 -16 0 -20 -5 -15 -8 -14 -8 -13 -6 -12 -6 -28 -11 -28 -6 -33 0 rrcurveto
          -56 0 -31 19 -19 49 -15 38 -6 54 5 73 rrcurveto
          2 11 rlineto
          6 32 25 22 27 0 rrcurveto
          364 hlineto
          47 0 51 42 10 45 rrcurveto
          5 24 rlineto
          35 166 1 132 -32 96 -34 100 -88 54 -123 0 -66 0 -64 -17 -52 -33 -36 -24 -33 -30 -27 -35 -3 -3 3 1 -1 0 1 0 7 -5 0 1 -11 35 -20 32 -25 24 -37 36 -63 18 -77 0 rrcurveto
          -45 0 -48 -7 -49 -12 -24 -7 -26 -7 -24 -10 -37 -12 -30 -37 -7 -32 -2 -11 -1 -11 2 -14 rrcurveto
          1 -1 rlineto
          4 -31 36 -29 38 0 11 0 13 3 11 4 15 6 13 3 12 4 28 7 28 4 31 0 49 0 27 -11 20 -28 23 -31 0 -47 -16 -75 -7 -35 -25 -21 -28 0 rrcurveto
          -16 hlineto
          -138 0 -116 -32 -84 -62 -85 -62 -56 -91 -24 -112 -22 -102 10 -85 42 -65 43 -65 76 -36 96 0 67 0 63 16 52 32 42 25 45 42 46 53 3 3 -4 -1 0 0 -1 0 -7 3 1 0 rrcurveto
          21 -50 30 -42 36 -28 45 -34 63 -19 73 0 rrcurveto
          196 669 rmoveto
          -194 hlineto
          -23 0 -12 16 7 33 rrcurveto
          2 8 rlineto
          26 79 26 56 27 36 36 45 34 18 47 0 53 0 23 -17 10 -49 8 -40 -1 -54 -9 -70 rrcurveto
          -1 -5 rlineto
          -7 -33 -25 -23 -27 0 rrcurveto
          -713 -485 rmoveto
          -32 0 -16 9 -15 28 -15 30 -2 43 13 61 13 61 25 45 38 36 41 36 53 13 89 0 22 0 11 -14 -5 -32 -2 -15 -2 -17 -2 -17 -3 -28 -3 -29 -1 -27 rrcurveto
          -1 -11 rlineto
          -2 -11 -5 -8 -7 -10 -34 -46 -31 -34 -28 -24 -34 -28 -29 -11 -36 0 rrcurveto
          endchar
        </CharString>
        <CharString name="agrave">
          0 1030 1245 rmoveto
          29 0 35 19 20 25 8 12 6 13 3 13 rrcurveto
          2 15 rlineto
          0 21 -12 23 -19 13 rrcurveto
          -228 153 rlineto
          -16 11 -23 6 -19 0 -37 0 -42 -20 -27 -31 -12 -17 -10 -19 -4 -18 -1 -7 -1 -8 0 -7 0 -32 20 -34 33 -15 rrcurveto
          261 -109 rlineto
          9 -4 13 -3 12 0 rrcurveto
          -523 -1060 rmoveto
          -81 0 -41 43 0 87 0 27 4 31 7 34 21 91 29 80 38 67 38 67 44 53 52 37 52 37 52 18 54 0 57 0 38 -27 18 -55 7 -22 3 -24 0 -24 0 -20 -2 -20 -5 -20 rrcurveto
          -29 -141 -52 -112 -74 -83 -75 -81 -76 -41 -79 -2 rrcurveto
          542 62 rmoveto
          3 52 9 63 15 73 47 221 49 185 50 148 1 10 1 8 0 7 0 21 -6 16 -12 12 -22 25 -27 12 -32 0 -63 0 -43 -29 -22 -57 -1 -4 0 -2 3 0 2 0 1 0 0 -1 rrcurveto
          -38 61 -62 30 -84 2 -107 0 -99 -34 -92 -67 -91 -67 -76 -86 -60 -103 -61 -103 -43 -113 -27 -123 -12 -56 -6 -51 0 -46 0 -73 15 -60 31 -47 50 -81 89 -40 128 0 68 0 72 22 78 43 rrcurveto
          78 43 54 43 32 44 1 3 1 1 0 0 -3 0 -2 0 -1 1 3 -5 1 -11 0 -15 1 -30 11 -31 21 -32 33 -50 54 -25 74 -1 60 0 59 24 57 49 59 52 30 47 0 44 rrcurveto
          0 15 -6 15 -11 14 -11 15 -16 7 -23 0 -33 0 -28 -14 -24 -28 -19 -23 -20 -12 -20 0 -16 0 -10 5 -5 10 -4 9 -2 22 -1 33 rrcurveto
          endchar
        </CharString>
        <CharString name="agrave_alt">
          0 1090 1240 rmoveto
          28 0 35 18 19 26 9 12 7 15 3 13 6 28 -12 37 -25 16 rrcurveto
          -228 153 rlineto
          -16 10 -22 6 -18 0 -35 0 -42 -19 -27 -32 -14 -17 -10 -21 -4 -19 -9 -42 20 -50 42 -18 rrcurveto
          260 -109 rlineto
          10 -4 12 -3 11 0 rrcurveto
          -122 -1295 rmoveto
          55 0 61 49 12 56 rrcurveto
          143 671 rlineto
          49 231 -140 153 -258 0 -117 0 -106 -29 -90 -57 -56 -34 -80 -56 -13 -62 -14 -63 40 -61 62 0 37 0 41 21 21 19 85 76 58 32 93 0 69 0 42 -15 27 -30 34 -41 1 -26 -21 -97 rrcurveto
          -8 -40 -6 -6 -47 0 -26 0 -25 7 -27 5 -41 6 -41 2 -42 0 -243 0 -214 -114 -53 -246 -43 -203 116 -148 248 0 96 0 87 22 71 41 71 43 34 39 -38 -46 rrcurveto
          3 17 rlineto
          -12 -58 45 -58 60 0 rrcurveto
          -343 198 rmoveto
          -137 0 -34 47 22 106 30 140 154 8 46 1 rrcurveto
          24 hlineto
          69 0 84 -7 36 -29 14 -12 8 -9 -4 -20 rrcurveto
          -9 -43 rlineto
          -24 -111 -122 -71 -157 0 rrcurveto
          endchar
        </CharString>
        <CharString name="ampersand">
          0 776 373 rmoveto
          65 46 62 73 59 100 rrcurveto
          -228 286 rlineto
          -51 61 -26 58 0 52 0 12 2 11 2 11 9 45 19 35 29 25 29 25 32 13 36 0 29 0 24 -8 19 -15 19 -15 14 -27 11 -39 10 -39 34 -20 57 0 38 0 33 12 28 25 rrcurveto
          34 30 17 31 0 31 0 7 0 9 -2 11 -13 76 -36 58 -57 41 -57 40 -74 20 -90 0 -105 0 -97 -34 -89 -69 -89 -69 -57 -90 -23 -111 -5 -23 -2 -23 0 -24 0 -89 36 -90 74 -89 rrcurveto
          6 -797 rmoveto
          103 0 106 35 109 69 109 69 94 90 80 111 80 111 49 99 19 88 1 6 1 6 0 6 0 18 -6 18 -12 17 -17 23 -29 11 -41 0 -65 0 -49 -37 -31 -74 -52 -119 -67 -98 -82 -78 rrcurveto
          -91 -85 -83 -42 -75 0 -83 0 -41 39 0 77 0 19 3 22 5 24 17 79 31 75 46 70 -43 47 -45 60 -49 73 -114 -128 -72 -135 -30 -141 -8 -37 -4 -35 0 -34 0 -72 19 -65 36 -57 rrcurveto
          53 -83 93 -42 135 0 rrcurveto
          510 hmoveto
          40 0 34 12 28 25 35 31 18 34 0 36 0 39 -16 67 -32 94 -79 -109 -65 -75 -51 -41 -2 -11 -1 -10 0 -9 0 -55 31 -28 60 0 rrcurveto
          endchar
        </CharString>
        <CharString name="ampersand_alt">
          0 812 314 rmoveto
          5 5 2 2 -3 -3 -94 -88 -88 -44 -81 0 -113 0 -43 62 26 123 19 91 51 94 83 97 rrcurveto
          346 -518 rmoveto
          10 -22 2 -28 -4 -34 -9 -67 28 -34 63 0 34 0 30 11 26 23 26 23 16 27 7 30 7 35 -3 52 -15 66 -13 54 -14 38 -15 23 74 102 47 96 18 88 6 25 -5 23 -16 21 rrcurveto
          -15 21 -25 11 -35 0 -57 0 -43 -35 -29 -71 -18 -41 -13 -26 -7 -12 rrcurveto
          -260 344 rlineto
          -62 75 -24 69 13 61 10 44 19 35 31 27 30 27 36 14 42 0 34 0 27 -8 21 -17 21 -17 15 -27 10 -38 10 -37 30 -19 50 0 32 0 29 11 26 23 25 22 16 26 6 28 rrcurveto
          2 10 0 14 -3 19 -13 76 -34 57 -55 39 -55 39 -71 19 -86 0 -99 0 -93 -33 -87 -67 -87 -67 -55 -90 -24 -112 -19 -88 14 -83 47 -80 -136 -137 -85 -153 -36 -169 -25 -117 13 -100 52 -81 rrcurveto
          52 -82 90 -41 128 0 98 0 102 33 106 67 48 31 38 28 28 26 rrcurveto
          endchar
        </CharString>
        <CharString name="ampersand_ampersand">
          0 -364 373 rmoveto
          65 46 62 73 59 100 rrcurveto
          -228 286 rlineto
          -51 61 -26 58 0 52 0 12 2 11 2 11 9 45 19 35 29 25 29 25 32 13 36 0 29 0 24 -8 19 -15 19 -15 14 -27 11 -39 10 -39 34 -20 57 0 38 0 33 12 28 25 rrcurveto
          34 30 17 31 0 31 0 7 0 9 -2 11 -13 76 -36 58 -57 41 -57 40 -74 20 -90 0 -105 0 -97 -34 -89 -69 -89 -69 -57 -90 -23 -111 -5 -23 -2 -23 0 -24 0 -89 36 -90 74 -89 rrcurveto
          6 -797 rmoveto
          103 0 106 35 109 69 109 69 94 90 80 111 80 111 49 99 19 88 1 6 1 6 0 6 0 18 -6 18 -12 17 -17 23 -29 11 -41 0 -65 0 -49 -37 -31 -74 -52 -119 -67 -98 -82 -78 rrcurveto
          -91 -85 -83 -42 -75 0 -83 0 -41 39 0 77 0 19 3 22 5 24 17 79 31 75 46 70 -43 47 -45 60 -49 73 -114 -128 -72 -135 -30 -141 -8 -37 -4 -35 0 -34 0 -72 19 -65 36 -57 rrcurveto
          53 -83 93 -42 135 0 rrcurveto
          510 hmoveto
          40 0 34 12 28 25 35 31 18 34 0 36 0 39 -16 67 -32 94 -79 -109 -65 -75 -51 -41 -2 -11 -1 -10 0 -9 0 -55 31 -28 60 0 rrcurveto
          844 427 rmoveto
          65 46 62 73 59 100 rrcurveto
          -228 286 rlineto
          -51 61 -26 58 0 52 0 12 2 11 2 11 9 45 19 35 29 25 29 25 32 13 36 0 29 0 24 -8 19 -15 19 -15 14 -27 11 -39 10 -39 34 -20 57 0 38 0 33 12 28 25 rrcurveto
          34 30 17 31 0 31 0 7 0 9 -2 11 -13 76 -36 58 -57 41 -57 40 -74 20 -90 0 -105 0 -97 -34 -89 -69 -89 -69 -57 -90 -23 -111 -5 -23 -2 -23 0 -24 0 -89 36 -90 74 -89 rrcurveto
          6 -797 rmoveto
          103 0 106 35 109 69 109 69 94 90 80 111 80 111 49 99 19 88 1 6 1 6 0 6 0 18 -6 18 -12 17 -17 23 -29 11 -41 0 -65 0 -49 -37 -31 -74 -52 -119 -67 -98 -82 -78 rrcurveto
          -91 -85 -83 -42 -75 0 -83 0 -41 39 0 77 0 19 3 22 5 24 17 79 31 75 46 70 -43 47 -45 60 -49 73 -114 -128 -72 -135 -30 -141 -8 -37 -4 -35 0 -34 0 -72 19 -65 36 -57 rrcurveto
          53 -83 93 -42 135 0 rrcurveto
          510 hmoveto
          40 0 34 12 28 25 35 31 18 34 0 36 0 39 -16 67 -32 94 -79 -109 -65 -75 -51 -41 -2 -11 -1 -10 0 -9 0 -55 31 -28 60 0 rrcurveto
          endchar
        </CharString>
        <CharString name="ampersand_ampersand_alt">
          0 752 314 rmoveto
          5 5 2 2 -3 -3 -94 -88 -88 -44 -81 0 -113 0 -43 62 26 123 19 91 51 94 83 97 rrcurveto
          346 -518 rmoveto
          10 -22 2 -28 -4 -34 -9 -67 28 -34 63 0 34 0 30 11 26 23 26 23 16 27 7 30 7 35 -3 52 -15 66 -13 54 -14 38 -15 23 74 102 47 96 18 88 6 25 -5 23 -16 21 rrcurveto
          -15 21 -25 11 -35 0 -57 0 -43 -35 -29 -71 -18 -41 -13 -26 -7 -12 rrcurveto
          -260 344 rlineto
          -62 75 -24 69 13 61 10 44 19 35 31 27 30 27 36 14 42 0 34 0 27 -8 21 -17 21 -17 15 -27 10 -38 10 -37 30 -19 50 0 32 0 29 11 26 23 25 22 16 26 6 28 rrcurveto
          2 10 0 14 -3 19 -13 76 -34 57 -55 39 -55 39 -71 19 -86 0 -99 0 -93 -33 -87 -67 -87 -67 -55 -90 -24 -112 -19 -88 14 -83 47 -80 -136 -137 -85 -153 -36 -169 -25 -117 13 -100 52 -81 rrcurveto
          52 -82 90 -41 128 0 98 0 102 33 106 67 48 31 38 28 28 26 rrcurveto
          -1190 179 rmoveto
          5 5 2 2 -3 -3 -94 -88 -88 -44 -81 0 -113 0 -43 62 26 123 19 91 51 94 83 97 rrcurveto
          346 -518 rmoveto
          10 -22 2 -28 -4 -34 -9 -67 28 -34 63 0 34 0 30 11 26 23 26 23 16 27 7 30 7 35 -3 52 -15 66 -13 54 -14 38 -15 23 74 102 47 96 18 88 6 25 -5 23 -16 21 rrcurveto
          -15 21 -25 11 -35 0 -57 0 -43 -35 -29 -71 -18 -41 -13 -26 -7 -12 rrcurveto
          -260 344 rlineto
          -62 75 -24 69 13 61 10 44 19 35 31 27 30 27 36 14 42 0 34 0 27 -8 21 -17 21 -17 15 -27 10 -38 10 -37 30 -19 50 0 32 0 29 11 26 23 25 22 16 26 6 28 rrcurveto
          2 10 0 14 -3 19 -13 76 -34 57 -55 39 -55 39 -71 19 -86 0 -99 0 -93 -33 -87 -67 -87 -67 -55 -90 -24 -112 -19 -88 14 -83 47 -80 -136 -137 -85 -153 -36 -169 -25 -117 13 -100 52 -81 rrcurveto
          52 -82 90 -41 128 0 98 0 102 33 106 67 48 31 38 28 28 26 rrcurveto
          endchar
        </CharString>
        <CharString name="aring">
          0 859 1191 rmoveto
          76 0 67 23 57 45 76 61 37 73 0 85 0 45 -14 39 -28 35 -40 49 -59 24 -79 0 -77 0 -67 -23 -57 -46 -58 -46 -35 -57 -15 -66 -3 -17 -2 -16 0 -16 0 -44 14 -40 29 -35 rrcurveto
          40 -49 59 -24 79 0 rrcurveto
          22 144 rmoveto
          -23 0 -16 6 -9 12 -9 12 -5 14 0 16 0 10 1 10 3 11 6 32 13 24 20 17 20 17 22 8 26 0 41 0 21 -21 0 -41 0 -9 -1 -10 -3 -11 -6 -31 -13 -24 -20 -17 rrcurveto
          -19 -17 -23 -8 -26 0 rrcurveto
          -374 -1150 rmoveto
          -81 0 -41 43 0 87 0 27 4 31 7 34 21 91 29 80 38 67 38 67 44 53 52 37 52 37 52 18 54 0 57 0 38 -27 18 -55 7 -22 3 -24 0 -24 0 -20 -2 -20 -5 -20 rrcurveto
          -29 -141 -52 -112 -74 -83 -75 -81 -76 -41 -79 -2 rrcurveto
          542 62 rmoveto
          3 52 9 63 15 73 47 221 49 185 50 148 1 10 1 8 0 7 0 21 -6 16 -12 12 -22 25 -27 12 -32 0 -63 0 -43 -29 -22 -57 -1 -4 0 -2 3 0 2 0 1 0 0 -1 rrcurveto
          -38 61 -62 30 -84 2 -107 0 -99 -34 -92 -67 -91 -67 -76 -86 -60 -103 -61 -103 -43 -113 -27 -123 -12 -56 -6 -51 0 -46 0 -73 15 -60 31 -47 50 -81 89 -40 128 0 68 0 72 22 78 43 rrcurveto
          78 43 54 43 32 44 1 3 1 1 0 0 -3 0 -2 0 -1 1 3 -5 1 -11 0 -15 1 -30 11 -31 21 -32 33 -50 54 -25 74 -1 60 0 59 24 57 49 59 52 30 47 0 44 rrcurveto
          0 15 -6 15 -11 14 -11 15 -16 7 -23 0 -33 0 -28 -14 -24 -28 -19 -23 -20 -12 -20 0 -16 0 -10 5 -5 10 -4 9 -2 22 -1 33 rrcurveto
          endchar
        </CharString>
        <CharString name="aring_alt">
          0 1012 1675 rmoveto
          -76 0 -66 -23 -58 -47 -58 -46 -36 -57 -14 -68 -15 -68 13 -58 40 -49 40 -49 59 -24 78 0 75 0 67 23 58 46 58 47 36 56 14 66 14 69 -12 60 -40 48 -40 49 -59 25 -78 0 rrcurveto
          -22 -156 rmoveto
          25 0 17 -7 10 -14 10 -14 2 -21 -6 -29 -6 -30 -13 -23 -19 -16 -19 -16 -23 -9 -27 0 -24 0 -17 7 -11 14 -11 14 -2 21 6 28 6 30 13 23 20 17 20 17 23 8 26 0 rrcurveto
          -22 -1574 rmoveto
          55 0 61 49 12 56 rrcurveto
          143 671 rlineto
          49 231 -140 153 -258 0 -117 0 -106 -29 -90 -57 -56 -34 -80 -56 -13 -62 -14 -63 40 -61 62 0 37 0 41 21 21 19 85 76 58 32 93 0 69 0 42 -15 27 -30 34 -41 1 -26 -21 -97 rrcurveto
          -8 -40 -6 -6 -47 0 -26 0 -25 7 -27 5 -41 6 -41 2 -42 0 -243 0 -214 -114 -53 -246 -43 -203 116 -148 248 0 96 0 87 22 71 41 71 43 34 39 -38 -46 rrcurveto
          3 17 rlineto
          -12 -58 45 -58 60 0 rrcurveto
          -343 198 rmoveto
          -137 0 -34 47 22 106 30 140 154 8 46 1 rrcurveto
          24 hlineto
          69 0 84 -7 36 -29 14 -12 8 -9 -4 -20 rrcurveto
          -9 -43 rlineto
          -24 -111 -122 -71 -157 0 rrcurveto
          endchar
        </CharString>
        <CharString name="asciicircum">
          0 1061 550 rmoveto
          19 0 19 5 19 9 53 31 26 39 0 47 0 12 -2 10 -5 10 rrcurveto
          -227 519 rlineto
          -20 39 -31 20 -40 0 -40 0 -37 -18 -35 -36 rrcurveto
          -449 -519 rlineto
          -19 -26 -9 -25 0 -23 0 -27 12 -25 24 -21 20 -13 21 -7 22 0 39 0 36 18 32 35 rrcurveto
          317 379 rlineto
          3 3 3 2 1 0 -2 0 0 0 0 0 rrcurveto
          157 -377 rlineto
          19 -41 31 -20 43 0 rrcurveto
          endchar
        </CharString>
        <CharString name="asciitilde">
          0 890 462 rmoveto
          90 0 79 35 68 71 58 63 37 65 15 67 1 9 1 8 0 8 0 60 -31 30 -62 0 -56 0 -40 -32 -23 -63 -22 -62 -29 -31 -37 0 -17 0 -12 3 -7 6 -24 20 -24 32 -24 44 rrcurveto
          -54 95 -73 48 -92 0 -94 0 -82 -36 -69 -72 -56 -60 -35 -64 -15 -68 -2 -11 -1 -10 0 -10 0 -19 5 -16 9 -14 15 -24 25 -12 34 0 32 0 28 9 23 18 23 18 16 24 7 29 rrcurveto
          18 61 30 31 45 0 29 0 34 -36 41 -71 58 -95 72 -48 88 0 rrcurveto
          endchar
        </CharString>
        <CharString name="asciitilde_at">
          0 1100 298 rmoveto
          75 0 46 31 16 62 19 76 14 61 10 48 57 267 -13 206 -82 146 -88 143 -139 72 -191 0 -222 -1 -195 -81 -169 -160 -135 -131 -101 -136 -65 -142 -54 -118 -62 -58 -72 0 -30 0 -22 5 -14 12 rrcurveto
          -24 21 -25 32 -23 44 -54 94 -71 47 -91 0 -95 0 -83 -37 -71 -73 -56 -61 -39 -78 -20 -96 -7 -33 3 -27 15 -21 14 -21 23 -11 33 0 33 0 28 9 24 19 24 19 16 24 8 30 rrcurveto
          23 87 32 44 42 0 30 0 37 -37 42 -73 56 -93 85 -47 113 0 84 0 78 26 72 52 81 61 62 72 43 83 62 126 80 111 98 97 71 67 64 46 59 25 58 25 62 12 65 0 rrcurveto
          124 -3 91 -48 57 -94 65 -104 5 -184 -57 -264 rrcurveto
          -7 -33 rlineto
          -18 -91 26 -46 70 0 rrcurveto
          -206 -348 rmoveto
          24 0 22 2 21 5 41 9 25 31 11 52 7 31 -4 25 -13 17 -15 19 -20 9 -25 0 -62 0 -42 2 -21 4 -41 10 -10 59 21 110 18 88 18 89 17 91 16 91 -8 73 -35 56 rrcurveto
          -34 57 -67 28 -98 0 -168 -1 -141 -109 -115 -215 -46 -93 -33 -92 -20 -90 -50 -239 49 -119 150 0 155 3 87 45 18 88 4 18 1 14 -2 11 -8 42 -21 21 -34 0 -16 0 -16 -4 -15 -8 rrcurveto
          -31 -15 -24 -8 -18 0 -31 0 -5 51 22 102 17 80 24 69 32 56 62 110 58 55 57 0 55 0 19 -43 -16 -87 rrcurveto
          -43 -240 rlineto
          -37 -195 47 -114 130 -36 41 -10 52 -5 64 0 rrcurveto
          endchar
        </CharString>
        <CharString name="asciitilde_at_alt">
          0 392 157 rmoveto
          -48 0 -13 51 22 102 17 80 24 69 32 56 62 110 58 55 57 0 55 0 19 -43 -16 -87 rrcurveto
          -40 -213 rlineto
          -4 -19 -14 -25 -23 -29 -54 -71 -63 -36 -71 0 rrcurveto
          687 753 rmoveto
          21 -107 -10 -148 -40 -187 -28 -132 -28 -93 -28 -53 -16 -29 -22 -15 -29 0 -34 0 -22 14 -11 27 -12 31 1 49 13 68 18 88 18 89 17 91 16 91 -8 73 -35 56 -34 57 -67 28 -98 0 rrcurveto
          -168 -1 -141 -109 -115 -215 -46 -93 -33 -92 -20 -90 -50 -239 58 -119 166 0 156 0 113 41 69 83 7 -39 31 -31 55 -23 49 -21 48 -10 45 0 108 0 91 52 72 104 45 67 48 157 52 246 rrcurveto
          28 129 11 114 -5 101 -5 108 -24 91 -43 76 -88 143 -139 72 -191 0 -223 -1 -187 -81 -154 -161 -148 -158 -110 -137 -71 -117 -69 -115 -68 -57 -66 0 -31 0 -22 6 -13 11 -24 20 -25 33 -23 44 rrcurveto
          -54 94 -71 47 -91 0 -95 0 -83 -37 -71 -73 -56 -61 -39 -78 -20 -96 -7 -33 3 -27 15 -21 14 -21 23 -11 33 0 33 0 28 9 24 19 24 19 16 24 8 30 23 87 32 44 42 0 rrcurveto
          30 0 37 -37 42 -73 56 -93 85 -47 113 0 84 0 78 26 72 52 80 60 68 72 55 81 77 116 97 118 118 119 57 56 54 41 49 25 50 25 57 12 64 0 124 -3 91 -48 57 -94 rrcurveto
          19 -30 14 -36 9 -44 rrcurveto
          endchar
        </CharString>
        <CharString name="asciitilde_at_alt_1">
          0 859 276 rmoveto
          -47 0 -36 23 -25 45 -20 39 -3 54 15 71 21 97 29 67 37 37 38 37 44 18 50 0 44 0 29 -16 15 -33 14 -32 2 -45 -12 -56 rrcurveto
          -26 -122 rlineto
          -26 -122 -57 -61 -86 -1 rrcurveto
          -490 459 rmoveto
          81 139 71 105 61 71 102 120 104 60 106 0 126 0 74 -65 22 -130 9 -54 2 -42 -7 -29 rrcurveto
          12 53 rlineto
          -18 21 -47 11 -78 0 -75 0 -75 -27 -76 -53 -75 -54 -60 -83 -45 -112 -20 -51 -15 -52 -12 -53 -33 -157 11 -116 54 -73 61 -75 86 -37 110 0 140 0 110 58 81 117 51 75 39 104 28 132 rrcurveto
          69 323 rlineto
          37 189 -23 152 -82 115 -68 95 -111 48 -156 0 -149 0 -139 -55 -130 -111 -86 -77 -88 -111 -91 -146 -56 -93 -76 -88 -96 -83 -86 -70 -83 -36 -80 -2 -52 0 -32 6 -14 11 -24 21 -24 32 -24 44 rrcurveto
          -53 94 -71 47 -90 0 -94 0 -83 -37 -70 -73 -58 -62 -39 -80 -21 -98 -8 -35 4 -28 15 -22 14 -22 23 -11 32 0 32 0 28 10 24 19 25 19 17 26 8 32 22 84 32 42 42 0 rrcurveto
          31 0 37 -37 42 -73 57 -93 94 -47 132 0 130 0 116 34 103 68 127 79 95 92 64 105 rrcurveto
          endchar
        </CharString>
        <CharString name="asterisk">
          0 616 76 rmoveto
          39 0 34 12 29 24 29 24 17 26 7 29 rrcurveto
          41 197 137 -85 rlineto
          20 -11 22 -6 23 0 39 0 35 12 29 24 36 30 18 33 0 36 0 29 -13 24 -27 22 rrcurveto
          -164 104 209 104 rlineto
          53 32 27 39 0 45 0 21 -7 19 -14 18 -19 24 -30 12 -39 0 -23 0 -24 -6 -24 -11 rrcurveto
          -174 -86 rlineto
          29 138 15 73 0 7 0 20 -7 20 -14 18 -19 24 -28 12 -39 0 -39 0 -34 -12 -29 -24 -29 -24 -18 -26 -6 -29 rrcurveto
          -42 -197 -135 86 rlineto
          -20 11 -22 6 -24 0 -39 0 -34 -12 -29 -24 -37 -30 -19 -34 0 -37 0 -30 14 -24 28 -19 rrcurveto
          164 -104 -210 -104 rlineto
          -53 -34 -27 -39 0 -44 0 -20 7 -20 15 -18 19 -24 29 -12 39 0 24 0 24 6 24 11 rrcurveto
          172 86 rlineto
          -29 -140 -15 -72 0 -7 0 -20 8 -19 14 -18 19 -24 28 -12 39 0 rrcurveto
          endchar
        </CharString>
        <CharString name="asterisk_slash">
          0 -611 -54 rmoveto
          39 0 34 12 29 24 29 24 17 26 6 29 rrcurveto
          42 197 137 -85 rlineto
          19 -11 22 -6 23 0 39 0 35 12 29 24 36 30 18 33 0 36 0 29 -13 25 -26 21 rrcurveto
          -165 104 209 104 rlineto
          53 32 27 39 0 45 0 21 -7 19 -14 18 -19 24 -29 12 -39 0 -23 0 -24 -6 -25 -11 rrcurveto
          -173 -86 rlineto
          29 138 15 73 0 7 0 20 -7 20 -14 18 -19 24 -29 12 -39 0 -39 0 -33 -12 -29 -24 -29 -24 -18 -26 -6 -29 rrcurveto
          -42 -197 -136 86 rlineto
          -19 11 -22 6 -24 0 -39 0 -34 -12 -29 -24 -38 -30 -19 -34 0 -37 0 -30 14 -24 28 -19 rrcurveto
          164 -104 -209 -104 rlineto
          -54 -34 -27 -39 0 -44 0 -20 7 -20 15 -18 19 -24 29 -12 39 0 24 0 24 6 25 11 rrcurveto
          172 86 rlineto
          -29 -138 -15 -72 0 -7 0 -21 7 -20 15 -18 19 -24 28 -12 39 0 rrcurveto
          603 -171 rmoveto
          27 0 26 7 25 14 25 14 20 18 14 21 rrcurveto
          1065 1623 rlineto
          13 21 7 20 0 20 0 13 -3 14 -6 15 -15 35 -33 18 -51 0 -27 0 -26 -7 -25 -13 -25 -14 -20 -18 -13 -21 rrcurveto
          -1065 -1623 rlineto
          -13 -21 -7 -20 0 -19 0 -14 3 -14 7 -15 14 -36 32 -18 51 0 rrcurveto
          endchar
        </CharString>
        <CharString name="at">
          0 1100 298 rmoveto
          75 0 46 31 16 62 19 76 14 61 10 48 57 267 -13 206 -82 146 -88 143 -139 72 -191 0 -223 -1 -185 -82 -149 -161 -17 -19 -11 -23 -6 -27 -8 -40 4 -31 18 -22 18 -23 23 -11 29 0 rrcurveto
          34 0 30 12 25 23 62 57 55 41 50 25 49 25 57 12 65 0 124 -3 91 -48 57 -94 65 -103 5 -185 -57 -264 rrcurveto
          -7 -33 rlineto
          -18 -91 26 -46 70 0 rrcurveto
          -206 -348 rmoveto
          24 0 22 2 21 5 41 9 25 31 11 52 7 31 -4 25 -13 17 -15 19 -20 9 -25 0 -62 0 -42 2 -21 4 -41 10 -10 59 21 110 18 88 18 89 17 91 16 91 -8 73 -35 56 rrcurveto
          -34 57 -67 28 -98 0 -168 -1 -141 -109 -115 -215 -46 -93 -33 -92 -20 -90 -50 -239 49 -119 150 0 155 3 87 45 18 88 4 18 1 14 -2 11 -8 42 -21 21 -34 0 -16 0 -16 -4 -15 -8 rrcurveto
          -31 -15 -24 -8 -18 0 -31 0 -5 51 22 102 17 80 24 69 32 56 62 110 58 55 57 0 55 0 19 -43 -16 -87 rrcurveto
          -43 -240 rlineto
          -37 -195 47 -114 130 -36 41 -10 52 -5 64 0 rrcurveto
          endchar
        </CharString>
        <CharString name="at_alt">
          0 392 157 rmoveto
          -48 0 -13 51 22 102 17 80 24 69 32 56 62 110 58 55 57 0 55 0 19 -43 -16 -87 rrcurveto
          -40 -213 rlineto
          -4 -19 -14 -25 -23 -29 -54 -71 -63 -36 -71 0 rrcurveto
          493 -207 rmoveto
          108 0 91 52 72 104 45 67 48 157 52 246 57 267 -13 206 -82 146 -88 143 -139 72 -191 0 -223 -1 -185 -82 -149 -161 -17 -19 -11 -23 -6 -27 -8 -40 4 -31 18 -22 18 -23 23 -11 29 0 rrcurveto
          34 0 30 12 25 23 62 57 55 41 50 25 50 25 57 12 64 0 124 -3 91 -48 57 -94 65 -104 5 -184 -57 -264 -28 -132 -28 -93 -28 -53 -16 -29 -22 -15 -29 0 -34 0 -22 14 -11 27 rrcurveto
          -12 31 1 49 13 68 18 88 18 89 17 91 16 91 -8 73 -35 56 -34 57 -67 28 -98 0 -168 -1 -141 -109 -115 -215 -46 -93 -33 -92 -20 -90 -50 -239 58 -119 166 0 156 0 113 41 69 83 rrcurveto
          7 -39 31 -31 55 -23 49 -21 48 -10 45 0 rrcurveto
          endchar
        </CharString>
        <CharString name="at_alt_1">
          0 674 -361 rmoveto
          62 0 47 10 34 20 30 17 19 28 8 38 17 78 -54 39 -124 0 -103 0 -85 26 -67 53 -67 53 -32 79 2 105 3 111 11 97 17 83 11 49 12 52 14 54 45 179 61 140 78 101 rrcurveto
          95 119 94 60 92 0 126 0 74 -65 22 -130 9 -54 2 -42 -7 -29 rrcurveto
          12 53 rlineto
          -18 21 -47 11 -78 0 -75 0 -75 -27 -75 -53 -76 -54 -60 -83 -45 -112 -20 -51 -15 -52 -12 -53 -33 -157 11 -115 55 -73 60 -75 86 -38 110 0 140 0 110 58 80 117 52 75 39 104 28 132 rrcurveto
          69 323 rlineto
          37 189 -23 152 -82 115 -68 95 -111 48 -156 0 -136 0 -129 -55 -122 -110 -122 -110 -95 -148 -67 -187 -39 -105 -32 -116 -27 -127 -43 -200 -9 -171 25 -141 20 -123 63 -90 104 -55 104 -55 114 -28 125 0 rrcurveto
          186 642 rmoveto
          -46 0 -34 22 -25 44 -19 38 -2 54 14 69 21 96 28 66 37 35 36 36 42 18 49 0 42 0 29 -16 13 -31 14 -31 2 -43 -12 -56 rrcurveto
          -26 -122 rlineto
          -25 -119 -55 -59 -83 -1 rrcurveto
          endchar
        </CharString>
        <CharString name="atilde">
          0 993 1270 rmoveto
          84 0 82 44 69 79 11 14 9 17 3 14 1 6 1 7 0 7 0 23 -14 30 -27 9 -10 6 -18 4 -14 0 -26 0 -31 -13 -18 -18 -10 -10 -8 -7 -6 -4 -19 -14 -11 -4 -16 0 rrcurveto
          -20 0 -12 4 -14 14 -19 17 -21 16 -23 17 -27 19 -39 10 -42 0 -57 0 -58 -21 -49 -38 -25 -21 -23 -22 -21 -23 -13 -14 -9 -17 -4 -16 -1 -5 0 -6 0 -5 0 -24 14 -26 23 -13 rrcurveto
          13 -8 17 -3 13 0 50 0 21 27 30 30 16 12 12 5 19 0 19 0 12 -5 16 -14 20 -16 21 -17 24 -17 26 -20 38 -10 41 0 rrcurveto
          -486 -1085 rmoveto
          -81 0 -41 43 0 87 0 27 4 31 7 34 21 91 29 80 38 67 38 67 44 53 52 37 52 37 52 18 54 0 57 0 38 -27 18 -55 7 -22 3 -24 0 -24 0 -20 -2 -20 -5 -20 rrcurveto
          -29 -141 -52 -112 -74 -83 -75 -81 -76 -41 -79 -2 rrcurveto
          542 62 rmoveto
          3 52 9 63 15 73 47 221 49 185 50 148 1 10 1 8 0 7 0 21 -6 16 -12 12 -22 25 -27 12 -32 0 -63 0 -43 -29 -22 -57 -1 -4 0 -2 3 0 2 0 1 0 0 -1 rrcurveto
          -38 61 -62 30 -84 2 -107 0 -99 -34 -92 -67 -91 -67 -76 -86 -60 -103 -61 -103 -43 -113 -27 -123 -12 -56 -6 -51 0 -46 0 -73 15 -60 31 -47 50 -81 89 -40 128 0 68 0 72 22 78 43 rrcurveto
          78 43 54 43 32 44 1 3 1 1 0 0 -3 0 -2 0 -1 1 3 -5 1 -11 0 -15 1 -30 11 -31 21 -32 33 -50 54 -25 74 -1 60 0 59 24 57 49 59 52 30 47 0 44 rrcurveto
          0 15 -6 15 -11 14 -11 15 -16 7 -23 0 -33 0 -28 -14 -24 -28 -19 -23 -20 -12 -20 0 -16 0 -10 5 -5 10 -4 9 -2 22 -1 33 rrcurveto
          endchar
        </CharString>
        <CharString name="atilde_alt">
          0 1053 1265 rmoveto
          83 0 81 43 69 80 12 14 10 18 3 16 10 48 -41 51 -50 0 -25 0 -30 -12 -20 -20 -27 -28 -21 -10 -22 0 -21 0 -13 5 -14 13 -38 33 -43 46 -88 0 -57 0 -56 -21 -48 -38 rrcurveto
          -35 -28 -52 -41 -10 -47 -10 -48 40 -49 48 0 25 0 32 13 20 21 33 32 7 8 31 0 60 0 22 -99 135 0 rrcurveto
          -85 -1320 rmoveto
          55 0 61 49 12 56 rrcurveto
          143 671 rlineto
          49 231 -140 153 -258 0 -117 0 -106 -29 -90 -57 -56 -34 -80 -56 -13 -62 -14 -63 40 -61 62 0 37 0 41 21 21 19 85 76 58 32 93 0 69 0 42 -15 27 -30 34 -41 1 -26 -21 -97 rrcurveto
          -8 -40 -6 -6 -47 0 -26 0 -25 7 -27 5 -41 6 -41 2 -42 0 -243 0 -214 -114 -53 -246 -43 -203 116 -148 248 0 96 0 87 22 71 41 71 43 34 39 -38 -46 rrcurveto
          3 17 rlineto
          -12 -58 45 -58 60 0 rrcurveto
          -343 198 rmoveto
          -137 0 -34 47 22 106 30 140 154 8 46 1 rrcurveto
          24 hlineto
          69 0 84 -7 36 -29 14 -12 8 -9 -4 -20 rrcurveto
          -9 -43 rlineto
          -24 -111 -122 -71 -157 0 rrcurveto
          endchar
        </CharString>
        <CharString name="b">
          0 659 171 rmoveto
          -14 hlineto
          -46 0 -38 17 -32 35 -31 34 -16 40 0 44 0 19 2 20 5 22 rrcurveto
          45 213 rlineto
          12 57 36 56 59 54 52 44 56 22 60 0 74 0 48 -20 22 -39 21 -40 11 -44 0 -49 0 -44 -6 -51 -13 -59 -50 -217 -103 -110 -154 -4 rrcurveto
          -5 -221 rmoveto
          150 0 119 50 87 100 88 99 64 143 41 184 15 71 7 65 0 59 0 86 -16 73 -32 61 -57 106 -97 53 -136 0 -78 0 -83 -31 -86 -62 -11 -7 -8 -4 -4 0 -1 0 0 1 0 2 rrcurveto
          0 3 14 68 29 134 35 161 17 85 0 9 0 21 -7 19 -13 15 -19 24 -26 12 -32 0 -29 0 -29 -11 -27 -21 -28 -21 -17 -26 -6 -32 -197 -926 -98 -467 0 -8 0 -20 6 -17 12 -15 rrcurveto
          18 -24 26 -12 34 0 62 0 43 35 25 71 5 13 2 7 -1 0 -2 0 -1 0 1 -1 68 -83 80 -42 93 0 rrcurveto
          endchar
        </CharString>
        <CharString name="backslash">
          0 917 -220 rmoveto
          42 0 35 17 29 34 20 25 10 25 0 25 0 9 -126 548 -251 1088 -6 21 -11 17 -18 12 -18 13 -20 6 -23 0 -41 0 -35 -17 -29 -33 -21 -24 -10 -26 0 -27 0 -8 126 -548 252 -1087 rrcurveto
          6 -21 12 -17 17 -13 17 -13 20 -6 23 0 rrcurveto
          endchar
        </CharString>
        <CharString name="bar">
          0 551 -250 rmoveto
          31 0 29 11 26 21 26 22 16 25 6 28 239 1128 120 567 0 8 0 20 -6 18 -13 17 -20 23 -26 12 -33 0 -31 0 -28 -11 -26 -21 -26 -21 -16 -25 -7 -29 -239 -1126 -120 -567 0 -7 rrcurveto
          0 -21 7 -19 14 -18 18 -23 26 -12 33 0 rrcurveto
          endchar
        </CharString>
        <CharString name="bar_bar">
          0 -454 -254 rmoveto
          35 0 33 12 31 25 31 25 18 25 5 27 239 1127 120 566 0 6 0 20 -8 20 -15 19 -21 24 -27 12 -35 0 -35 0 -32 -12 -31 -24 -31 -25 -19 -26 -6 -27 -239 -1125 -120 -566 0 -5 rrcurveto
          0 -21 9 -20 16 -20 20 -25 27 -12 35 0 rrcurveto
          800 hmoveto
          35 0 33 12 31 25 31 25 18 25 5 27 239 1127 120 566 0 6 0 20 -8 20 -15 19 -21 24 -27 12 -35 0 -35 0 -32 -12 -31 -24 -31 -25 -19 -26 -6 -27 -239 -1125 -120 -566 0 -5 rrcurveto
          0 -21 9 -20 16 -20 20 -25 27 -12 35 0 rrcurveto
          endchar
        </CharString>
        <CharString name="bar_equal">
          0 -291 915 rmoveto
          91 425 rlineto
          7 32 -6 27 -18 22 -18 23 -25 11 -31 0 -31 0 -29 -11 -28 -23 -27 -22 -17 -27 -7 -32 rrcurveto
          -315 -1480 rlineto
          -6 -31 5 -27 18 -23 18 -23 25 -11 31 0 31 0 29 11 28 23 28 23 17 27 6 31 rrcurveto
          91 425 rlineto
          1425 hlineto
          31 0 30 11 27 23 27 22 17 27 7 32 7 32 -6 27 -18 22 -17 23 -25 11 -32 0 rrcurveto
          -1425 hlineto
          37 170 rlineto
          1425 hlineto
          31 0 30 11 27 23 27 22 17 27 7 32 7 32 -6 27 -18 22 -17 23 -25 11 -32 0 rrcurveto
          endchar
        </CharString>
        <CharString name="boxdrawingsdoubledownandhorizontal">
          0 520 -1000 rmoveto
          1620 -530 -160 370 -1460 vlineto
          850 1780 rmoveto
          160 -1220 -160 vlineto
          850 -1780 rmoveto
          1460 370 160 -530 -1620 vlineto
          endchar
        </CharString>
        <CharString name="boxdrawingsdoubledownandleft">
          0 520 -1000 rmoveto
          1620 -530 -160 370 -1460 vlineto
          480 hmoveto
          1940 -850 -160 690 -1780 vlineto
          endchar
        </CharString>
        <CharString name="boxdrawingsdoubledownandright">
          0 840 -1000 rmoveto
          1460 370 160 -530 -1620 vlineto
          -160 hmoveto
          1780 690 160 -850 -1940 vlineto
          endchar
        </CharString>
        <CharString name="boxdrawingsdoublehorizontal">
          0 1210 460 rmoveto
          160 -1220 -160 vlineto
          1220 320 rmoveto
          160 -1220 -160 vlineto
          endchar
        </CharString>
        <CharString name="boxdrawingsdoubleupandhorizontal">
          0 1210 460 rmoveto
          160 -1220 -160 vlineto
          1220 320 rmoveto
          160 -370 1060 -160 -1220 vlineto
          -160 hmoveto
          1220 -160 -1060 -370 -160 vlineto
          endchar
        </CharString>
        <CharString name="boxdrawingsdoubleupandleft">
          0 520 780 rmoveto
          1220 -160 -1060 -370 -160 vlineto
          850 -320 rmoveto
          1540 -160 -1380 -690 -160 vlineto
          endchar
        </CharString>
        <CharString name="boxdrawingsdoubleupandright">
          0 1210 780 rmoveto
          160 -370 1060 -160 -1220 vlineto
          530 -320 rmoveto
          160 -690 1380 -160 -1540 vlineto
          endchar
        </CharString>
        <CharString name="boxdrawingsdoublevertical">
          0 520 -1000 rmoveto
          3000 -160 -3000 vlineto
          480 hmoveto
          3000 -160 -3000 vlineto
          endchar
        </CharString>
        <CharString name="boxdrawingsdoubleverticalandhorizontal">
          0 520 -1000 rmoveto
          1620 -530 -160 370 -1460 vlineto
          160 1780 rmoveto
          1220 -160 -1060 -370 -160 vlineto
          1220 hmoveto
          160 -370 1060 -160 -1220 vlineto
          160 -1780 rmoveto
          1460 370 160 -530 -1620 vlineto
          endchar
        </CharString>
        <CharString name="boxdrawingsdoubleverticalandleft">
          0 520 -1000 rmoveto
          1620 -530 -160 370 -1460 vlineto
          480 hmoveto
          3000 -160 -3000 vlineto
          -160 1780 rmoveto
          1220 -160 -1060 -370 -160 vlineto
          endchar
        </CharString>
        <CharString name="boxdrawingsdoubleverticalandright">
          0 840 -1000 rmoveto
          1460 370 160 -530 -1620 vlineto
          -160 hmoveto
          3000 -160 -3000 vlineto
          850 1780 rmoveto
          160 -370 1060 -160 -1220 vlineto
          endchar
        </CharString>
        <CharString name="boxdrawingsdowndoubleandhorizontalsingle">
          0 840 -1000 rmoveto
          1620 370 160 -1220 -160 370 -1620 160 1620 160 -1620 vlineto
          endchar
        </CharString>
        <CharString name="boxdrawingsdowndoubleandleftsingle">
          0 840 -1000 rmoveto
          1780 -850 -160 370 -1620 160 1620 160 -1620 vlineto
          endchar
        </CharString>
        <CharString name="boxdrawingsdowndoubleandrightsingle">
          0 840 -1000 rmoveto
          1620 370 160 -850 -1780 160 1620 160 -1620 vlineto
          endchar
        </CharString>
        <CharString name="boxdrawingsdownheavyandhorizontallight">
          0 840 -1000 rmoveto
          1620 370 160 -1220 -160 370 -1620 vlineto
          endchar
        </CharString>
        <CharString name="boxdrawingsdownheavyandleftlight">
          0 840 -1000 rmoveto
          1780 -850 -160 370 -1620 vlineto
          endchar
        </CharString>
        <CharString name="boxdrawingsdownheavyandleftuplight">
          0 840 -1000 rmoveto
          1780 -160 1220 -160 -1220 -530 -160 370 -1620 vlineto
          endchar
        </CharString>
        <CharString name="boxdrawingsdownheavyandrightlight">
          0 840 -1000 rmoveto
          1620 370 160 -850 -1780 vlineto
          endchar
        </CharString>
        <CharString name="boxdrawingsdownheavyandrightuplight">
          0 840 -1000 rmoveto
          1620 370 160 -530 1220 -160 -1220 -160 -1780 vlineto
          endchar
        </CharString>
        <CharString name="boxdrawingsdownheavyanduphorizontallight">
          0 840 -1000 rmoveto
          1620 370 160 -530 1220 -160 -1220 -530 -160 370 -1620 vlineto
          endchar
        </CharString>
        <CharString name="boxdrawingsdownlightandhorizontalheavy">
          0 680 -1000 rmoveto
          1460 530 480 -1220 -480 530 -1460 vlineto
          endchar
        </CharString>
        <CharString name="boxdrawingsdownlightandleftheavy">
          0 680 -1000 rmoveto
          1940 -690 -480 530 -1460 vlineto
          endchar
        </CharString>
        <CharString name="boxdrawingsdownlightandleftupheavy">
          0 680 -1000 rmoveto
          1460 160 1540 -480 -1060 -370 -480 530 -1460 vlineto
          endchar
        </CharString>
        <CharString name="boxdrawingsdownlightandrightheavy">
          0 680 -1000 rmoveto
          1460 530 480 -690 -1940 vlineto
          endchar
        </CharString>
        <CharString name="boxdrawingsdownlightandrightupheavy">
          0 680 -1000 rmoveto
          1460 530 480 -370 1060 -480 -1540 160 -1460 vlineto
          endchar
        </CharString>
        <CharString name="boxdrawingsdownlightanduphorizontalheavy">
          0 680 -1000 rmoveto
          1460 530 480 -370 1060 -480 -1060 -370 -480 530 -1460 vlineto
          endchar
        </CharString>
        <CharString name="boxdrawingsdownsingleandhorizontaldouble">
          0 680 -1000 rmoveto
          1460 530 160 -1220 -160 530 -1460 vlineto
          690 1780 rmoveto
          160 -1220 -160 vlineto
          endchar
        </CharString>
        <CharString name="boxdrawingsdownsingleandleftdouble">
          0 680 -1000 rmoveto
          1940 -690 -160 530 -160 -530 -160 530 -1460 vlineto
          endchar
        </CharString>
        <CharString name="boxdrawingsdownsingleandrightdouble">
          0 680 -1000 rmoveto
          1460 530 160 -530 160 530 160 -690 -1940 vlineto
          endchar
        </CharString>
        <CharString name="boxdrawingsheavydoubledashhorizontal">
          0 520 460 rmoveto
          480 -440 -480 vlineto
          1040 hmoveto
          480 -440 -480 vlineto
          endchar
        </CharString>
        <CharString name="boxdrawingsheavydoubledashvertical">
          0 840 -360 rmoveto
          960 -480 -960 vlineto
          480 1440 rmoveto
          960 -480 -960 vlineto
          endchar
        </CharString>
        <CharString name="boxdrawingsheavydown">
          0 840 -1000 rmoveto
          1780 -480 -1780 vlineto
          endchar
        </CharString>
        <CharString name="boxdrawingsheavydownandhorizontal">
          0 840 -1000 rmoveto
          1460 370 480 -1220 -480 370 -1460 vlineto
          endchar
        </CharString>
        <CharString name="boxdrawingsheavydownandleft">
          0 840 -1000 rmoveto
          1940 -850 -480 370 -1460 vlineto
          endchar
        </CharString>
        <CharString name="boxdrawingsheavydownandright">
          0 840 -1000 rmoveto
          1460 370 480 -850 -1940 vlineto
          endchar
        </CharString>
        <CharString name="boxdrawingsheavyhorizontal">
          0 1210 460 rmoveto
          480 -1220 -480 vlineto
          endchar
        </CharString>
        <CharString name="boxdrawingsheavyleft">
          0 680 460 rmoveto
          480 -690 -480 vlineto
          endchar
        </CharString>
        <CharString name="boxdrawingsheavyleftandlightright">
          0 680 460 rmoveto
          160 530 160 -530 160 -690 -480 vlineto
          endchar
        </CharString>
        <CharString name="boxdrawingsheavyquadrupledashhorizontal">
          0 1125 460 rmoveto
          480 -150 -480 vlineto
          -450 hmoveto
          480 -150 -480 vlineto
          450 hmoveto
          480 -150 -480 vlineto
          -450 hmoveto
          480 -150 -480 vlineto
          endchar
        </CharString>
        <CharString name="boxdrawingsheavyquadrupledashvertical">
          0 840 -520 rmoveto
          540 -480 -540 vlineto
          480 2100 rmoveto
          540 -480 -540 vlineto
          480 -700 rmoveto
          540 -480 -540 vlineto
          480 -700 rmoveto
          540 -480 -540 vlineto
          endchar
        </CharString>
        <CharString name="boxdrawingsheavyright">
          0 1210 460 rmoveto
          480 -690 -480 vlineto
          endchar
        </CharString>
        <CharString name="boxdrawingsheavytripledashhorizontal">
          0 1120 460 rmoveto
          480 -240 -480 vlineto
          -560 hmoveto
          480 -240 -480 vlineto
          640 hmoveto
          480 -240 -480 vlineto
          endchar
        </CharString>
        <CharString name="boxdrawingsheavytripledashvertical">
          0 840 -520 rmoveto
          800 -480 -800 vlineto
          480 1920 rmoveto
          800 -480 -800 vlineto
          480 -960 rmoveto
          800 -480 -800 vlineto
          endchar
        </CharString>
        <CharString name="boxdrawingsheavyup">
          0 840 620 rmoveto
          1380 -480 -1380 vlineto
          endchar
        </CharString>
        <CharString name="boxdrawingsheavyupandhorizontal">
          0 1210 460 rmoveto
          480 -370 1060 -480 -1060 -370 -480 vlineto
          endchar
        </CharString>
        <CharString name="boxdrawingsheavyupandleft">
          0 840 460 rmoveto
          1540 -480 -1060 -370 -480 vlineto
          endchar
        </CharString>
        <CharString name="boxdrawingsheavyupandlightdown">
          0 680 -1000 rmoveto
          1620 160 1380 -480 -1380 160 -1620 vlineto
          endchar
        </CharString>
        <CharString name="boxdrawingsheavyupandright">
          0 1210 460 rmoveto
          480 -370 1060 -480 -1540 vlineto
          endchar
        </CharString>
        <CharString name="boxdrawingsheavyvertical">
          0 840 -1000 rmoveto
          3000 -480 -3000 vlineto
          endchar
        </CharString>
        <CharString name="boxdrawingsheavyverticalandhorizontal">
          0 840 -1000 rmoveto
          1460 370 480 -370 1060 -480 -1060 -370 -480 370 -1460 vlineto
          endchar
        </CharString>
        <CharString name="boxdrawingsheavyverticalandleft">
          0 840 -1000 rmoveto
          3000 -480 -1060 -370 -480 370 -1460 vlineto
          endchar
        </CharString>
        <CharString name="boxdrawingsheavyverticalandright">
          0 840 -1000 rmoveto
          1460 370 480 -370 1060 -480 -3000 vlineto
          endchar
        </CharString>
        <CharString name="boxdrawingsleftdownheavyandrightuplight">
          0 840 -1000 rmoveto
          1620 370 160 -370 160 -160 1060 -160 -1060 -530 -480 370 -1460 vlineto
          endchar
        </CharString>
        <CharString name="boxdrawingsleftheavyandrightdownlight">
          0 680 -1000 rmoveto
          1620 530 160 -530 160 -690 -480 530 -1460 vlineto
          endchar
        </CharString>
        <CharString name="boxdrawingsleftheavyandrightuplight">
          0 680 460 rmoveto
          160 530 160 -530 1220 -160 -1060 -530 -480 vlineto
          endchar
        </CharString>
        <CharString name="boxdrawingsleftheavyandrightverticallight">
          0 680 -1000 rmoveto
          1620 530 160 -530 1220 -160 -1060 -530 -480 530 -1460 vlineto
          endchar
        </CharString>
        <CharString name="boxdrawingsleftlightandrightdownheavy">
          0 840 -1000 rmoveto
          1460 370 480 -850 -160 -370 -160 370 -1620 vlineto
          endchar
        </CharString>
        <CharString name="boxdrawingsleftlightandrightupheavy">
          0 1210 460 rmoveto
          480 -370 1060 -480 -1220 -370 -160 370 -160 vlineto
          endchar
        </CharString>
        <CharString name="boxdrawingsleftlightandrightverticalheavy">
          0 840 -1000 rmoveto
          1460 370 480 -370 1060 -480 -1220 -370 -160 370 -1620 vlineto
          endchar
        </CharString>
        <CharString name="boxdrawingsleftupheavyandrightdownlight">
          0 680 -1000 rmoveto
          1460 160 160 370 160 -370 1220 -480 -1060 -370 -480 530 -1460 vlineto
          endchar
        </CharString>
        <CharString name="boxdrawingslightarcdownandleft">
          0 680 -1000 rmoveto
          1240 vlineto
          0 75 -14 70 -28 65 -28 65 -39 57 -49 50 -50 49 -57 39 -65 28 -65 28 -70 14 -75 0 rrcurveto
          -150 -160 150 hlineto
          69 0 64 -17 58 -34 57 -35 46 -46 35 -57 34 -58 17 -64 0 -69 rrcurveto
          -1240 vlineto
          endchar
        </CharString>
        <CharString name="boxdrawingslightarcdownandright">
          0 680 -1000 rmoveto
          1240 vlineto
          0 69 17 64 35 58 34 57 46 46 58 35 57 34 64 17 69 0 rrcurveto
          150 160 -150 hlineto
          -75 0 -69 -14 -65 -28 -65 -28 -58 -39 -49 -49 -50 -50 -39 -57 -28 -65 -28 -65 -14 -70 0 -75 rrcurveto
          -1240 vlineto
          endchar
        </CharString>
        <CharString name="boxdrawingslightarcupandleft">
          0 140 620 rmoveto
          75 0 70 14 65 28 65 28 57 39 50 50 49 49 39 58 28 65 28 65 14 69 0 75 rrcurveto
          1240 -160 -1240 vlineto
          0 -69 -17 -64 -34 -57 -35 -58 -46 -46 -57 -34 -58 -35 -64 -17 -69 0 rrcurveto
          -150 -160 hlineto
          endchar
        </CharString>
        <CharString name="boxdrawingslightarcupandright">
          0 1210 620 rmoveto
          160 -150 vlineto
          -69 0 -64 17 -57 35 -58 34 -46 46 -34 58 -35 57 -17 64 0 69 rrcurveto
          1240 -160 -1240 vlineto
          0 -75 14 -69 28 -65 28 -65 39 -58 50 -49 49 -50 58 -39 65 -28 65 -28 69 -14 75 0 rrcurveto
          endchar
        </CharString>
        <CharString name="boxdrawingslightdiagonalcross">
          0 1130 -635 rmoveto
          -530 1060 -530 -1060 -145 72 585 1169 -580 1160 144 71 526 -1051 526 1051 144 -71 -580 -1160 585 -1169 rlineto
          endchar
        </CharString>
        <CharString name="boxdrawingslightdiagonalupperlefttolowerright">
          0 1130 -635 rmoveto
          -1200 2401 144 71 1201 -2400 rlineto
          endchar
        </CharString>
        <CharString name="boxdrawingslightdiagonalupperrighttolowerleft">
          0 70 -635 rmoveto
          1200 2401 -144 71 -1201 -2400 rlineto
          endchar
        </CharString>
        <CharString name="boxdrawingslightdoubledashhorizontal">
          0 520 620 rmoveto
          160 -440 -160 vlineto
          1040 hmoveto
          160 -440 -160 vlineto
          endchar
        </CharString>
        <CharString name="boxdrawingslightdoubledashvertical">
          0 680 -520 rmoveto
          1280 -160 -1280 vlineto
          160 1440 rmoveto
          1280 -160 -1280 vlineto
          endchar
        </CharString>
        <CharString name="boxdrawingslightdown">
          0 680 -1000 rmoveto
          1780 -160 -1780 vlineto
          endchar
        </CharString>
        <CharString name="boxdrawingslightdownandhorizontal">
          0 680 -1000 rmoveto
          1620 530 160 -1220 -160 530 -1620 vlineto
          endchar
        </CharString>
        <CharString name="boxdrawingslightdownandleft">
          0 680 -1000 rmoveto
          1780 -690 -160 530 -1620 vlineto
          endchar
        </CharString>
        <CharString name="boxdrawingslightdownandright">
          0 680 -1000 rmoveto
          1620 530 160 -690 -1780 vlineto
          endchar
        </CharString>
        <CharString name="boxdrawingslighthorizontal">
          0 1210 620 rmoveto
          160 -1220 -160 vlineto
          endchar
        </CharString>
        <CharString name="boxdrawingslightleft">
          0 680 620 rmoveto
          160 -690 -160 vlineto
          endchar
        </CharString>
        <CharString name="boxdrawingslightleftandheavyright">
          0 1210 460 rmoveto
          480 -690 -160 -530 -160 530 -160 vlineto
          endchar
        </CharString>
        <CharString name="boxdrawingslightquadrupledashhorizontal">
          0 1125 620 rmoveto
          160 -150 -160 vlineto
          -450 hmoveto
          160 -150 -160 vlineto
          450 hmoveto
          160 -150 -160 vlineto
          -450 hmoveto
          160 -150 -160 vlineto
          endchar
        </CharString>
        <CharString name="boxdrawingslightquadrupledashvertical">
          0 680 -520 rmoveto
          540 -160 -540 vlineto
          160 2100 rmoveto
          540 -160 -540 vlineto
          160 -700 rmoveto
          540 -160 -540 vlineto
          160 -700 rmoveto
          540 -160 -540 vlineto
          endchar
        </CharString>
        <CharString name="boxdrawingslightright">
          0 1210 620 rmoveto
          160 -690 -160 vlineto
          endchar
        </CharString>
        <CharString name="boxdrawingslighttripledashhorizontal">
          0 1120 620 rmoveto
          160 -240 -160 vlineto
          -560 hmoveto
          160 -240 -160 vlineto
          640 hmoveto
          160 -240 -160 vlineto
          endchar
        </CharString>
        <CharString name="boxdrawingslighttripledashvertical">
          0 680 -520 rmoveto
          800 -160 -800 vlineto
          160 1920 rmoveto
          800 -160 -800 vlineto
          160 -960 rmoveto
          800 -160 -800 vlineto
          endchar
        </CharString>
        <CharString name="boxdrawingslightup">
          0 680 620 rmoveto
          1380 -160 -1380 vlineto
          endchar
        </CharString>
        <CharString name="boxdrawingslightupandheavydown">
          0 840 -1000 rmoveto
          1780 -160 1220 -160 -1220 -160 -1780 vlineto
          endchar
        </CharString>
        <CharString name="boxdrawingslightupandhorizontal">
          0 1210 620 rmoveto
          160 -530 1220 -160 -1220 -530 -160 vlineto
          endchar
        </CharString>
        <CharString name="boxdrawingslightupandleft">
          0 680 620 rmoveto
          1380 -160 -1220 -530 -160 vlineto
          endchar
        </CharString>
        <CharString name="boxdrawingslightupandright">
          0 1210 620 rmoveto
          160 -530 1220 -160 -1380 vlineto
          endchar
        </CharString>
        <CharString name="boxdrawingslightvertical">
          0 680 -1000 rmoveto
          3000 -160 -3000 vlineto
          endchar
        </CharString>
        <CharString name="boxdrawingslightverticalandhorizontal">
          0 680 -1000 rmoveto
          1620 530 160 -530 1220 -160 -1220 -530 -160 530 -1620 vlineto
          endchar
        </CharString>
        <CharString name="boxdrawingslightverticalandleft">
          0 680 -1000 rmoveto
          3000 -160 -1220 -530 -160 530 -1620 vlineto
          endchar
        </CharString>
        <CharString name="boxdrawingslightverticalandright">
          0 680 -1000 rmoveto
          1620 530 160 -530 1220 -160 -3000 vlineto
          endchar
        </CharString>
        <CharString name="boxdrawingsrightdownheavyandleftuplight">
          0 840 -1000 rmoveto
          1460 370 480 -530 1060 -160 -1060 -160 -160 -370 -160 370 -1620 vlineto
          endchar
        </CharString>
        <CharString name="boxdrawingsrightheavyandleftdownlight">
          0 680 -1000 rmoveto
          1460 530 480 -690 -160 -530 -160 530 -1620 vlineto
          endchar
        </CharString>
        <CharString name="boxdrawingsrightheavyandleftuplight">
          0 1210 460 rmoveto
          480 -530 1060 -160 -1220 -530 -160 530 -160 vlineto
          endchar
        </CharString>
        <CharString name="boxdrawingsrightheavyandleftverticallight">
          0 680 -1000 rmoveto
          1460 530 480 -530 1060 -160 -1220 -530 -160 530 -1620 vlineto
          endchar
        </CharString>
        <CharString name="boxdrawingsrightlightandleftdownheavy">
          0 840 -1000 rmoveto
          1620 370 160 -370 160 -850 -480 370 -1460 vlineto
          endchar
        </CharString>
        <CharString name="boxdrawingsrightlightandleftupheavy">
          0 840 460 rmoveto
          160 370 160 -370 1220 -480 -1060 -370 -480 vlineto
          endchar
        </CharString>
        <CharString name="boxdrawingsrightlightandleftverticalheavy">
          0 840 -1000 rmoveto
          1620 370 160 -370 1220 -480 -1060 -370 -480 370 -1460 vlineto
          endchar
        </CharString>
        <CharString name="boxdrawingsrightupheavyandleftdownlight">
          0 680 -1000 rmoveto
          1460 530 480 -370 1060 -480 -1220 -370 -160 370 -160 160 -1460 vlineto
          endchar
        </CharString>
        <CharString name="boxdrawingsupdoubleandhorizontalsingle">
          0 1210 620 rmoveto
          160 -370 1220 -160 -1220 -160 1220 -160 -1220 -370 -160 vlineto
          endchar
        </CharString>
        <CharString name="boxdrawingsupdoubleandleftsingle">
          0 840 620 rmoveto
          1380 -160 -1220 -160 1220 -160 -1220 -370 -160 vlineto
          endchar
        </CharString>
        <CharString name="boxdrawingsupdoubleandrightsingle">
          0 1210 620 rmoveto
          160 -370 1220 -160 -1220 -160 1220 -160 -1380 vlineto
          endchar
        </CharString>
        <CharString name="boxdrawingsupheavyanddownhorizontallight">
          0 680 -1000 rmoveto
          1620 530 160 -370 1220 -480 -1220 -370 -160 530 -1620 vlineto
          endchar
        </CharString>
        <CharString name="boxdrawingsupheavyandhorizontallight">
          0 1210 620 rmoveto
          160 -370 1220 -480 -1220 -370 -160 vlineto
          endchar
        </CharString>
        <CharString name="boxdrawingsupheavyandleftdownlight">
          0 680 -1000 rmoveto
          1620 160 1380 -480 -1220 -370 -160 530 -1620 vlineto
          endchar
        </CharString>
        <CharString name="boxdrawingsupheavyandleftlight">
          0 840 620 rmoveto
          1380 -480 -1220 -370 -160 vlineto
          endchar
        </CharString>
        <CharString name="boxdrawingsupheavyandrightdownlight">
          0 680 -1000 rmoveto
          1620 530 160 -370 1220 -480 -1380 160 -1620 vlineto
          endchar
        </CharString>
        <CharString name="boxdrawingsupheavyandrightlight">
          0 1210 620 rmoveto
          160 -370 1220 -480 -1380 vlineto
          endchar
        </CharString>
        <CharString name="boxdrawingsuplightanddownhorizontalheavy">
          0 840 -1000 rmoveto
          1460 370 480 -530 1060 -160 -1060 -530 -480 370 -1460 vlineto
          endchar
        </CharString>
        <CharString name="boxdrawingsuplightandhorizontalheavy">
          0 1210 460 rmoveto
          480 -530 1060 -160 -1060 -530 -480 vlineto
          endchar
        </CharString>
        <CharString name="boxdrawingsuplightandleftdownheavy">
          0 840 -1000 rmoveto
          1940 -160 1060 -160 -1060 -530 -480 370 -1460 vlineto
          endchar
        </CharString>
        <CharString name="boxdrawingsuplightandleftheavy">
          0 680 460 rmoveto
          1540 -160 -1060 -530 -480 vlineto
          endchar
        </CharString>
        <CharString name="boxdrawingsuplightandrightdownheavy">
          0 840 -1000 rmoveto
          1460 370 480 -530 1060 -160 -1060 -160 -1940 vlineto
          endchar
        </CharString>
        <CharString name="boxdrawingsuplightandrightheavy">
          0 1210 460 rmoveto
          480 -530 1060 -160 -1540 vlineto
          endchar
        </CharString>
        <CharString name="boxdrawingsupsingleandhorizontaldouble">
          0 1210 460 rmoveto
          160 -1220 -160 vlineto
          1220 320 rmoveto
          160 -530 1060 -160 -1060 -530 -160 vlineto
          endchar
        </CharString>
        <CharString name="boxdrawingsupsingleandleftdouble">
          0 680 460 rmoveto
          1540 -160 -1060 -530 -160 530 -160 -530 -160 vlineto
          endchar
        </CharString>
        <CharString name="boxdrawingsupsingleandrightdouble">
          0 1210 460 rmoveto
          160 -530 160 530 160 -530 1060 -160 -1540 vlineto
          endchar
        </CharString>
        <CharString name="boxdrawingsverticaldoubleandhorizontalsingle">
          0 840 -1000 rmoveto
          1620 370 160 -370 1220 -160 -1220 -160 1220 -160 -1220 -370 -160 370 -1620 160 1620 160 -1620 vlineto
          endchar
        </CharString>
        <CharString name="boxdrawingsverticaldoubleandleftsingle">
          0 840 -1000 rmoveto
          3000 -160 -3000 vlineto
          -160 hmoveto
          3000 -160 -1220 -370 -160 370 -1620 vlineto
          endchar
        </CharString>
        <CharString name="boxdrawingsverticaldoubleandrightsingle">
          0 520 -1000 rmoveto
          3000 -160 -3000 vlineto
          480 hmoveto
          1620 370 160 -370 1220 -160 -3000 vlineto
          endchar
        </CharString>
        <CharString name="boxdrawingsverticalheavyandhorizontallight">
          0 840 -1000 rmoveto
          1620 370 160 -370 1220 -480 -1220 -370 -160 370 -1620 vlineto
          endchar
        </CharString>
        <CharString name="boxdrawingsverticalheavyandleftlight">
          0 840 -1000 rmoveto
          3000 -480 -1220 -370 -160 370 -1620 vlineto
          endchar
        </CharString>
        <CharString name="boxdrawingsverticalheavyandrightlight">
          0 840 -1000 rmoveto
          1620 370 160 -370 1220 -480 -3000 vlineto
          endchar
        </CharString>
        <CharString name="boxdrawingsverticallightandhorizontalheavy">
          0 680 -1000 rmoveto
          1460 530 480 -530 1060 -160 -1060 -530 -480 530 -1460 vlineto
          endchar
        </CharString>
        <CharString name="boxdrawingsverticallightandleftheavy">
          0 680 -1000 rmoveto
          3000 -160 -1060 -530 -480 530 -1460 vlineto
          endchar
        </CharString>
        <CharString name="boxdrawingsverticallightandrightheavy">
          0 680 -1000 rmoveto
          1460 530 480 -530 1060 -160 -3000 vlineto
          endchar
        </CharString>
        <CharString name="boxdrawingsverticalsingleandhorizontaldouble">
          0 680 -1000 rmoveto
          1460 530 160 -530 160 530 160 -530 1060 -160 -1060 -530 -160 530 -160 -530 -160 530 -1460 vlineto
          endchar
        </CharString>
        <CharString name="boxdrawingsverticalsingleandleftdouble">
          0 680 -1000 rmoveto
          3000 -160 -1060 -530 -160 530 -160 -530 -160 530 -1460 vlineto
          endchar
        </CharString>
        <CharString name="boxdrawingsverticalsingleandrightdouble">
          0 680 -1000 rmoveto
          1460 530 160 -530 160 530 160 -530 1060 -160 -3000 vlineto
          endchar
        </CharString>
        <CharString name="braceleft">
          0 872 -283 rmoveto
          29 0 26 9 24 19 23 18 16 26 7 34 1 8 1 8 0 7 0 19 -5 17 -12 15 -19 22 -24 11 -30 0 rrcurveto
          -68 hlineto
          -123 0 -62 40 0 79 0 17 9 41 17 62 rrcurveto
          47 209 rlineto
          11 53 6 47 0 41 0 72 -18 55 -36 37 -3 3 -1 3 0 3 0 9 4 7 9 6 78 57 55 100 31 145 rrcurveto
          41 208 rlineto
          6 40 5 28 4 17 11 55 33 44 55 32 34 20 52 10 71 0 rrcurveto
          69 hlineto
          28 0 26 9 23 19 33 27 17 34 0 41 0 21 -6 17 -11 14 -19 21 -25 10 -30 0 -105 0 -65 -1 -27 -1 -76 -5 -67 -23 -59 -41 -103 -68 -65 -98 -28 -130 -6 -27 -10 -56 -14 -83 rrcurveto
          -15 -84 -9 -51 -4 -20 -15 -69 -27 -50 -39 -32 -24 -21 -29 -10 -32 0 -83 0 -50 -36 -15 -73 -3 -12 -1 -10 0 -10 0 -57 37 -28 75 0 30 0 23 -9 15 -19 15 -19 7 -27 0 -34 rrcurveto
          0 -20 -2 -23 -6 -25 -4 -20 -13 -51 -21 -83 -21 -84 -14 -55 -6 -28 -7 -34 -3 -33 0 -30 0 -84 27 -68 56 -51 43 -42 59 -24 76 -4 26 -2 65 -1 104 0 rrcurveto
          endchar
        </CharString>
        <CharString name="braceleft_double">
          0 -128 -283 rmoveto
          29 0 26 9 24 19 23 18 16 26 7 34 1 8 1 7 0 8 0 19 -6 17 -12 15 -18 22 -24 11 -30 0 rrcurveto
          -68 hlineto
          -123 0 -62 40 0 79 0 17 9 41 17 62 rrcurveto
          47 209 rlineto
          11 53 6 47 0 41 0 72 -18 55 -36 37 -3 3 -1 3 0 3 0 9 4 7 9 6 78 57 55 100 31 145 rrcurveto
          41 208 rlineto
          6 40 5 28 4 17 11 55 33 44 55 32 34 20 52 10 71 0 rrcurveto
          69 hlineto
          28 0 26 9 23 19 33 27 17 34 0 41 0 21 -6 17 -11 14 -19 21 -25 10 -30 0 -105 0 -65 -1 -27 -1 -76 -5 -67 -23 -59 -41 -103 -68 -65 -98 -28 -130 -6 -27 -10 -56 -14 -83 rrcurveto
          -15 -84 -9 -51 -4 -20 -15 -69 -27 -50 -39 -32 -24 -21 -29 -10 -32 0 -83 0 -50 -36 -15 -73 -3 -12 -1 -10 0 -10 0 -57 37 -28 75 0 30 0 23 -9 15 -19 15 -19 7 -27 0 -34 rrcurveto
          0 -20 -2 -23 -6 -25 -4 -20 -13 -51 -21 -83 -21 -84 -14 -55 -6 -28 -7 -34 -3 -33 0 -30 0 -84 27 -68 56 -51 43 -42 59 -24 76 -4 26 -2 65 -1 104 0 rrcurveto
          800 hmoveto
          29 0 26 9 24 19 23 18 16 26 7 34 1 8 1 7 0 8 0 19 -6 17 -12 15 -18 22 -24 11 -30 0 rrcurveto
          -68 hlineto
          -123 0 -62 40 0 79 0 17 9 41 17 62 rrcurveto
          47 209 rlineto
          11 53 6 47 0 41 0 72 -18 55 -36 37 -3 3 -1 3 0 3 0 9 4 7 9 6 78 57 55 100 31 145 rrcurveto
          41 208 rlineto
          6 40 5 28 4 17 11 55 33 44 55 32 34 20 52 10 71 0 rrcurveto
          69 hlineto
          28 0 26 9 23 19 33 27 17 34 0 41 0 21 -6 17 -11 14 -19 21 -25 10 -30 0 -105 0 -65 -1 -27 -1 -76 -5 -67 -23 -59 -41 -103 -68 -65 -98 -28 -130 -6 -27 -10 -56 -14 -83 rrcurveto
          -15 -84 -9 -51 -4 -20 -15 -69 -27 -50 -39 -32 -24 -21 -29 -10 -32 0 -83 0 -50 -36 -15 -73 -3 -12 -1 -10 0 -10 0 -57 37 -28 75 0 30 0 23 -9 15 -19 15 -19 7 -27 0 -34 rrcurveto
          0 -20 -2 -23 -6 -25 -4 -20 -13 -51 -21 -83 -21 -84 -14 -55 -6 -28 -7 -34 -3 -33 0 -30 0 -84 27 -68 56 -51 43 -42 59 -24 76 -4 26 -2 65 -1 104 0 rrcurveto
          endchar
        </CharString>
        <CharString name="braceright">
          0 307 -283 rmoveto
          43 0 36 1 28 2 27 1 33 7 37 10 37 11 34 17 32 22 103 68 66 98 27 130 6 27 10 56 14 83 15 83 9 52 5 20 14 69 27 50 39 32 25 21 29 10 32 0 rrcurveto
          83 0 50 36 15 73 3 12 1 10 0 10 0 57 -37 28 -75 0 -30 0 -23 9 -15 19 -15 18 -8 27 0 34 0 20 3 23 6 26 4 20 12 51 21 84 21 83 14 55 6 28 rrcurveto
          7 35 4 33 0 30 0 84 -28 67 -56 51 -42 42 -59 24 -76 5 -27 1 -65 1 -105 0 -29 0 -26 -9 -23 -19 -24 -18 -15 -26 -7 -34 -1 -8 -1 -7 0 -8 0 -19 6 -17 12 -15 rrcurveto
          18 -22 24 -11 30 0 rrcurveto
          69 hlineto
          123 0 61 -40 0 -80 0 -18 -8 -40 -17 -61 rrcurveto
          -47 -209 rlineto
          -11 -53 -6 -47 0 -41 0 -72 18 -55 35 -37 3 -3 2 -3 0 -4 0 -8 -5 -7 -8 -6 -78 -57 -55 -100 -31 -145 rrcurveto
          -41 -208 rlineto
          -6 -40 -5 -28 -4 -17 -12 -55 -33 -44 -55 -32 -33 -20 -52 -10 -71 0 rrcurveto
          -68 hlineto
          -28 0 -26 -9 -23 -19 -33 -27 -17 -34 0 -41 0 -21 6 -17 11 -13 18 -21 24 -11 31 0 rrcurveto
          endchar
        </CharString>
        <CharString name="braceright_double">
          0 -693 -283 rmoveto
          43 0 36 1 28 2 27 1 33 7 37 10 37 11 34 17 32 22 103 68 66 98 27 130 6 27 10 56 14 83 15 83 9 52 5 20 14 69 27 50 39 32 25 21 29 10 32 0 rrcurveto
          83 0 50 36 15 73 3 12 1 10 0 10 0 57 -37 28 -75 0 -30 0 -23 9 -15 19 -15 18 -8 27 0 34 0 20 3 23 6 26 4 20 12 51 21 84 21 83 14 55 6 28 rrcurveto
          7 35 4 33 0 30 0 84 -28 67 -56 51 -42 42 -59 24 -76 5 -27 1 -65 1 -105 0 -29 0 -26 -9 -23 -19 -24 -18 -15 -26 -7 -34 -1 -8 -1 -8 0 -7 0 -19 5 -17 12 -15 rrcurveto
          19 -22 24 -11 30 0 rrcurveto
          69 hlineto
          123 0 61 -40 0 -80 0 -18 -8 -40 -17 -61 rrcurveto
          -47 -209 rlineto
          -11 -53 -6 -47 0 -41 0 -72 18 -55 35 -37 3 -3 2 -3 0 -4 0 -8 -5 -7 -8 -6 -78 -57 -55 -100 -31 -145 rrcurveto
          -41 -208 rlineto
          -6 -40 -5 -28 -4 -17 -12 -55 -33 -44 -55 -32 -33 -20 -52 -10 -71 0 rrcurveto
          -68 hlineto
          -28 0 -26 -9 -23 -19 -33 -27 -17 -34 0 -41 0 -21 6 -17 11 -13 18 -21 24 -11 31 0 rrcurveto
          891 hmoveto
          43 0 36 1 28 2 27 1 33 7 37 10 37 11 34 17 32 22 103 68 66 98 27 130 6 27 10 56 14 83 15 83 9 52 5 20 14 69 27 50 39 32 25 21 29 10 32 0 rrcurveto
          83 0 50 36 15 73 3 12 1 10 0 10 0 57 -37 28 -75 0 -30 0 -23 9 -15 19 -15 18 -8 27 0 34 0 20 3 23 6 26 4 20 12 51 21 84 21 83 14 55 6 28 rrcurveto
          7 35 4 33 0 30 0 84 -28 67 -56 51 -42 42 -59 24 -76 5 -27 1 -65 1 -105 0 -29 0 -26 -9 -23 -19 -24 -18 -15 -26 -7 -34 -1 -8 -1 -8 0 -7 0 -19 5 -17 12 -15 rrcurveto
          19 -22 24 -11 30 0 rrcurveto
          69 hlineto
          123 0 61 -40 0 -80 0 -18 -8 -40 -17 -61 rrcurveto
          -47 -209 rlineto
          -11 -53 -6 -47 0 -41 0 -72 18 -55 35 -37 3 -3 2 -3 0 -4 0 -8 -5 -7 -8 -6 -78 -57 -55 -100 -31 -145 rrcurveto
          -41 -208 rlineto
          -6 -40 -5 -28 -4 -17 -12 -55 -33 -44 -55 -32 -33 -20 -52 -10 -71 0 rrcurveto
          -68 hlineto
          -28 0 -26 -9 -23 -19 -33 -27 -17 -34 0 -41 0 -21 6 -17 11 -13 18 -21 24 -11 31 0 rrcurveto
          endchar
        </CharString>
        <CharString name="bracketleft">
          0 783 -290 rmoveto
          32 0 28 10 25 21 34 28 17 33 0 38 0 20 -6 18 -13 17 -19 23 -26 12 -34 0 rrcurveto
          -336 hlineto
          -2 0 -1 1 0 2 0 2 107 507 215 1012 4 11 5 5 7 0 rrcurveto
          337 hlineto
          32 0 28 10 25 21 34 28 17 33 0 38 0 20 -6 18 -13 17 -19 23 -26 12 -34 0 rrcurveto
          -456 hlineto
          -33 0 -30 -11 -26 -22 -27 -22 -16 -25 -7 -30 -250 -1177 -125 -592 0 -7 0 -21 7 -19 13 -17 20 -25 27 -12 35 0 rrcurveto
          endchar
        </CharString>
        <CharString name="bracketright">
          0 759 -290 rmoveto
          33 0 30 11 26 22 26 22 16 25 7 30 250 1177 125 593 0 7 0 21 -6 19 -13 16 -20 25 -27 12 -35 0 rrcurveto
          -456 hlineto
          -32 0 -28 -10 -25 -21 -34 -28 -17 -33 0 -38 0 -20 6 -18 13 -16 19 -24 26 -12 34 0 rrcurveto
          336 hlineto
          2 0 1 -1 0 -2 0 -2 -108 -507 -215 -1011 -3 -11 -5 -6 -7 0 rrcurveto
          -337 hlineto
          -32 0 -28 -10 -25 -21 -34 -28 -17 -33 0 -38 0 -20 6 -18 13 -16 19 -24 26 -12 34 0 rrcurveto
          endchar
        </CharString>
        <CharString name="bracketright_numbersign">
          0 1173 1145 rmoveto
          29 137 15 71 0 6 0 21 -8 20 -16 19 -21 24 -28 12 -35 0 -35 0 -32 -12 -31 -25 -31 -25 -19 -25 -6 -27 rrcurveto
          -42 -196 rlineto
          226 -820 rmoveto
          35 0 33 12 31 25 38 30 20 32 0 32 0 21 -9 21 -16 20 -21 25 -27 12 -35 0 rrcurveto
          -100 hlineto
          -49 -230 rlineto
          -1485 -619 rmoveto
          36 0 34 13 31 25 31 25 19 26 6 28 rrcurveto
          107 502 rlineto
          881 hlineto
          49 230 rlineto
          -881 hlineto
          62 290 rlineto
          481 hlineto
          48 230 rlineto
          -481 hlineto
          73 341 36 174 0 6 0 21 -8 20 -16 20 -21 25 -29 12 -36 0 rrcurveto
          -456 hlineto
          -35 0 -32 -12 -31 -24 -38 -30 -19 -32 0 -34 0 -21 8 -19 16 -19 21 -25 27 -12 35 0 rrcurveto
          331 hlineto
          -326 -1532 rlineto
          -331 hlineto
          -35 0 -32 -12 -31 -24 -38 -30 -19 -32 0 -34 0 -21 8 -19 16 -19 21 -25 27 -12 35 0 rrcurveto
          2152 1139 rmoveto
          35 0 33 13 31 25 38 30 19 32 0 34 0 20 -8 20 -16 19 -21 25 -28 12 -35 0 rrcurveto
          -500 hlineto
          -48 -230 rlineto
          -361 -900 rmoveto
          35 0 33 12 31 25 31 25 19 26 6 27 rrcurveto
          41 195 rlineto
          -261 hlineto
          -29 -136 -14 -71 0 -6 0 -21 8 -20 17 -19 21 -25 27 -12 35 0 rrcurveto
          275 680 rmoveto
          103 484 51 244 0 6 0 21 -8 20 -17 19 -21 24 -28 12 -35 0 -35 0 -32 -12 -31 -25 -31 -25 -19 -25 -6 -27 rrcurveto
          -152 -716 rlineto
          386 -680 rmoveto
          35 0 33 12 31 25 31 25 18 26 6 27 rrcurveto
          152 715 rlineto
          -260 hlineto
          -103 -483 -51 -244 0 -6 0 -21 8 -20 17 -19 21 -25 27 -12 35 0 rrcurveto
          endchar
        </CharString>
        <CharString name="bracketright_numbersign_alt">
          0 697 850 rmoveto
          169 hlineto
          -64 -300 rlineto
          -169 hlineto
          -231 hmoveto
          -550 hlineto
          64 300 rlineto
          550 hlineto
          519 -520 rmoveto
          155 hlineto
          32 0 30 11 27 23 27 22 16 25 7 29 6 29 -6 25 -18 22 -17 23 -25 11 -32 0 rrcurveto
          -155 hlineto
          64 300 rlineto
          155 hlineto
          32 0 29 11 27 23 27 22 17 26 6 29 6 29 -5 25 -18 22 -18 22 -25 11 -32 0 rrcurveto
          -155 hlineto
          58 271 rlineto
          6 29 -6 25 -17 22 -17 22 -25 11 -33 0 -32 0 -29 -11 -27 -22 -27 -22 -17 -25 -6 -29 rrcurveto
          -58 -271 rlineto
          -169 hlineto
          58 271 rlineto
          6 29 -6 25 -17 22 -18 22 -25 11 -33 0 -32 0 -29 -11 -27 -22 -27 -22 -17 -25 -6 -29 rrcurveto
          -58 -271 rlineto
          -550 hlineto
          108 507 rlineto
          7 30 -6 26 -18 23 -18 23 -26 11 -34 0 rrcurveto
          -456 hlineto
          -32 0 -30 -11 -27 -22 -26 -22 -17 -26 -6 -29 -6 -29 5 -26 18 -22 17 -22 25 -11 32 0 rrcurveto
          337 hlineto
          6 0 2 -4 -2 -8 rrcurveto
          -322 -1515 rlineto
          -2 -9 -4 -4 -5 0 rrcurveto
          -337 hlineto
          -32 0 -30 -11 -27 -22 -27 -22 -16 -26 -6 -29 -6 -29 5 -26 17 -22 18 -22 25 -11 32 0 rrcurveto
          456 hlineto
          34 0 31 11 28 23 27 23 17 26 6 30 rrcurveto
          108 507 rlineto
          550 hlineto
          -57 -270 rlineto
          -6 -29 5 -25 18 -22 18 -23 25 -11 32 0 32 0 30 11 27 23 27 22 17 25 6 29 rrcurveto
          57 270 rlineto
          169 hlineto
          -57 -270 rlineto
          -6 -29 5 -25 18 -22 18 -23 25 -11 32 0 32 0 30 11 27 23 26 22 17 26 6 28 rrcurveto
          endchar
        </CharString>
        <CharString name="brokenbar">
          0 1064 1640 rmoveto
          6 32 -5 27 -18 22 -18 23 -24 11 -32 0 -32 0 -29 -11 -27 -23 -28 -22 -17 -27 -6 -32 rrcurveto
          -145 -680 rlineto
          -7 -32 6 -27 18 -22 17 -23 25 -11 32 0 31 0 30 11 27 23 27 22 17 27 7 32 rrcurveto
          -96 -450 rmoveto
          7 32 -5 27 -18 22 -18 23 -25 11 -31 0 -32 0 -29 -11 -28 -23 -27 -22 -17 -27 -7 -32 rrcurveto
          -144 -680 rlineto
          -7 -32 6 -27 17 -22 18 -23 25 -11 31 0 32 0 29 11 28 23 27 22 17 27 7 32 rrcurveto
          endchar
        </CharString>
        <CharString name="c">
          0 647 -50 rmoveto
          116 0 120 42 124 83 39 25 19 35 0 45 0 19 -5 17 -9 13 -15 23 -24 12 -31 0 -24 0 -21 -6 -17 -11 -82 -51 -74 -25 -66 0 -149 0 -74 75 0 151 0 35 5 39 9 42 rrcurveto
          25 119 45 89 66 59 65 59 78 29 89 0 45 0 37 -8 29 -16 19 -11 9 -17 0 -23 0 -24 -7 -19 -15 -14 -14 -14 -15 -8 -16 -2 -53 -8 -27 -22 0 -38 0 -43 26 -22 52 -1 rrcurveto
          16 hlineto
          93 0 68 29 44 59 43 59 22 61 0 62 0 25 -3 24 -6 21 -7 27 -15 26 -22 25 -63 69 -89 35 -114 0 -97 0 -93 -22 -90 -45 -90 -44 -78 -63 -65 -82 -66 -82 -47 -108 -30 -135 rrcurveto
          -12 -57 -6 -53 0 -49 0 -154 56 -114 113 -72 73 -47 86 -23 100 0 rrcurveto
          endchar
        </CharString>
        <CharString name="ccedilla">
          0 660 -50 rmoveto
          -4 0 5 0 13 0 117 0 120 42 123 83 39 25 19 35 0 45 0 18 -5 17 -9 14 -15 23 -24 12 -31 0 -24 0 -21 -6 -17 -11 -82 -51 -74 -25 -66 0 -149 0 -74 76 0 151 rrcurveto
          0 29 3 31 7 33 rrcurveto
          4 22 rlineto
          26 119 45 89 66 59 65 59 78 29 89 0 45 0 37 -8 29 -16 19 -11 9 -17 0 -23 0 -24 -7 -19 -15 -14 -14 -14 -15 -8 -16 -2 -53 -8 -27 -22 0 -38 0 -43 26 -22 53 -1 rrcurveto
          15 hlineto
          93 0 68 29 44 59 43 59 22 61 0 62 0 25 -3 24 -6 21 -7 27 -15 26 -22 25 -63 69 -89 35 -114 0 -97 0 -93 -22 -90 -45 -90 -44 -78 -63 -65 -82 -66 -82 -47 -108 -30 -135 rrcurveto
          -4 -22 rlineto
          -9 -50 -5 -46 0 -43 0 -50 6 -46 13 -42 26 -86 50 -67 75 -48 27 -17 21 -12 16 -5 3 4 0 -3 -3 -10 rrcurveto
          -42 -141 -1 -10 rlineto
          0 -27 17 -17 33 -7 37 -2 27 -4 19 -7 14 -5 7 -11 0 -15 0 -5 -1 -5 -1 -6 -5 -23 -12 -17 -18 -9 -21 -10 -26 -5 -31 0 -29 0 -26 4 -24 8 -9 3 -9 1 -9 0 rrcurveto
          -31 0 -27 -14 -24 -27 -9 -13 -6 -13 -3 -13 rrcurveto
          -1 -13 rlineto
          0 -25 7 -17 14 -10 15 -9 15 -7 16 -4 3 -3 4 -1 6 0 37 -9 41 -5 44 0 77 0 69 19 63 37 65 39 40 56 15 73 3 14 1 13 0 12 0 32 -9 30 -19 27 rrcurveto
          -25 37 -44 23 -63 8 3 0 1 0 0 0 rrcurveto
          2 vlineto
          13 58 rlineto
          endchar
        </CharString>
        <CharString name="cedilla">
          0 467 -522 rmoveto
          74 0 73 19 62 37 65 40 45 62 15 74 11 48 -9 46 -26 39 -23 34 -46 23 -59 9 -3 0 3 -4 0 2 rrcurveto
          13 59 rlineto
          10 47 -35 45 -48 0 -44 0 -51 -40 -13 -44 rrcurveto
          -42 -141 rlineto
          -6 -31 22 -32 31 -1 36 -2 26 -4 20 -8 23 -8 4 -9 -5 -27 -5 -24 -7 -8 -17 -9 -22 -10 -24 -5 -32 0 -31 0 -25 4 -25 8 -8 2 -10 2 -8 0 -28 0 -38 -18 -20 -27 rrcurveto
          -9 -13 -7 -16 -3 -13 -7 -33 17 -37 33 -12 rrcurveto
          29 -9 rlineto
          39 -10 41 -5 44 0 rrcurveto
          endchar
        </CharString>
        <CharString name="cent">
          0 818 1096 rmoveto
          -51 -7 -58 -20 -63 -31 -91 -45 -79 -64 -67 -83 -67 -84 -48 -109 -29 -137 -25 -118 0 -102 26 -85 25 -85 49 -65 73 -47 53 -34 55 -21 54 -7 rrcurveto
          -35 -162 rlineto
          -6 -32 5 -27 18 -22 18 -23 24 -11 32 0 31 0 30 11 27 23 28 22 17 27 6 32 rrcurveto
          37 174 rlineto
          66 16 74 35 82 55 32 21 20 28 8 35 7 34 -4 27 -14 22 -14 21 -22 11 -29 0 -23 0 -21 -6 -18 -12 -81 -50 -74 -25 -67 0 -92 0 -65 30 -37 59 -36 60 -7 84 23 107 rrcurveto
          24 116 45 87 64 58 64 57 76 29 89 0 58 0 54 -18 53 -37 16 -12 19 -6 21 0 34 0 29 12 23 25 23 25 14 25 6 27 7 34 -6 29 -21 23 -47 53 -53 34 -60 13 rrcurveto
          46 220 rlineto
          7 32 -5 27 -18 22 -18 23 -25 11 -31 0 -32 0 -29 -11 -27 -23 -28 -22 -17 -27 -7 -32 rrcurveto
          endchar
        </CharString>
        <CharString name="colon">
          0 763 731 rmoveto
          50 0 47 18 43 36 55 47 27 56 0 66 0 33 -10 29 -19 26 -29 39 -41 19 -53 0 -53 0 -48 -18 -43 -36 -56 -46 -28 -56 0 -65 0 -34 10 -30 21 -26 29 -39 43 -19 55 0 rrcurveto
          -166 -781 rmoveto
          50 0 47 18 43 37 55 47 27 56 0 65 0 33 -10 29 -19 26 -29 39 -41 20 -53 0 -53 0 -48 -18 -43 -36 -56 -47 -28 -55 0 -65 0 -34 10 -30 21 -27 29 -39 43 -19 55 0 rrcurveto
          endchar
        </CharString>
        <CharString name="colon_center">
          0 766 761 rmoveto
          51 0 47 18 43 37 43 36 27 43 11 50 11 50 -9 44 -27 36 -28 37 -39 18 -52 0 -54 0 -49 -18 -44 -37 -43 -36 -27 -44 -11 -50 -11 -50 9 -43 28 -36 28 -37 41 -18 55 0 rrcurveto
          -147 -691 rmoveto
          51 0 48 18 43 37 43 37 27 43 10 49 11 50 -9 44 -27 37 -28 37 -39 18 -51 0 -55 0 -49 -18 -44 -37 -43 -37 -27 -44 -11 -50 -10 -49 8 -43 28 -37 28 -37 41 -18 55 0 rrcurveto
          endchar
        </CharString>
        <CharString name="colon_center_left">
          0 546 761 rmoveto
          51 0 47 18 43 37 43 36 27 43 11 50 11 50 -9 44 -27 36 -28 37 -39 18 -52 0 -54 0 -49 -18 -44 -37 -43 -36 -27 -44 -11 -50 -11 -50 9 -43 28 -36 28 -37 41 -18 55 0 rrcurveto
          -147 -691 rmoveto
          51 0 48 18 43 37 43 37 27 43 10 49 11 50 -9 44 -27 37 -28 37 -39 18 -51 0 -55 0 -49 -18 -44 -37 -43 -37 -27 -44 -11 -50 -10 -49 8 -43 28 -37 28 -37 41 -18 55 0 rrcurveto
          endchar
        </CharString>
        <CharString name="colon_center_right">
          0 986 761 rmoveto
          51 0 47 18 43 37 43 36 27 43 11 50 11 50 -9 44 -27 36 -28 37 -39 18 -52 0 -54 0 -49 -18 -44 -37 -43 -36 -27 -44 -11 -50 -11 -50 9 -43 28 -36 28 -37 41 -18 55 0 rrcurveto
          -147 -691 rmoveto
          51 0 48 18 43 37 43 37 27 43 10 49 11 50 -9 44 -27 37 -28 37 -39 18 -51 0 -55 0 -49 -18 -44 -37 -43 -37 -27 -44 -11 -50 -10 -49 8 -43 28 -37 28 -37 41 -18 55 0 rrcurveto
          endchar
        </CharString>
        <CharString name="comma">
          0 280 -437 rmoveto
          166 17 137 63 109 108 105 106 52 120 0 133 0 64 -16 52 -33 42 -29 37 -44 19 -57 0 -77 0 -60 -27 -45 -54 -34 -37 -18 -43 0 -49 0 -35 12 -31 22 -27 24 -30 12 -29 0 -28 rrcurveto
          0 -40 -21 -35 -42 -28 -35 -24 -45 -15 -53 -7 -80 -9 -47 -40 -15 -71 rrcurveto
          -1 -16 rlineto
          0 -57 38 -29 75 0 rrcurveto
          endchar
        </CharString>
        <CharString name="copyright">
          0 934 1560 rmoveto
          -124 0 -113 -30 -101 -61 -101 -61 -84 -81 -68 -101 -68 -101 -46 -112 -27 -124 -26 -122 -1 -112 25 -101 24 -102 50 -81 75 -61 75 -60 100 -31 125 0 124 0 113 31 100 61 100 60 84 81 67 102 rrcurveto
          67 101 46 112 26 122 27 123 1 113 -24 101 -24 101 -49 81 -75 61 -74 61 -100 30 -124 0 rrcurveto
          -34 -158 rmoveto
          93 0 72 -23 52 -45 51 -45 32 -62 14 -77 14 -78 -3 -87 -21 -96 -20 -95 -33 -86 -48 -77 -47 -77 -58 -61 -70 -45 -70 -46 -82 -22 -93 0 -93 0 -73 22 -51 46 -51 45 -33 61 -14 77 rrcurveto
          -15 77 3 86 20 95 21 96 34 87 47 78 47 77 59 62 70 45 71 45 82 23 93 0 rrcurveto
          -163 -879 rmoveto
          74 0 77 26 78 53 23 14 14 20 5 25 5 23 -2 19 -11 16 -10 15 -15 7 -21 0 -17 0 -15 -4 -13 -8 -47 -30 -44 -15 -39 0 -54 0 -38 18 -21 34 -21 35 -4 49 13 64 rrcurveto
          15 69 26 52 37 33 37 34 45 17 52 0 34 0 32 -11 31 -22 12 -8 13 -4 14 0 25 0 20 8 16 18 17 17 10 18 4 18 5 24 -5 20 -14 17 -44 49 -60 24 -76 0 rrcurveto
          -61 0 -59 -14 -58 -29 -57 -28 -50 -41 -43 -53 -42 -52 -31 -70 -18 -86 -16 -74 0 -64 17 -54 16 -54 31 -42 46 -29 46 -30 54 -14 62 0 rrcurveto
          endchar
        </CharString>
        <CharString name="currency">
          0 204 159 rmoveto
          26 0 33 12 24 19 rrcurveto
          127 105 rlineto
          2 2 -2 -1 4 0 2 0 -1 1 1 -1 62 -38 79 -19 92 0 90 0 85 20 75 37 1 1 -1 -1 3 0 3 0 0 1 2 -2 rrcurveto
          83 -104 rlineto
          15 -19 28 -12 25 0 26 0 33 12 25 20 24 21 18 30 5 26 6 26 -5 30 -16 20 rrcurveto
          -80 100 rlineto
          -2 2 1 -1 0 3 1 2 0 0 1 2 24 28 22 35 19 36 24 45 19 51 11 54 11 51 3 50 -4 44 -4 37 -8 33 -10 30 -1 2 0 -1 1 3 1 4 -1 -1 2 2 rrcurveto
          122 100 rlineto
          24 21 18 30 6 25 5 26 -5 30 -10 12 rrcurveto
          1 vlineto
          -21 27 -28 12 -26 0 -26 0 -33 -12 -24 -19 rrcurveto
          -126 -105 rlineto
          -3 -2 2 1 -3 0 -2 0 1 0 -2 1 -59 38 -78 21 -91 0 -49 0 -50 -6 -48 -13 -38 -10 -37 -14 -33 -17 -2 0 1 0 -3 0 -3 0 1 -1 -1 2 rrcurveto
          -83 107 rlineto
          -16 19 -28 12 -25 0 -26 0 -34 -12 -15 -13 rrcurveto
          -1 hlineto
          -32 -27 -18 -30 -5 -25 -5 -26 4 -30 15 -19 rrcurveto
          82 -107 rlineto
          2 -2 0 1 -1 -3 -1 -2 1 1 -2 -2 -23 -30 -21 -35 -18 -35 -23 -44 -17 -49 -11 -51 -11 -52 -4 -50 4 -45 3 -36 7 -35 11 -30 0 -2 0 1 0 -2 -1 -3 1 1 -3 -2 rrcurveto
          -126 -104 rlineto
          -24 -20 -18 -30 -5 -26 -6 -26 5 -30 16 -20 15 -20 28 -12 26 0 rrcurveto
          492 284 rmoveto
          -160 0 -48 97 35 162 34 161 89 97 160 0 160 0 46 -97 -35 -161 -34 -163 -87 -96 -160 0 rrcurveto
          endchar
        </CharString>
        <CharString name="d">
          0 553 171 rmoveto
          -124 1 -62 67 0 133 0 36 4 42 9 46 26 125 39 90 53 55 53 55 65 27 78 0 58 0 44 -21 30 -42 27 -39 14 -40 0 -42 0 -14 -2 -14 -3 -15 rrcurveto
          -45 -213 rlineto
          -15 -74 -36 -58 -57 -42 -56 -42 -52 -21 -48 0 rrcurveto
          421 -221 rmoveto
          60 0 59 24 57 49 41 36 27 32 11 29 7 16 3 15 0 15 0 15 -6 15 -11 14 -11 15 -16 7 -23 0 -33 0 -28 -14 -24 -28 -19 -23 -20 -12 -20 0 -12 0 -6 9 0 16 rrcurveto
          0 6 1 7 2 8 171 826 85 419 0 12 0 21 -7 19 -14 16 -20 24 -26 12 -32 0 -29 0 -28 -11 -27 -21 -26 -21 -17 -26 -7 -32 rrcurveto
          -90 -424 rlineto
          -2 -13 -5 -6 -7 0 -4 0 -4 3 -5 5 -63 64 -71 32 -80 0 -133 0 -115 -51 -98 -102 -98 -102 -67 -138 -38 -175 -17 -85 -9 -76 0 -66 0 -78 12 -66 24 -54 49 -105 100 -52 152 0 rrcurveto
          97 0 117 47 137 93 6 4 4 2 1 0 -4 0 -1 -4 1 -8 18 -89 49 -44 82 -1 rrcurveto
          endchar
        </CharString>
        <CharString name="dagger">
          0 1125 850 rmoveto
          33 0 29 11 25 22 33 28 16 32 0 37 0 20 -6 18 -13 16 -18 24 -26 12 -35 0 rrcurveto
          -680 hlineto
          -32 0 -28 -11 -27 -21 -33 -27 -16 -32 0 -39 0 -20 6 -18 13 -15 19 -25 26 -12 34 0 rrcurveto
          515 300 rmoveto
          28 132 14 70 0 7 0 21 -7 19 -13 16 -19 23 -26 12 -33 0 -31 0 -28 -11 -26 -21 -26 -21 -16 -25 -7 -29 rrcurveto
          -41 -193 rlineto
          -135 -1200 rmoveto
          31 0 28 11 26 21 26 22 16 25 7 28 rrcurveto
          151 713 rlineto
          -231 hlineto
          -101 -479 -51 -243 0 -7 0 -20 6 -18 13 -16 20 -25 26 -12 33 0 rrcurveto
          endchar
        </CharString>
        <CharString name="darkshade">
          0 -600 vmoveto
          1200 2640 -120 -120 -120 120 -120 -120 -120 120 -120 -120 -120 120 -120 -120 -120 120 -120 -120 -120 -120 120 -120 -120 -120 120 -120 -120 -120 120 -120 -120 -120 120 -120 -120 -120 120 -120 -120 -120 120 -120 -120 -120 120 -120 hlineto
          -120 -120 120 -120 -120 -120 120 -120 -120 -120 120 -120 -120 hlineto
          960 2160 rmoveto
          120 120 -120 vlineto
          -360 hmoveto
          120 120 -120 vlineto
          -360 hmoveto
          120 120 -120 vlineto
          -360 hmoveto
          120 120 -120 vlineto
          600 -240 rmoveto
          120 120 -120 vlineto
          -360 hmoveto
          120 120 -120 vlineto
          -360 hmoveto
          120 120 -120 vlineto
          -360 hmoveto
          120 120 -120 vlineto
          600 -240 rmoveto
          120 120 -120 vlineto
          -360 hmoveto
          120 120 -120 vlineto
          -600 hmoveto
          120 120 -120 vlineto
          120 hmoveto
          120 120 -120 vlineto
          360 -240 rmoveto
          120 120 -120 vlineto
          -840 hmoveto
          120 120 -120 vlineto
          360 hmoveto
          120 120 -120 vlineto
          -360 hmoveto
          120 120 -120 vlineto
          -360 -240 rmoveto
          120 120 -120 vlineto
          600 hmoveto
          120 120 -120 vlineto
          -600 hmoveto
          120 120 -120 vlineto
          120 hmoveto
          120 120 -120 vlineto
          -120 -240 rmoveto
          120 120 -120 vlineto
          -600 hmoveto
          120 120 -120 vlineto
          120 hmoveto
          120 120 -120 vlineto
          360 hmoveto
          120 120 -120 vlineto
          -840 -240 rmoveto
          120 120 -120 vlineto
          120 hmoveto
          120 120 -120 vlineto
          120 hmoveto
          120 120 -120 vlineto
          120 hmoveto
          120 120 -120 vlineto
          -120 -240 rmoveto
          120 120 -120 vlineto
          -360 hmoveto
          120 120 -120 vlineto
          -360 hmoveto
          120 120 -120 vlineto
          -360 hmoveto
          120 120 -120 vlineto
          600 -240 rmoveto
          120 120 -120 vlineto
          -360 hmoveto
          120 120 -120 vlineto
          -360 hmoveto
          120 120 -120 vlineto
          -360 hmoveto
          120 120 -120 vlineto
          -120 -240 rmoveto
          120 120 -120 vlineto
          600 hmoveto
          120 120 -120 vlineto
          -360 hmoveto
          120 120 -120 vlineto
          -360 hmoveto
          120 120 -120 vlineto
          endchar
        </CharString>
        <CharString name="degree">
          0 791 1564 rmoveto
          -60 0 -61 -13 -61 -27 -61 -27 -54 -40 -46 -52 -46 -52 -31 -63 -16 -74 -16 -75 4 -64 24 -53 24 -52 37 -40 49 -28 50 -27 55 -14 60 0 62 0 62 14 61 27 60 27 54 40 46 52 rrcurveto
          46 53 32 64 15 74 16 74 -4 64 -24 52 -24 53 -36 40 -50 27 -49 27 -56 13 -62 0 rrcurveto
          -38 -182 rmoveto
          40 0 33 -14 24 -27 24 -28 6 -42 -12 -57 -12 -57 -24 -43 -36 -27 -36 -27 -38 -13 -41 0 -39 0 -32 13 -25 28 -25 27 -6 43 12 58 12 57 24 42 37 27 36 27 38 13 40 0 rrcurveto
          endchar
        </CharString>
        <CharString name="dieresis">
          0 661 1301 rmoveto
          40 0 37 14 34 27 34 28 21 34 9 40 9 41 -7 35 -22 27 -23 27 -31 14 -40 0 -42 0 -38 -14 -34 -27 -34 -27 -21 -35 -9 -41 -9 -40 7 -34 23 -28 22 -27 32 -14 42 0 rrcurveto
          430 hmoveto
          42 0 38 14 34 27 34 28 21 34 9 40 9 41 -7 35 -23 27 -22 27 -32 14 -42 0 -40 0 -37 -14 -34 -27 -34 -27 -22 -35 -8 -41 -9 -40 7 -34 22 -28 23 -27 31 -14 40 0 rrcurveto
          endchar
        </CharString>
        <CharString name="divide">
          0 1048 490 rmoveto
          32 0 29 11 25 21 26 21 16 25 6 28 6 30 -5 27 -19 23 -18 23 -26 11 -33 0 rrcurveto
          -680 hlineto
          -32 0 -29 -11 -25 -21 -26 -21 -16 -25 -6 -28 -6 -30 6 -27 18 -23 18 -23 26 -11 33 0 rrcurveto
          411 320 rmoveto
          40 0 36 14 33 28 33 28 20 33 8 37 9 40 -7 35 -22 30 -23 30 -32 15 -42 0 -43 0 -37 -14 -34 -28 -33 -28 -21 -33 -8 -39 -8 -39 7 -34 23 -30 22 -30 34 -15 45 0 rrcurveto
          -151 -710 rmoveto
          40 0 36 14 33 28 33 28 20 33 8 37 9 40 -7 35 -22 30 -23 30 -32 15 -42 0 -43 0 -37 -14 -34 -28 -33 -28 -20 -33 -9 -39 -8 -39 7 -34 23 -30 22 -30 34 -15 45 0 rrcurveto
          endchar
        </CharString>
        <CharString name="dollar">
          0 1179 1031 rmoveto
          77 0 47 37 16 75 2 10 1 11 0 12 -2 78 -34 66 -65 53 -21 16 -44 23 -68 31 rrcurveto
          -55 -256 rlineto
          25 -22 14 -21 3 -19 9 -63 34 -31 61 0 rrcurveto
          -767 -1062 rmoveto
          58 273 rlineto
          -24 25 -20 26 -15 25 -25 42 -34 21 -43 0 -41 0 -34 -13 -26 -25 -34 -33 -17 -35 0 -36 0 -6 1 -6 1 -6 21 -90 85 -84 147 -78 rrcurveto
          360 -11 rmoveto
          55 22 29 12 5 3 176 87 103 120 32 153 6 29 3 29 0 27 0 110 -52 91 -106 70 -48 31 -73 32 -98 32 -134 47 -67 66 0 87 0 52 21 49 40 46 rrcurveto
          61 285 rlineto
          -123 -61 -86 -60 -50 -59 -55 -63 -38 -79 -20 -95 -6 -26 -2 -26 0 -24 0 -158 114 -120 230 -82 155 -60 78 -65 0 -70 0 -7 -1 -6 -1 -7 -12 -55 -30 -48 -49 -39 rrcurveto
          81 623 rmoveto
          99 466 49 237 0 7 0 21 -6 19 -14 18 -19 23 -28 12 -39 0 -39 0 -33 -12 -29 -23 -29 -24 -18 -26 -6 -29 rrcurveto
          -121 -569 rlineto
          39 -43 78 -40 116 -37 rrcurveto
          -364 -1105 rmoveto
          39 0 33 12 29 24 29 23 17 26 6 29 rrcurveto
          123 578 rlineto
          -34 35 -78 38 -121 42 -100 -469 -50 -238 0 -6 0 -21 7 -19 14 -18 19 -24 28 -12 39 0 rrcurveto
          endchar
        </CharString>
        <CharString name="dollar_alt">
          0 671 873 rmoveto
          -54 36 -19 56 16 77 8 41 18 35 26 30 27 29 24 16 22 3 rrcurveto
          -351 -1196 rmoveto
          35 -19 30 -10 25 -3 rrcurveto
          -23 -108 rlineto
          -6 -29 6 -26 17 -22 17 -22 25 -11 33 0 32 0 30 11 27 22 27 22 16 26 6 29 rrcurveto
          24 110 rlineto
          42 5 32 7 21 8 80 30 72 47 64 65 60 60 40 75 18 88 32 147 -49 118 -129 90 -33 22 -38 19 -42 18 rrcurveto
          92 436 rlineto
          26 -3 21 -8 16 -14 21 -18 11 -19 3 -20 8 -59 30 -29 53 0 68 0 42 36 15 72 3 12 0 11 0 11 -3 109 -59 79 -116 47 -28 11 -30 7 -32 4 rrcurveto
          22 106 rlineto
          7 29 -6 26 -17 22 -18 22 -25 11 -32 0 -33 0 -29 -11 -27 -22 -27 -22 -16 -26 -7 -29 rrcurveto
          -22 -106 rlineto
          -31 -2 -35 -11 -40 -20 -161 -80 -99 -126 -37 -174 -37 -175 77 -133 190 -91 rrcurveto
          -87 -411 rlineto
          -16 0 -20 13 -23 25 -20 21 -18 23 -16 27 -22 38 -30 19 -37 0 -35 0 -29 -12 -24 -23 -25 -24 -15 -27 -7 -33 -3 -14 0 -14 3 -11 19 -59 44 -60 72 -62 16 -13 20 -13 24 -12 rrcurveto
          443 235 rmoveto
          -26 -21 -24 -11 -23 0 rrcurveto
          69 322 -18 10 rlineto
          84 -44 35 -55 -14 -66 -12 -55 -28 -45 -43 -35 rrcurveto
          endchar
        </CharString>
        <CharString name="downwardsarrow">
          0 711 309 rmoveto
          0 6 0 7 1 8 2 31 1 30 0 29 rrcurveto
          1060 -230 -1060 vlineto
          0 -30 1 -30 3 -30 1 -10 1 -8 0 -7 rrcurveto
          -7 7 rlineto
          -19 19 -25 23 -30 26 rrcurveto
          -415 352 rlineto
          -268 vlineto
          603 -513 607 515 rlineto
          268 vlineto
          -413 -352 rlineto
          -36 -31 -27 -24 -18 -18 rrcurveto
          endchar
        </CharString>
        <CharString name="e">
          0 646 598 rmoveto
          -39 hlineto
          -60 0 -32 1 -6 4 -6 4 -3 3 0 3 0 7 3 11 7 13 32 63 47 54 61 46 62 45 67 23 73 0 52 0 38 -7 23 -14 23 -15 11 -24 0 -36 0 -75 -34 -50 -67 -25 rrcurveto
          -56 -19 -84 -10 -112 -2 rrcurveto
          -26 -648 rmoveto
          108 0 87 14 65 27 65 28 63 43 60 60 30 29 15 28 0 29 0 26 -10 23 -20 19 -20 19 -24 9 -29 0 -29 0 -24 -10 -20 -21 -84 -81 -84 -40 -86 0 -72 0 -60 14 -46 29 rrcurveto
          -46 28 -23 46 0 64 0 19 2 15 3 13 3 13 5 6 7 0 rrcurveto
          173 1 rlineto
          99 2 78 5 55 9 128 21 90 46 54 73 53 72 27 83 0 93 0 93 -32 71 -63 49 -63 49 -77 24 -91 0 -288 0 -199 -124 -110 -249 -23 -56 -19 -62 -13 -66 -13 -67 -7 -59 0 -51 rrcurveto
          3 -271 135 -135 267 0 rrcurveto
          endchar
        </CharString>
        <CharString name="eacute">
          0 730 1245 rmoveto
          12 0 12 3 11 4 rrcurveto
          306 109 rlineto
          45 16 35 42 8 39 1 7 1 8 0 7 0 11 -2 11 -4 11 -14 33 -39 23 -38 0 -19 0 -23 -6 -17 -9 rrcurveto
          -294 -153 rlineto
          -28 -15 -22 -28 -5 -26 -1 -5 0 -6 0 -5 0 -7 1 -8 2 -7 9 -27 31 -22 32 0 rrcurveto
          -84 -647 rmoveto
          -39 hlineto
          -60 0 -32 1 -6 4 -6 4 -3 3 0 3 0 7 3 11 7 13 32 63 47 54 61 46 62 45 67 23 73 0 52 0 38 -7 23 -14 23 -15 11 -24 0 -36 0 -75 -34 -50 -67 -25 rrcurveto
          -56 -19 -84 -10 -112 -2 rrcurveto
          -26 -648 rmoveto
          108 0 87 14 65 27 65 28 63 43 60 60 30 29 15 28 0 29 0 26 -10 23 -20 19 -20 19 -24 9 -29 0 -29 0 -24 -10 -20 -21 -84 -81 -84 -40 -86 0 -72 0 -60 14 -46 29 rrcurveto
          -46 28 -23 46 0 64 0 19 2 15 3 13 3 13 5 6 7 0 rrcurveto
          173 1 rlineto
          99 2 78 5 55 9 128 21 90 46 54 73 53 72 27 83 0 93 0 93 -32 71 -63 49 -63 49 -77 24 -91 0 -288 0 -199 -124 -110 -249 -23 -56 -19 -62 -13 -66 -13 -67 -7 -59 0 -51 rrcurveto
          3 -271 135 -135 267 0 rrcurveto
          endchar
        </CharString>
        <CharString name="ecircumflex">
          0 624 1255 rmoveto
          16 0 22 6 14 9 rrcurveto
          200 113 rlineto
          10 5 6 2 8 0 7 0 3 -1 6 -5 rrcurveto
          155 -113 rlineto
          14 -10 19 -5 17 0 24 0 30 12 19 18 16 15 12 20 4 18 1 5 0 7 0 5 0 17 -7 19 -13 13 rrcurveto
          -145 144 rlineto
          -30 31 -47 19 -48 0 -46 0 -53 -18 -40 -28 rrcurveto
          -208 -144 rlineto
          -22 -16 -16 -25 -6 -22 -1 -5 0 -6 0 -6 0 -13 4 -15 8 -12 13 -20 28 -14 26 0 rrcurveto
          22 -657 rmoveto
          -39 hlineto
          -60 0 -32 1 -6 4 -6 4 -3 3 0 3 0 7 3 11 7 13 32 63 47 54 61 46 62 45 67 23 73 0 52 0 38 -7 23 -14 23 -15 11 -24 0 -36 0 -75 -34 -50 -67 -25 rrcurveto
          -56 -19 -84 -10 -112 -2 rrcurveto
          -26 -648 rmoveto
          108 0 87 14 65 27 65 28 63 43 60 60 30 29 15 28 0 29 0 26 -10 23 -20 19 -20 19 -24 9 -29 0 -29 0 -24 -10 -20 -21 -84 -81 -84 -40 -86 0 -72 0 -60 14 -46 29 rrcurveto
          -46 28 -23 46 0 64 0 19 2 15 3 13 3 13 5 6 7 0 rrcurveto
          173 1 rlineto
          99 2 78 5 55 9 128 21 90 46 54 73 53 72 27 83 0 93 0 93 -32 71 -63 49 -63 49 -77 24 -91 0 -288 0 -199 -124 -110 -249 -23 -56 -19 -62 -13 -66 -13 -67 -7 -59 0 -51 rrcurveto
          3 -271 135 -135 267 0 rrcurveto
          endchar
        </CharString>
        <CharString name="edieresis">
          0 656 1253 rmoveto
          40 0 36 13 32 25 43 36 22 42 0 50 0 26 -8 23 -16 19 -24 29 -33 14 -42 0 -41 0 -37 -13 -32 -25 -43 -35 -22 -42 0 -51 0 -26 8 -22 16 -20 23 -29 34 -14 44 0 rrcurveto
          430 hmoveto
          42 0 37 13 32 25 43 36 22 42 0 49 0 26 -8 23 -16 20 -24 29 -33 14 -44 0 -40 0 -36 -13 -32 -25 -44 -34 -22 -43 0 -50 0 -26 8 -23 16 -20 24 -29 33 -14 42 0 rrcurveto
          -440 -655 rmoveto
          -39 hlineto
          -60 0 -32 1 -6 4 -6 4 -3 3 0 3 0 7 3 11 7 13 32 63 47 54 61 46 62 45 67 23 73 0 52 0 38 -7 23 -14 23 -15 11 -24 0 -36 0 -75 -34 -50 -67 -25 rrcurveto
          -56 -19 -84 -10 -112 -2 rrcurveto
          -26 -648 rmoveto
          108 0 87 14 65 27 65 28 63 43 60 60 30 29 15 28 0 29 0 26 -10 23 -20 19 -20 19 -24 9 -29 0 -29 0 -24 -10 -20 -21 -84 -81 -84 -40 -86 0 -72 0 -60 14 -46 29 rrcurveto
          -46 28 -23 46 0 64 0 19 2 15 3 13 3 13 5 6 7 0 rrcurveto
          173 1 rlineto
          99 2 78 5 55 9 128 21 90 46 54 73 53 72 27 83 0 93 0 93 -32 71 -63 49 -63 49 -77 24 -91 0 -288 0 -199 -124 -110 -249 -23 -56 -19 -62 -13 -66 -13 -67 -7 -59 0 -51 rrcurveto
          3 -271 135 -135 267 0 rrcurveto
          endchar
        </CharString>
        <CharString name="egrave">
          0 1030 1245 rmoveto
          29 0 35 19 20 25 8 12 6 13 3 13 rrcurveto
          2 15 rlineto
          0 21 -12 23 -19 13 rrcurveto
          -228 153 rlineto
          -16 11 -23 6 -19 0 -37 0 -42 -20 -27 -31 -12 -17 -10 -19 -4 -18 -1 -7 -1 -8 0 -7 0 -32 20 -34 33 -15 rrcurveto
          261 -109 rlineto
          9 -4 13 -3 12 0 rrcurveto
          -384 -647 rmoveto
          -39 hlineto
          -60 0 -32 1 -6 4 -6 4 -3 3 0 3 0 7 3 11 7 13 32 63 47 54 61 46 62 45 67 23 73 0 52 0 38 -7 23 -14 23 -15 11 -24 0 -36 0 -75 -34 -50 -67 -25 rrcurveto
          -56 -19 -84 -10 -112 -2 rrcurveto
          -26 -648 rmoveto
          108 0 87 14 65 27 65 28 63 43 60 60 30 29 15 28 0 29 0 26 -10 23 -20 19 -20 19 -24 9 -29 0 -29 0 -24 -10 -20 -21 -84 -81 -84 -40 -86 0 -72 0 -60 14 -46 29 rrcurveto
          -46 28 -23 46 0 64 0 19 2 15 3 13 3 13 5 6 7 0 rrcurveto
          173 1 rlineto
          99 2 78 5 55 9 128 21 90 46 54 73 53 72 27 83 0 93 0 93 -32 71 -63 49 -63 49 -77 24 -91 0 -288 0 -199 -124 -110 -249 -23 -56 -19 -62 -13 -66 -13 -67 -7 -59 0 -51 rrcurveto
          3 -271 135 -135 267 0 rrcurveto
          endchar
        </CharString>
        <CharString name="eight">
          0 618 166 rmoveto
          -130 0 -65 45 0 91 0 144 90 111 180 77 151 -35 75 -64 0 -91 0 -21 -3 -21 -5 -23 -29 -142 -98 -71 -166 0 rrcurveto
          -37 -216 rmoveto
          137 0 119 35 101 71 100 70 65 98 30 127 9 35 4 36 0 36 0 122 -59 101 -117 78 47 32 58 47 70 62 75 69 37 51 1 33 0 27 -21 14 -42 0 -24 0 -130 -73 -235 -147 rrcurveto
          -6 -4 -8 -2 -10 0 -15 0 -16 3 -17 6 -81 25 -41 43 0 61 0 17 2 15 5 15 37 119 94 64 151 9 15 0 7 -8 0 -16 0 -19 -8 -23 -17 -27 -4 -7 -2 -7 0 -9 rrcurveto
          0 -31 26 -16 51 0 46 0 39 17 33 34 32 33 16 39 0 45 0 65 -17 45 -34 25 -53 43 -62 22 -70 0 -121 0 -108 -36 -94 -72 -94 -72 -61 -91 -27 -109 -6 -27 -3 -28 0 -27 rrcurveto
          0 -97 45 -81 89 -65 rrcurveto
          -2 -1 rlineto
          -165 -85 -106 -129 -47 -172 -6 -33 -3 -33 0 -35 0 -91 33 -74 66 -57 65 -57 98 -28 129 0 rrcurveto
          endchar
        </CharString>
        <CharString name="ellipsis">
          0 192 -35 rmoveto
          38 0 34 13 32 27 32 26 20 32 8 37 8 37 -7 32 -20 27 -21 26 -29 13 -37 0 -37 0 -35 -13 -32 -26 -32 -27 -20 -32 -7 -37 -8 -37 6 -32 21 -26 20 -27 29 -13 37 0 rrcurveto
          400 hmoveto
          38 0 34 13 32 27 32 26 20 32 8 37 8 37 -7 32 -20 27 -21 26 -29 13 -37 0 -37 0 -35 -13 -32 -26 -32 -27 -20 -32 -7 -37 -8 -37 6 -32 21 -26 20 -27 29 -13 37 0 rrcurveto
          400 hmoveto
          38 0 34 13 32 27 32 26 20 32 8 37 8 37 -7 32 -20 27 -21 26 -29 13 -37 0 -37 0 -35 -13 -32 -26 -32 -27 -20 -32 -7 -37 -8 -37 6 -32 21 -26 20 -27 29 -13 37 0 rrcurveto
          endchar
        </CharString>
        <CharString name="emdash">
          0 1248 490 rmoveto
          32 0 29 11 25 21 26 21 16 25 6 28 6 30 -5 27 -19 23 -18 23 -26 11 -33 0 rrcurveto
          -1080 hlineto
          -32 0 -29 -11 -25 -21 -26 -21 -16 -25 -6 -28 -6 -30 6 -27 18 -23 18 -23 26 -11 33 0 rrcurveto
          endchar
        </CharString>
        <CharString name="equal">
          0 1006 290 rmoveto
          32 0 28 10 25 21 34 28 17 33 0 38 0 20 -6 18 -13 17 -19 23 -26 12 -34 0 rrcurveto
          -680 hlineto
          -32 0 -28 -10 -25 -21 -34 -28 -17 -33 0 -38 0 -20 6 -18 13 -16 19 -24 26 -12 34 0 rrcurveto
          765 400 rmoveto
          32 0 28 10 25 21 34 28 17 33 0 38 0 20 -6 18 -13 17 -19 23 -26 12 -34 0 rrcurveto
          -680 hlineto
          -32 0 -28 -10 -25 -21 -34 -28 -17 -33 0 -38 0 -20 6 -18 13 -16 19 -24 26 -12 34 0 rrcurveto
          endchar
        </CharString>
        <CharString name="equal_equal">
          0 1133 910 rmoveto
          -1880 hlineto
          -32 0 -30 -11 -27 -22 -26 -22 -17 -26 -6 -29 -6 -29 5 -26 18 -22 17 -22 25 -11 33 0 rrcurveto
          1880 hlineto
          32 0 30 11 27 22 26 22 17 26 6 29 6 29 -5 26 -18 22 -17 22 -25 11 -33 0 rrcurveto
          -85 -400 rmoveto
          -1880 hlineto
          -32 0 -30 -11 -27 -22 -26 -22 -17 -26 -6 -29 -6 -29 5 -26 18 -22 17 -22 25 -11 33 0 rrcurveto
          1880 hlineto
          32 0 30 11 27 22 26 22 17 26 6 29 6 29 -5 26 -18 22 -17 22 -25 11 -33 0 rrcurveto
          endchar
        </CharString>
        <CharString name="equal_equal_equal">
          0 1155 1010 rmoveto
          -3080 hlineto
          -37 0 -30 -10 -25 -20 -24 -20 -14 -20 -4 -20 -5 -20 6 -20 16 -20 16 -20 26 -10 36 0 rrcurveto
          3080 hlineto
          37 0 30 10 25 20 24 20 14 20 5 20 4 20 -6 20 -16 20 -16 20 -26 10 -36 0 rrcurveto
          -136 -640 rmoveto
          -3080 hlineto
          -37 0 -30 -10 -25 -20 -24 -20 -14 -20 -4 -20 -5 -20 6 -20 16 -20 16 -20 26 -10 36 0 rrcurveto
          3080 hlineto
          37 0 30 10 25 20 24 20 14 20 5 20 4 20 -6 20 -16 20 -16 20 -26 10 -36 0 rrcurveto
          68 320 rmoveto
          -3080 hlineto
          -37 0 -30 -10 -25 -20 -24 -20 -14 -20 -4 -20 -5 -20 6 -20 16 -20 16 -20 26 -10 36 0 rrcurveto
          3080 hlineto
          37 0 30 10 25 20 24 20 14 20 5 20 4 20 -6 20 -16 20 -16 20 -26 10 -36 0 rrcurveto
          endchar
        </CharString>
        <CharString name="eth">
          0 633 170 rmoveto
          -49 0 -39 12 -29 25 -29 25 -17 28 -6 31 -7 31 -3 27 0 21 0 27 3 27 6 29 16 77 31 58 45 41 45 41 57 20 69 0 26 0 26 -2 27 -5 57 -9 41 -28 25 -47 rrcurveto
          7 -15 3 -20 0 -24 0 -70 -21 -70 -43 -71 -28 -47 -34 -38 -41 -29 -41 -30 -46 -15 -51 0 rrcurveto
          361 665 rmoveto
          -27 20 -33 18 -41 14 -44 15 -48 8 -51 0 -79 0 -74 -15 -70 -30 -70 -31 -60 -47 -51 -63 -51 -63 -36 -81 -21 -98 -11 -53 -5 -50 0 -47 0 -136 43 -103 86 -71 59 -48 82 -24 103 0 rrcurveto
          99 0 89 24 79 49 79 48 67 74 57 101 57 101 45 129 33 158 20 93 10 86 0 79 0 189 -49 139 -97 88 rrcurveto
          39 33 rlineto
          34 30 17 32 0 35 0 19 -7 19 -13 18 -21 24 -26 12 -32 0 -29 0 -29 -11 -29 -22 rrcurveto
          -94 -77 rlineto
          -59 20 -75 10 -91 0 rrcurveto
          -39 hlineto
          -31 0 -28 -11 -24 -21 -33 -29 -16 -32 0 -36 0 -19 6 -17 11 -15 18 -23 25 -13 33 -2 33 0 24 -1 15 -1 -5 -5 -18 -15 -30 -26 -31 -26 -15 -30 0 -35 0 -20 6 -19 13 -18 rrcurveto
          21 -24 26 -12 31 0 30 0 30 11 29 23 rrcurveto
          140 115 rlineto
          39 -31 30 -49 20 -67 11 -45 6 -39 0 -33 0 -28 -1 -17 -1 -5 rrcurveto
          endchar
        </CharString>
        <CharString name="exclam">
          0 695 445 rmoveto
          31 0 30 11 29 22 28 21 17 24 7 25 133 544 66 275 0 8 0 24 -8 22 -18 22 -23 28 -32 14 -39 0 -40 0 -37 -14 -35 -28 -35 -29 -20 -30 -7 -31 -99 -540 -49 -273 0 -4 rrcurveto
          0 -21 8 -19 17 -18 19 -22 26 -11 31 0 rrcurveto
          -102 -499 rmoveto
          57 0 52 19 45 39 57 50 29 56 0 63 0 34 -10 31 -21 28 -29 39 -43 19 -57 0 -60 0 -53 -19 -46 -39 -59 -50 -30 -56 0 -61 0 -35 12 -31 22 -29 29 -39 45 -19 60 0 rrcurveto
          endchar
        </CharString>
        <CharString name="exclam_exclam">
          0 495 445 rmoveto
          31 0 30 11 29 22 28 21 17 24 7 25 133 544 66 275 0 8 0 24 -8 22 -18 22 -23 28 -32 14 -39 0 -40 0 -37 -14 -35 -28 -35 -29 -20 -30 -7 -31 -99 -540 -49 -273 0 -4 rrcurveto
          0 -21 8 -19 17 -18 19 -22 26 -11 31 0 rrcurveto
          -902 -499 rmoveto
          57 0 52 19 45 39 57 50 29 56 0 63 0 34 -10 31 -21 28 -29 39 -43 19 -57 0 -60 0 -53 -19 -46 -39 -59 -50 -30 -56 0 -61 0 -35 12 -31 22 -29 29 -39 45 -19 60 0 rrcurveto
          102 499 rmoveto
          31 0 30 11 29 22 28 21 17 24 7 25 133 544 66 275 0 8 0 24 -8 22 -18 22 -23 28 -32 14 -39 0 -40 0 -37 -14 -35 -28 -35 -29 -20 -30 -7 -31 -99 -540 -49 -273 0 -4 rrcurveto
          0 -21 8 -19 17 -18 19 -22 26 -11 31 0 rrcurveto
          698 -499 rmoveto
          57 0 52 19 45 39 57 50 29 56 0 63 0 34 -10 31 -21 28 -29 39 -43 19 -57 0 -60 0 -53 -19 -46 -39 -59 -50 -30 -56 0 -61 0 -35 12 -31 22 -29 29 -39 45 -19 60 0 rrcurveto
          endchar
        </CharString>
        <CharString name="exclamdown">
          0 712 527 rmoveto
          -28 0 -27 -10 -25 -20 -25 -20 -16 -24 -8 -30 rrcurveto
          -196 -805 rlineto
          -8 -35 7 -31 20 -27 20 -27 28 -13 37 0 35 0 34 13 32 26 31 27 20 31 8 35 rrcurveto
          146 806 rlineto
          4 30 -6 24 -16 20 -17 20 -22 10 -28 0 rrcurveto
          110 499 rmoveto
          -54 0 -49 -19 -44 -37 -44 -37 -27 -45 -11 -51 -11 -53 8 -45 28 -37 29 -37 41 -19 53 0 51 0 47 19 44 37 43 37 28 45 11 53 11 51 -9 45 -27 37 -28 37 -39 19 -51 0 rrcurveto
          endchar
        </CharString>
        <CharString name="f">
          0 136 -477 rmoveto
          119 0 103 40 86 79 93 79 66 126 39 172 rrcurveto
          169 786 rlineto
          1 8 4 6 6 4 5 5 6 2 5 0 rrcurveto
          356 hlineto
          32 0 29 11 26 21 33 27 16 33 0 37 0 21 -6 19 -13 15 -18 24 -26 12 -35 0 rrcurveto
          -356 hlineto
          -3 0 -2 1 -2 3 -2 2 -1 2 0 2 rrcurveto
          24 104 rlineto
          10 45 23 39 34 33 35 32 40 16 44 0 rrcurveto
          168 hlineto
          32 0 29 11 26 21 33 27 16 33 0 37 0 21 -6 19 -13 15 -18 24 -26 12 -35 0 rrcurveto
          -206 hlineto
          -66 0 -61 -16 -58 -32 -57 -32 -48 -42 -39 -51 -39 -50 -27 -57 -14 -61 rrcurveto
          -31 -139 rlineto
          -1 -4 -3 -4 -5 -5 -6 -4 -5 -2 -5 0 rrcurveto
          -145 hlineto
          -32 0 -28 -11 -26 -21 -33 -27 -17 -32 0 -37 0 -22 7 -19 13 -16 18 -23 26 -12 34 0 rrcurveto
          144 hlineto
          3 0 2 -1 2 -2 2 -3 1 -3 0 -4 0 -8 -56 -262 -111 -517 -21 -96 -35 -76 -47 -55 -48 -55 -55 -28 -63 0 -81 0 -41 -34 0 -69 0 -63 37 -31 75 0 rrcurveto
          endchar
        </CharString>
        <CharString name="five">
          0 575 -50 rmoveto
          331 0 186 163 41 327 6 49 3 39 0 27 -4 223 -150 111 -294 0 rrcurveto
          -60 hlineto
          -7 0 -3 3 0 7 rrcurveto
          92 290 rlineto
          3 10 5 5 5 0 342 1 185 23 30 43 9 13 5 20 0 25 0 20 -6 16 -12 12 -27 27 -215 15 -404 1 -70 0 -41 -26 -13 -53 -102 -375 -51 -192 0 -7 2 -21 7 -19 13 -17 rrcurveto
          20 -25 28 -13 35 0 rrcurveto
          164 hlineto
          174 -1 88 -55 2 -109 0 -68 -9 -54 -18 -37 -51 -117 -104 -59 -156 -2 -128 0 -89 40 -52 81 -26 44 -28 22 -29 0 -42 0 -21 -32 0 -64 0 -32 4 -25 8 -16 75 -159 142 -79 207 0 rrcurveto
          endchar
        </CharString>
        <CharString name="four">
          0 980 490 rmoveto
          17 105 19 53 21 0 12 0 9 -7 7 -14 11 -20 5 -19 0 -19 -1 -53 -33 -26 -67 0 rrcurveto
          -523 7 rmoveto
          16 21 149 178 283 336 rrcurveto
          223 243 rlineto
          19 21 9 27 0 33 0 24 -6 19 -12 15 -17 24 -23 12 -27 0 -49 0 -44 -21 -37 -43 rrcurveto
          -763 -868 rlineto
          -24 -29 -15 -38 -6 -49 0 -36 13 -31 26 -25 26 -25 33 -13 40 0 rrcurveto
          442 hlineto
          -50 -226 rlineto
          0 -25 9 -23 18 -19 18 -19 24 -10 30 0 33 0 29 11 26 21 25 21 17 26 7 30 rrcurveto
          48 214 rlineto
          116 3 78 21 40 40 59 58 30 85 1 112 0 95 -29 76 -57 57 -39 37 -49 19 -60 0 -138 0 -94 -127 -50 -254 rrcurveto
          endchar
        </CharString>
        <CharString name="fullblock">
          0 -600 vmoveto
          1200 2640 -1200 hlineto
          endchar
        </CharString>
        <CharString name="g">
          0 603 188 rmoveto
          -70 0 -46 20 -22 41 -22 41 -11 44 0 48 0 38 5 44 11 50 53 230 104 117 155 4 55 0 43 -17 31 -35 31 -35 15 -40 0 -45 0 -18 -2 -20 -5 -22 rrcurveto
          -45 -211 rlineto
          -12 -57 -35 -56 -60 -53 -53 -45 -58 -23 -62 0 rrcurveto
          -141 -688 rmoveto
          137 0 118 39 101 79 100 79 65 107 29 136 150 706 75 357 0 9 0 21 -6 18 -11 13 -16 24 -26 12 -36 0 -63 0 -42 -29 -22 -59 -5 -13 -2 -7 1 0 2 0 1 0 -1 1 rrcurveto
          -52 71 -82 35 -111 0 -135 0 -115 -50 -94 -99 -95 -100 -69 -149 -44 -198 -13 -62 -7 -59 0 -54 0 -85 17 -73 33 -61 56 -106 96 -53 136 0 92 0 81 25 71 49 12 8 9 4 6 0 rrcurveto
          -2 0 -1 -1 0 -1 0 -4 -11 -48 -22 -94 -9 -44 -27 -40 -46 -36 -46 -36 -63 -19 -78 -1 -58 0 -46 8 -33 17 -34 17 -32 27 -31 38 -18 21 -24 10 -30 0 -30 0 -32 -16 -33 -31 rrcurveto
          -25 -23 -12 -27 0 -31 0 -17 5 -16 10 -15 80 -116 129 -58 178 0 rrcurveto
          endchar
        </CharString>
        <CharString name="germandbls">
          0 719 -45 rmoveto
          73 0 74 15 66 29 68 30 61 45 48 57 49 56 33 71 17 81 16 71 -1 63 -19 50 -17 46 -28 43 -38 35 -32 29 -35 29 -35 26 -34 23 -26 23 -22 24 -18 22 -6 22 7 31 rrcurveto
          6 30 14 23 25 20 27 23 30 23 35 24 35 25 34 29 29 31 34 36 21 46 11 51 20 91 -21 79 -59 61 -59 60 -93 32 -115 0 -138 0 -120 -41 -95 -79 -93 -79 -64 -116 -31 -148 rrcurveto
          -212 -995 rlineto
          -13 -62 47 -60 68 0 65 0 67 55 12 60 rrcurveto
          215 1007 rlineto
          21 100 32 67 42 38 45 42 50 18 68 0 41 0 25 -7 19 -13 19 -14 11 -16 5 -22 6 -23 0 -21 -5 -22 -8 -37 -15 -26 -24 -22 -30 -27 -29 -23 -33 -22 -38 -27 -34 -28 -30 -32 rrcurveto
          -31 -33 -22 -45 -10 -50 -12 -56 4 -49 20 -38 20 -38 29 -34 34 -27 rrcurveto
          101 -78 rlineto
          32 -24 23 -27 18 -32 17 -31 4 -36 -10 -48 -14 -66 -26 -45 -40 -31 -40 -31 -45 -14 -60 0 -25 0 -24 4 -27 8 -6 1 -6 3 -7 2 -10 4 -14 3 -11 0 -35 0 -41 -21 -23 -30 rrcurveto
          -10 -14 -8 -16 -3 -14 -8 -37 18 -43 40 -16 rrcurveto
          35 -13 rlineto
          44 -12 52 -6 56 0 rrcurveto
          endchar
        </CharString>
        <CharString name="grave">
          0 973 1000 rmoveto
          29 0 29 11 27 21 33 30 17 32 0 34 0 20 -6 19 -12 18 rrcurveto
          -244 309 rlineto
          -22 24 -26 12 -31 0 -30 0 -29 -11 -29 -22 -32 -28 -17 -31 0 -34 0 -20 7 -20 12 -19 rrcurveto
          243 -308 rlineto
          22 -25 27 -12 32 0 rrcurveto
          endchar
        </CharString>
        <CharString name="greater">
          0 286 127 rmoveto
          17 0 17 4 19 7 rrcurveto
          770 364 rlineto
          55 28 27 39 0 50 0 35 -15 26 -31 17 rrcurveto
          -615 355 rlineto
          -17 9 -18 5 -18 0 -30 0 -28 -10 -25 -21 -35 -28 -17 -32 0 -36 0 -32 16 -27 30 -22 rrcurveto
          420 -250 rlineto
          2 -1 1 -1 0 -1 0 -6 -4 -4 -7 -4 rrcurveto
          -529 -254 rlineto
          -56 -30 -28 -39 0 -48 0 -21 7 -19 14 -17 19 -24 26 -12 33 0 rrcurveto
          endchar
        </CharString>
        <CharString name="greater_equal">
          0 -377 367 rmoveto
          15 0 17 4 19 7 rrcurveto
          1111 423 rlineto
          44 18 26 31 10 46 3 10 1 10 0 9 0 33 -16 25 -32 15 rrcurveto
          -932 416 rlineto
          -19 8 -17 4 -15 0 -29 0 -28 -9 -26 -17 -25 -18 -17 -26 -8 -36 -2 -10 -1 -9 0 -9 0 -35 17 -26 33 -15 rrcurveto
          736 -310 rlineto
          0 1 0 0 0 -1 0 -7 -2 -5 -5 -2 rrcurveto
          -870 -314 rlineto
          -46 -17 -28 -33 -11 -48 -2 -9 0 -9 0 -8 0 -24 8 -20 15 -14 22 -19 25 -10 29 0 rrcurveto
          -100 -487 rmoveto
          14 0 15 3 16 7 rrcurveto
          1119 464 rlineto
          46 19 28 32 10 45 2 9 1 9 0 8 0 7 -1 7 -1 6 -13 45 -32 23 -53 0 -16 0 -16 -3 -16 -7 rrcurveto
          -1119 -464 rlineto
          -58 -23 -29 -41 0 -60 0 -57 35 -29 68 0 rrcurveto
          endchar
        </CharString>
        <CharString name="greater_greater">
          0 131 123 rmoveto
          22 0 22 5 22 10 rrcurveto
          768 362 rlineto
          23 11 20 14 16 19 20 24 10 24 1 25 0 36 -16 28 -31 18 rrcurveto
          -615 355 rlineto
          -19 11 -21 5 -21 0 -33 0 -32 -12 -31 -24 -38 -30 -19 -31 0 -32 0 -13 2 -13 6 -14 8 -19 13 -16 18 -11 rrcurveto
          421 -250 rlineto
          3 13 4 6 3 0 2 0 0 -1 0 -3 0 -13 -5 -9 -10 -5 rrcurveto
          -530 -254 rlineto
          -23 -11 -19 -16 -16 -19 -22 -25 -10 -24 -1 -23 0 -21 9 -20 17 -20 21 -25 27 -12 34 0 rrcurveto
          -386 474 rmoveto
          3 8 rlineto
          -1 hlineto
          898 -8 rmoveto
          3 8 rlineto
          -1 hlineto
          -1416 -482 rmoveto
          22 0 22 5 22 10 rrcurveto
          768 362 rlineto
          23 11 20 14 16 19 20 24 10 24 1 25 0 36 -16 28 -31 18 rrcurveto
          -615 355 rlineto
          -19 11 -21 5 -21 0 -33 0 -32 -12 -31 -24 -38 -30 -19 -31 0 -32 0 -13 2 -13 6 -14 8 -19 13 -16 18 -11 rrcurveto
          421 -250 rlineto
          3 13 4 6 3 0 2 0 0 -1 0 -3 0 -13 -5 -9 -10 -5 rrcurveto
          -530 -254 rlineto
          -23 -11 -19 -16 -16 -19 -22 -25 -10 -24 -1 -23 0 -21 9 -20 17 -20 21 -25 27 -12 34 0 rrcurveto
          endchar
        </CharString>
        <CharString name="greater_greater_greater">
          0 -1819 123 rmoveto
          22 0 22 5 22 10 rrcurveto
          768 362 rlineto
          23 11 20 14 16 19 20 24 10 24 1 25 0 36 -16 28 -31 18 rrcurveto
          -615 355 rlineto
          -19 11 -21 5 -21 0 -33 0 -32 -12 -31 -24 -38 -30 -19 -31 0 -32 0 -13 2 -13 6 -14 8 -19 13 -16 18 -11 rrcurveto
          421 -250 rlineto
          3 13 4 6 3 0 2 0 0 -1 0 -3 0 -13 -5 -9 -10 -5 rrcurveto
          -530 -254 rlineto
          -23 -11 -19 -16 -16 -19 -22 -25 -10 -24 -1 -23 0 -21 9 -20 17 -20 21 -25 27 -12 34 0 rrcurveto
          1414 474 rmoveto
          3 8 rlineto
          -1 hlineto
          898 -8 rmoveto
          3 8 rlineto
          -1 hlineto
          -1802 -8 rmoveto
          3 8 rlineto
          -1 hlineto
          384 -482 rmoveto
          22 0 22 5 22 10 rrcurveto
          768 362 rlineto
          23 11 20 14 16 19 20 24 10 24 1 25 0 36 -16 28 -31 18 rrcurveto
          -615 355 rlineto
          -19 11 -21 5 -21 0 -33 0 -32 -12 -31 -24 -38 -30 -19 -31 0 -32 0 -13 2 -13 6 -14 8 -19 13 -16 18 -11 rrcurveto
          421 -250 rlineto
          3 13 4 6 3 0 2 0 0 -1 0 -3 0 -13 -5 -9 -10 -5 rrcurveto
          -530 -254 rlineto
          -23 -11 -19 -16 -16 -19 -22 -25 -10 -24 -1 -23 0 -21 9 -20 17 -20 21 -25 27 -12 34 0 rrcurveto
          900 hmoveto
          22 0 22 5 22 10 rrcurveto
          768 362 rlineto
          23 11 20 14 16 19 20 24 10 24 1 25 0 36 -16 28 -31 18 rrcurveto
          -615 355 rlineto
          -19 11 -21 5 -21 0 -33 0 -32 -12 -31 -24 -38 -30 -19 -31 0 -32 0 -13 2 -13 6 -14 8 -19 13 -16 18 -11 rrcurveto
          421 -250 rlineto
          3 13 4 6 3 0 2 0 0 -1 0 -3 0 -13 -5 -9 -10 -5 rrcurveto
          -530 -254 rlineto
          -23 -11 -19 -16 -16 -19 -22 -25 -10 -24 -1 -23 0 -21 9 -20 17 -20 21 -25 27 -12 34 0 rrcurveto
          endchar
        </CharString>
        <CharString name="guillemotleft">
          0 538 99 rmoveto
          17 0 23 6 17 10 32 18 25 35 7 30 3 17 -1 20 -7 15 rrcurveto
          -136 324 rlineto
          -4 9 -1 6 2 11 3 10 3 6 8 9 rrcurveto
          274 325 rlineto
          13 15 10 21 4 17 6 30 -10 35 -24 18 -13 10 -20 6 -17 0 -27 0 -34 -14 -23 -22 rrcurveto
          -343 -330 rlineto
          -39 -38 -28 -51 -11 -48 -10 -48 7 -53 24 -37 rrcurveto
          202 -327 rlineto
          14 -21 28 -14 26 0 rrcurveto
          437 hmoveto
          17 0 21 5 31 17 rrcurveto
          1 vlineto
          19 11 25 35 7 30 3 17 -1 20 -7 15 rrcurveto
          -136 324 rlineto
          -4 9 -1 6 2 11 3 10 3 6 8 9 rrcurveto
          274 325 rlineto
          13 15 10 21 4 17 6 30 -10 35 -25 18 -13 10 -19 6 -17 0 -27 0 -34 -14 -23 -22 rrcurveto
          -345 -330 rlineto
          -38 -37 -30 -51 -11 -49 -10 -48 8 -53 24 -37 rrcurveto
          204 -327 rlineto
          14 -22 29 -13 26 0 rrcurveto
          endchar
        </CharString>
        <CharString name="guillemotright">
          0 696 99 rmoveto
          27 0 33 14 23 21 rrcurveto
          342 327 rlineto
          40 37 29 53 10 48 10 48 -7 51 -23 38 rrcurveto
          -203 330 rlineto
          -13 22 -28 14 -27 0 -17 0 -22 -6 -18 -10 -31 -18 -25 -35 -7 -30 -3 -17 1 -21 6 -15 rrcurveto
          137 -325 rlineto
          4 -9 0 -6 -2 -10 -2 -11 -3 -6 -8 -9 rrcurveto
          -274 -324 rlineto
          -13 -15 -10 -20 -4 -17 -6 -30 10 -35 24 -18 13 -10 20 -6 17 0 rrcurveto
          -436 hmoveto
          26 0 34 13 23 22 rrcurveto
          344 327 rlineto
          39 37 31 53 10 48 10 49 -8 51 -23 37 rrcurveto
          -205 330 rlineto
          -13 22 -28 14 -27 0 -17 0 -22 -6 -17 -10 -32 -18 -25 -35 -7 -30 -3 -17 1 -21 6 -15 rrcurveto
          137 -325 rlineto
          4 -9 0 -6 -2 -10 -2 -11 -3 -6 -8 -9 rrcurveto
          -274 -324 rlineto
          -13 -15 -10 -20 -4 -17 -6 -30 10 -35 15 -11 rrcurveto
          -1 -1 rlineto
          23 -17 20 -5 17 0 rrcurveto
          endchar
        </CharString>
        <CharString name="h">
          0 920 689 rmoveto
          -1 -17 -3 -17 -4 -19 -68 -298 -34 -156 -2 -12 -2 -19 -1 -17 0 -15 0 -30 11 -31 21 -32 33 -50 54 -25 74 -1 60 0 59 24 57 49 59 52 30 47 0 44 0 15 -6 15 -11 14 rrcurveto
          -11 15 -16 7 -23 0 -33 0 -28 -14 -24 -28 -19 -23 -20 -12 -20 0 -11 0 -6 3 0 7 0 11 36 159 73 307 3 14 4 23 5 30 5 31 3 34 0 38 0 75 -16 60 -31 44 rrcurveto
          -50 73 -86 36 -121 0 -104 -1 -108 -49 -112 -95 -5 -4 -1 -2 1 0 10 0 5 -2 0 -5 0 2 19 91 38 180 33 154 16 80 0 8 0 21 -7 19 -13 16 -19 25 -27 12 -34 0 rrcurveto
          -31 0 -29 -11 -26 -22 -27 -22 -17 -26 -7 -32 -196 -918 -98 -466 0 -14 0 -20 6 -18 12 -16 19 -23 27 -12 36 0 37 0 30 11 22 21 22 21 15 26 7 32 rrcurveto
          117 548 rlineto
          18 84 48 66 77 47 64 37 61 19 56 0 84 0 42 -49 0 -97 0 -9 0 -9 -1 -9 rrcurveto
          endchar
        </CharString>
        <CharString name="hyphen">
          0 948 490 rmoveto
          32 0 29 11 25 21 26 21 16 25 6 28 6 30 -5 27 -19 23 -18 23 -26 11 -33 0 rrcurveto
          -480 hlineto
          -32 0 -29 -11 -25 -21 -26 -21 -16 -25 -6 -28 -6 -30 6 -27 18 -23 18 -23 26 -11 33 0 rrcurveto
          endchar
        </CharString>
        <CharString name="hyphenminus">
          0 1043 486 rmoveto
          35 0 33 12 31 25 38 29 19 32 0 33 0 21 -8 21 -16 19 -20 24 -28 12 -35 0 rrcurveto
          -680 hlineto
          -35 0 -33 -12 -31 -24 -37 -30 -19 -32 0 -35 0 -20 8 -20 15 -18 20 -25 28 -12 35 0 rrcurveto
          endchar
        </CharString>
        <CharString name="i">
          0 694 -50 rmoveto
          90 0 88 23 84 47 85 47 94 78 103 110 13 14 6 19 0 23 0 18 -7 16 -15 16 -15 15 -21 8 -26 0 -24 0 -20 -7 -16 -15 -66 -63 -54 -45 -41 -26 -42 -26 -46 -13 -50 0 rrcurveto
          -38 0 -19 20 -1 40 1 40 30 121 59 201 51 187 26 98 0 10 0 43 -12 38 -23 33 -24 33 -32 17 -41 0 -11 0 -143 -37 -276 -74 -85 -22 -43 -51 0 -79 0 -30 9 -22 19 -15 rrcurveto
          18 -15 20 -8 19 0 11 0 61 19 109 37 109 37 57 19 3 0 0 0 0 -2 0 -3 0 -8 -26 -93 -52 -179 -58 -192 -29 -136 0 -79 0 -125 64 -62 127 0 rrcurveto
          159 1265 rmoveto
          45 0 42 16 39 33 51 42 26 51 2 60 0 30 -9 26 -18 22 -24 37 -37 18 -50 0 -47 0 -44 -16 -40 -33 -49 -43 -25 -49 -2 -57 1 -31 8 -28 17 -25 27 -35 38 -18 49 0 rrcurveto
          endchar
        </CharString>
        <CharString name="iacute">
          0 730 1245 rmoveto
          12 0 12 3 11 4 rrcurveto
          306 109 rlineto
          45 16 35 42 8 39 1 7 1 8 0 7 0 11 -2 11 -4 11 -14 33 -39 23 -38 0 -19 0 -23 -6 -17 -9 rrcurveto
          -294 -153 rlineto
          -28 -15 -22 -28 -5 -26 -1 -5 0 -6 0 -5 0 -7 1 -8 2 -7 9 -27 31 -22 32 0 rrcurveto
          -36 -1295 rmoveto
          90 0 88 23 84 47 85 47 94 78 103 110 13 14 6 19 0 23 0 18 -7 16 -15 16 -15 15 -21 8 -26 0 -24 0 -20 -7 -16 -15 -66 -63 -54 -45 -41 -26 -42 -26 -46 -13 -50 0 rrcurveto
          -38 0 -19 20 -1 40 1 40 30 121 59 201 51 187 26 98 0 10 0 43 -12 38 -23 33 -24 33 -32 17 -41 0 -11 0 -143 -37 -276 -74 -85 -22 -43 -51 0 -79 0 -30 9 -22 19 -15 rrcurveto
          18 -15 20 -8 19 0 11 0 61 19 109 37 109 37 57 19 3 0 0 0 0 -2 0 -3 0 -8 -26 -93 -52 -179 -58 -192 -29 -136 0 -79 0 -125 64 -62 127 0 rrcurveto
          endchar
        </CharString>
        <CharString name="icircumflex">
          0 624 1255 rmoveto
          16 0 22 6 14 9 rrcurveto
          200 113 rlineto
          10 5 6 2 8 0 7 0 3 -1 6 -5 rrcurveto
          155 -113 rlineto
          14 -10 19 -5 17 0 24 0 30 12 19 18 16 15 12 20 4 18 1 5 0 7 0 5 0 17 -7 19 -13 13 rrcurveto
          -145 144 rlineto
          -30 31 -47 19 -48 0 -46 0 -53 -18 -40 -28 rrcurveto
          -208 -144 rlineto
          -22 -16 -16 -25 -6 -22 -1 -5 0 -6 0 -6 0 -13 4 -15 8 -12 13 -20 28 -14 26 0 rrcurveto
          70 -1305 rmoveto
          90 0 88 23 84 47 85 47 94 78 103 110 13 14 6 19 0 23 0 18 -7 16 -15 16 -15 15 -21 8 -26 0 -24 0 -20 -7 -16 -15 -66 -63 -54 -45 -41 -26 -42 -26 -46 -13 -50 0 rrcurveto
          -38 0 -19 20 -1 40 1 40 30 121 59 201 51 187 26 98 0 10 0 43 -12 38 -23 33 -24 33 -32 17 -41 0 -11 0 -143 -37 -276 -74 -85 -22 -43 -51 0 -79 0 -30 9 -22 19 -15 rrcurveto
          18 -15 20 -8 19 0 11 0 61 19 109 37 109 37 57 19 3 0 0 0 0 -2 0 -3 0 -8 -26 -93 -52 -179 -58 -192 -29 -136 0 -79 0 -125 64 -62 127 0 rrcurveto
          endchar
        </CharString>
        <CharString name="idieresis">
          0 656 1253 rmoveto
          40 0 36 13 32 25 43 36 22 42 0 50 0 26 -8 23 -16 19 -24 29 -33 14 -42 0 -41 0 -37 -13 -32 -25 -43 -35 -22 -42 0 -51 0 -26 8 -22 16 -20 23 -29 34 -14 44 0 rrcurveto
          430 hmoveto
          42 0 37 13 32 25 43 36 22 42 0 49 0 26 -8 23 -16 20 -24 29 -33 14 -44 0 -40 0 -36 -13 -32 -25 -44 -34 -22 -43 0 -50 0 -26 8 -23 16 -20 24 -29 33 -14 42 0 rrcurveto
          -392 -1303 rmoveto
          90 0 88 23 84 47 85 47 94 78 103 110 13 14 6 19 0 23 0 18 -7 16 -15 16 -15 15 -21 8 -26 0 -24 0 -20 -7 -16 -15 -66 -63 -54 -45 -41 -26 -42 -26 -46 -13 -50 0 rrcurveto
          -38 0 -19 20 -1 40 1 40 30 121 59 201 51 187 26 98 0 10 0 43 -12 38 -23 33 -24 33 -32 17 -41 0 -11 0 -143 -37 -276 -74 -85 -22 -43 -51 0 -79 0 -30 9 -22 19 -15 rrcurveto
          18 -15 20 -8 19 0 11 0 61 19 109 37 109 37 57 19 3 0 0 0 0 -2 0 -3 0 -8 -26 -93 -52 -179 -58 -192 -29 -136 0 -79 0 -125 64 -62 127 0 rrcurveto
          endchar
        </CharString>
        <CharString name="igrave">
          0 1030 1245 rmoveto
          29 0 35 19 20 25 8 12 6 13 3 13 rrcurveto
          2 15 rlineto
          0 21 -12 23 -19 13 rrcurveto
          -228 153 rlineto
          -16 11 -23 6 -19 0 -37 0 -42 -20 -27 -31 -12 -17 -10 -19 -4 -18 -1 -7 -1 -8 0 -7 0 -32 20 -34 33 -15 rrcurveto
          261 -109 rlineto
          9 -4 13 -3 12 0 rrcurveto
          -336 -1295 rmoveto
          90 0 88 23 84 47 85 47 94 78 103 110 13 14 6 19 0 23 0 18 -7 16 -15 16 -15 15 -21 8 -26 0 -24 0 -20 -7 -16 -15 -66 -63 -54 -45 -41 -26 -42 -26 -46 -13 -50 0 rrcurveto
          -38 0 -19 20 -1 40 1 40 30 121 59 201 51 187 26 98 0 10 0 43 -12 38 -23 33 -24 33 -32 17 -41 0 -11 0 -143 -37 -276 -74 -85 -22 -43 -51 0 -79 0 -30 9 -22 19 -15 rrcurveto
          18 -15 20 -8 19 0 11 0 61 19 109 37 109 37 57 19 3 0 0 0 0 -2 0 -3 0 -8 -26 -93 -52 -179 -58 -192 -29 -136 0 -79 0 -125 64 -62 127 0 rrcurveto
          endchar
        </CharString>
        <CharString name="j">
          0 370 -316 rmoveto
          -42 0 -21 19 0 37 0 92 101 122 203 151 -77 -281 -80 -140 -84 0 rrcurveto
          -29 -184 rmoveto
          94 0 86 33 77 67 77 66 67 114 58 162 20 61 29 112 38 163 rrcurveto
          286 230 rlineto
          20 15 10 20 0 26 0 19 -8 19 -15 17 -15 17 -20 9 -26 0 -22 0 -19 -7 -16 -13 rrcurveto
          -130 -109 rlineto
          61 245 30 127 0 9 -1 45 -12 39 -25 34 -25 33 -32 17 -41 0 -11 0 -142 -37 -273 -74 -83 -21 -41 -48 0 -76 0 -33 10 -25 19 -16 19 -15 19 -8 20 0 11 0 60 19 108 37 rrcurveto
          108 37 56 19 3 0 1 0 1 -3 0 -6 0 -11 -39 -163 -77 -316 -240 -160 -151 -124 -61 -89 -61 -89 -30 -84 0 -81 1 -135 76 -68 151 0 rrcurveto
          589 1715 rmoveto
          45 0 42 16 38 33 49 42 25 51 0 60 -2 30 -9 26 -19 22 -26 37 -37 18 -49 0 -48 0 -43 -17 -39 -33 -47 -42 -24 -50 0 -56 1 -32 10 -28 18 -24 27 -35 39 -18 49 0 rrcurveto
          endchar
        </CharString>
        <CharString name="k">
          0 922 -51 rmoveto
          78 0 68 36 59 71 42 52 22 46 0 38 0 24 -9 20 -16 15 -11 11 -15 5 -16 0 -38 0 -30 -19 -21 -37 -19 -32 -25 -17 -29 0 -14 0 -12 7 -8 12 rrcurveto
          -155 223 rlineto
          -7 10 -4 9 0 7 0 4 2 3 4 2 249 121 127 158 4 194 0 125 -64 63 -128 0 -103 0 -112 -45 -120 -91 73 312 36 163 0 14 0 26 -9 22 -18 17 -21 21 -29 11 -35 0 rrcurveto
          -62 0 -38 -31 -17 -63 -215 -922 -108 -469 0 -15 0 -23 7 -21 13 -18 18 -24 27 -12 36 0 29 0 25 9 23 18 23 17 14 22 8 26 rrcurveto
          146 591 rlineto
          3 12 9 13 16 14 133 126 95 63 57 0 35 0 18 -12 0 -24 0 -93 -131 -102 -262 -111 -24 -11 -12 -16 0 -22 0 -15 6 -16 11 -16 rrcurveto
          261 -381 rlineto
          34 -63 54 -32 72 0 rrcurveto
          endchar
        </CharString>
        <CharString name="l">
          0 741 821 rmoveto
          62 252 rlineto
          47 187 81 94 115 0 63 -1 31 -30 1 -58 0 -90 -27 -75 -55 -59 -71 -77 -106 -73 -141 -70 rrcurveto
          -129 -871 rmoveto
          64 0 56 11 49 21 81 29 82 67 81 107 13 17 7 19 0 20 -2 26 -10 23 -20 19 -20 19 -24 9 -29 0 -31 0 -27 -14 -24 -29 -39 -53 -34 -36 -30 -21 -29 -20 -33 -10 -36 0 rrcurveto
          -38 0 -19 15 0 30 0 33 25 124 49 215 223 119 152 95 80 70 135 126 68 147 0 165 0 74 -27 62 -55 50 -52 47 -69 24 -85 0 -130 0 -106 -43 -83 -87 -82 -86 -63 -129 -43 -169 rrcurveto
          -89 -351 rlineto
          -110 -47 -78 -31 -44 -16 -40 -14 -21 -28 -1 -42 0 -28 11 -23 22 -17 21 -17 23 -8 23 0 23 0 49 19 74 38 -16 -72 -11 -57 -8 -42 -5 -34 -3 -43 0 -52 3 -147 85 -74 167 0 rrcurveto
          endchar
        </CharString>
        <CharString name="lamda-grek">
          0 552 1550 rmoveto
          -76 0 -46 -34 -14 -68 -15 -71 36 -36 87 0 62 0 47 -27 32 -54 39 -68 14 -56 -9 -45 -3 -12 -4 -11 -5 -10 -375 -652 -188 -332 -3 -11 -6 -29 6 -26 17 -22 18 -24 26 -12 33 0 rrcurveto
          57 0 43 25 29 51 rrcurveto
          407 718 rlineto
          0 -1 -1 0 -2 0 -1 0 -1 0 0 1 rrcurveto
          101 -718 rlineto
          9 -51 32 -25 56 0 34 0 31 12 29 24 26 22 16 26 6 29 3 10 -43 332 -88 653 -29 186 -40 123 -50 59 -72 83 -99 41 -126 0 rrcurveto
          endchar
        </CharString>
        <CharString name="left_arrow_double_long">
          0 -1677 27 rmoveto
          29 0 29 12 28 23 28 23 18 26 6 30 6 29 -5 27 -17 24 rrcurveto
          -46 59 rlineto
          0 5 1 2 1 0 rrcurveto
          2500 hlineto
          28 0 28 12 29 23 29 23 18 26 6 30 7 31 -6 26 -19 23 -19 23 -24 11 -29 0 rrcurveto
          -2544 hlineto
          -29 0 -30 -11 -30 -23 -27 -23 -13 -11 -1 0 0 -1 -2 0 -4 0 rrcurveto
          -119 150 1 5 184 152 rlineto
          1 6 vlineto
          28 -35 rlineto
          19 -22 24 -11 31 0 rrcurveto
          2543 hlineto
          28 0 28 12 29 23 29 23 18 26 6 30 7 31 -7 26 -18 23 -19 23 -24 11 -29 0 rrcurveto
          -2496 7 67 55 rlineto
          13 11 11 13 9 15 9 15 6 14 3 13 6 30 -6 27 -18 23 -19 23 -24 11 -29 0 -26 0 -29 -11 -32 -22 rrcurveto
          -554 -458 rlineto
          -28 -25 -17 -27 -7 -29 -6 -29 6 -27 17 -26 rrcurveto
          360 -457 rlineto
          21 -22 24 -11 28 0 rrcurveto
          endchar
        </CharString>
        <CharString name="left_arrow_double_long_alt">
          0 1029 915 rmoveto
          -2492 hlineto
          72 59 rlineto
          26 25 15 26 6 27 7 33 -6 28 -19 24 -19 23 -26 12 -32 0 -28 0 -28 -10 -28 -21 rrcurveto
          -555 -459 rlineto
          -27 -22 -16 -26 -6 -30 -7 -31 6 -28 19 -26 rrcurveto
          360 -458 rlineto
          22 -23 26 -12 29 0 30 0 29 11 26 21 26 22 16 25 6 31 7 31 -6 28 -19 25 rrcurveto
          -51 66 rlineto
          2514 hlineto
          29 0 28 11 27 21 27 21 16 26 7 31 7 33 -6 28 -20 24 -19 23 -26 12 -32 0 rrcurveto
          -2734 hlineto
          -59 76 rlineto
          0 0 0 1 0 1 0 2 2 2 3 3 rrcurveto
          102 84 rlineto
          2733 hlineto
          29 0 28 11 27 21 26 21 17 26 6 31 8 33 -7 28 -19 24 -19 23 -26 12 -32 0 rrcurveto
          endchar
        </CharString>
        <CharString name="left_arrow_single">
          0 -470 502 rmoveto
          -8 1 -72 90 rlineto
          -1 hlineto
          1 6 113 93 rlineto
          7 -1 hlineto
          72 -93 -1 -3 -110 -91 rlineto
          92 -477 rmoveto
          31 0 29 11 27 23 35 29 18 34 0 37 0 19 -6 21 -12 20 rrcurveto
          -89 113 rlineto
          -1 0 -1 1 0 1 rrcurveto
          2 6 140 119 rlineto
          22 17 22 8 22 0 rrcurveto
          1181 hlineto
          29 0 29 12 29 23 36 29 18 34 0 37 0 21 -6 20 -14 17 -19 23 -24 12 -29 0 rrcurveto
          -1180 hlineto
          -24 0 -19 8 -13 17 rrcurveto
          -90 114 rlineto
          -1 0 0 1 0 1 rrcurveto
          1 5 139 115 rlineto
          35 35 18 35 0 36 0 22 -7 19 -14 16 -19 22 -24 11 -28 0 -27 0 -29 -11 -31 -22 rrcurveto
          -555 -459 rlineto
          -36 -32 -18 -35 0 -39 0 -21 7 -19 13 -17 rrcurveto
          360 -457 rlineto
          18 -21 24 -11 31 0 rrcurveto
          endchar
        </CharString>
        <CharString name="left_arrow_single_alt">
          0 -472 26 rmoveto
          30 0 31 11 24 21 25 19 17 29 6 30 6 26 -5 32 -17 25 rrcurveto
          -211 267 rlineto
          0 0 1 -6 1 1 1 5 -1 -1 3 0 rrcurveto
          1509 hlineto
          30 0 31 11 25 21 25 20 17 29 6 29 6 28 -5 32 -18 23 -18 23 -30 14 -30 0 rrcurveto
          -1503 hlineto
          0 0 6 -9 0 2 1 2 -1 -1 2 2 rrcurveto
          316 262 rlineto
          26 23 16 28 6 27 7 31 -7 33 -19 22 -18 21 -29 14 -29 0 -27 0 -30 -12 -27 -19 rrcurveto
          -555 -460 rlineto
          -25 -21 -18 -28 -6 -29 -6 -28 6 -32 17 -25 rrcurveto
          361 -458 rlineto
          21 -22 29 -12 27 0 rrcurveto
          endchar
        </CharString>
        <CharString name="left_right_arrow_double">
          0 618 446 rmoveto
          -2 0 -10 12 -18 23 -20 23 -25 11 -30 0 rrcurveto
          -2008 hlineto
          -30 0 -30 -11 -29 -23 -27 -23 -15 -12 -2 0 -2 0 -21 25 -39 50 -40 50 -20 26 0 2 1 1 31 27 62 51 61 51 32 25 2 0 1 0 11 -12 19 -24 20 -21 24 -11 29 0 rrcurveto
          2006 hlineto
          29 0 30 11 29 22 28 23 15 12 1 0 2 0 21 -25 41 -51 40 -51 20 -27 -1 -1 0 -2 -30 -26 -61 -50 -61 -50 -32 -25 -2 0 rrcurveto
          -229 -419 rmoveto
          28 0 29 11 29 21 rrcurveto
          555 458 rlineto
          36 32 18 35 0 40 0 20 -6 19 -13 17 rrcurveto
          -361 459 rlineto
          -20 21 -24 11 -28 0 -31 0 -29 -11 -27 -22 -36 -29 -17 -34 0 -41 0 -19 5 -20 12 -18 29 -37 15 -19 0 -3 -1 -3 -319 -1 -639 0 -638 0 -319 1 0 3 1 2 23 20 46 37 rrcurveto
          35 33 17 35 0 38 0 21 -6 18 -13 16 -18 22 -25 11 -31 0 -28 0 -29 -11 -29 -21 rrcurveto
          -555 -459 rlineto
          -36 -30 -18 -35 0 -39 0 -21 6 -20 13 -18 rrcurveto
          361 -458 rlineto
          20 -21 24 -11 28 0 31 0 30 11 27 23 35 29 18 35 0 41 0 20 -6 19 -13 16 -31 39 -15 20 0 1 1 4 320 2 641 0 640 0 320 -2 0 -4 -1 -2 -24 -20 -47 -38 rrcurveto
          -35 -30 -18 -35 0 -39 0 -21 7 -19 13 -16 17 -23 25 -11 31 0 rrcurveto
          endchar
        </CharString>
        <CharString name="left_right_arrow_double_alt">
          0 701 516 rmoveto
          -2391 hlineto
          -59 76 rlineto
          0 0 0 1 0 1 0 2 2 2 3 3 rrcurveto
          102 84 rlineto
          2383 hlineto
          63 -80 rlineto
          0 0 0 0 0 -1 -1 -2 -2 -3 -3 -3 rrcurveto
          -238 319 rmoveto
          -1923 hlineto
          72 59 rlineto
          26 25 15 26 6 27 7 33 -6 28 -19 24 -19 23 -26 12 -32 0 -28 0 -28 -10 -28 -21 rrcurveto
          -555 -459 rlineto
          -27 -22 -16 -26 -6 -30 -7 -31 6 -28 19 -26 rrcurveto
          360 -458 rlineto
          22 -23 26 -12 29 0 30 0 29 11 26 21 26 22 16 25 6 31 7 31 -6 28 -19 25 rrcurveto
          -51 66 rlineto
          1930 hlineto
          -38 -32 -25 -21 -11 -9 -27 -22 -16 -26 -6 -30 -7 -32 6 -28 18 -24 19 -24 26 -12 33 0 27 0 28 10 29 21 rrcurveto
          555 458 rlineto
          26 23 17 26 6 30 6 31 -6 28 -18 25 rrcurveto
          -361 459 rlineto
          -22 23 -25 12 -29 0 -31 0 -28 -11 -26 -21 -26 -21 -16 -26 -7 -31 -6 -28 6 -28 17 -27 rrcurveto
          endchar
        </CharString>
        <CharString name="left_right_arrow_double_long">
          0 618 446 rmoveto
          -2 0 -10 12 -18 23 -20 23 -25 11 -30 0 rrcurveto
          -3208 hlineto
          -30 0 -30 -11 -29 -23 -27 -23 -15 -12 -2 0 -2 0 -21 25 -39 50 -40 50 -20 26 0 2 1 1 31 27 62 51 61 51 32 25 2 0 1 0 11 -12 19 -24 20 -21 24 -11 29 0 rrcurveto
          3206 hlineto
          29 0 30 11 29 22 28 23 15 12 1 0 2 0 21 -25 41 -51 40 -51 20 -27 -1 -1 0 -2 -30 -26 -61 -50 -61 -50 -32 -25 -2 0 rrcurveto
          -229 -419 rmoveto
          28 0 29 11 29 21 rrcurveto
          555 458 rlineto
          36 32 18 35 0 40 0 20 -6 19 -13 17 rrcurveto
          -361 459 rlineto
          -20 21 -24 11 -28 0 -31 0 -29 -11 -27 -22 -36 -29 -17 -34 0 -41 0 -19 5 -20 12 -18 29 -37 15 -19 0 -3 -1 -3 -519 -1 -1039 0 -1038 0 -519 1 0 3 1 2 23 20 46 37 rrcurveto
          35 33 17 35 0 38 0 21 -6 18 -13 16 -18 22 -25 11 -31 0 -28 0 -29 -11 -29 -21 rrcurveto
          -555 -459 rlineto
          -36 -30 -18 -35 0 -39 0 -21 6 -20 13 -18 rrcurveto
          361 -458 rlineto
          20 -21 24 -11 28 0 31 0 30 11 27 23 35 29 18 35 0 41 0 20 -6 19 -13 16 -31 39 -15 20 0 1 1 4 520 2 1041 0 1040 0 520 -2 0 -4 -1 -2 -24 -20 -47 -38 rrcurveto
          -35 -30 -18 -35 0 -39 0 -21 7 -19 13 -16 17 -23 25 -11 31 0 rrcurveto
          endchar
        </CharString>
        <CharString name="left_right_arrow_double_long_alt">
          0 -2708 286 rmoveto
          3130 hlineto
          -38 -32 -25 -21 -11 -9 -27 -22 -16 -26 -6 -30 -7 -32 6 -28 18 -24 19 -24 26 -12 33 0 27 0 28 10 29 21 rrcurveto
          555 458 rlineto
          26 23 17 26 6 30 6 31 -6 28 -18 25 rrcurveto
          -361 459 rlineto
          -22 23 -25 12 -29 0 -31 0 -28 -11 -26 -21 -26 -21 -16 -26 -7 -31 -6 -28 6 -28 17 -27 rrcurveto
          50 -64 rlineto
          -3123 hlineto
          72 59 rlineto
          26 25 15 26 6 27 7 33 -6 28 -19 24 -19 23 -26 12 -32 0 -28 0 -28 -10 -28 -21 rrcurveto
          -555 -459 rlineto
          -27 -22 -16 -26 -6 -30 -7 -31 6 -28 19 -26 rrcurveto
          360 -458 rlineto
          22 -23 26 -12 29 0 30 0 29 11 26 21 26 22 16 25 6 31 7 31 -6 28 -19 25 rrcurveto
          3358 296 rmoveto
          -3591 hlineto
          -59 76 rlineto
          0 0 0 1 0 1 0 2 2 2 3 3 rrcurveto
          102 84 rlineto
          3583 hlineto
          63 -80 rlineto
          0 0 0 0 0 -1 -1 -2 -2 -3 -3 -3 rrcurveto
          endchar
        </CharString>
        <CharString name="left_right_arrow_single">
          0 -1679 498 rmoveto
          0 0 1 0 0 0 rrcurveto
          -71 87 rlineto
          -1 1 0 2 0 2 0 6 2 5 5 3 rrcurveto
          107 89 rlineto
          3 2 2 1 2 0 0 0 -1 0 0 0 rrcurveto
          69 -89 rlineto
          1 -1 1 -2 0 -2 0 -4 -3 -5 -5 -4 rrcurveto
          -105 -88 rlineto
          -3 -2 -2 -1 -2 0 rrcurveto
          2362 hmoveto
          0 0 1 0 0 0 rrcurveto
          -71 87 rlineto
          -1 1 0 2 0 2 0 6 2 5 5 3 rrcurveto
          107 89 rlineto
          3 2 2 1 2 0 0 0 -1 0 0 0 rrcurveto
          69 -89 rlineto
          1 -1 1 -2 0 -2 0 -4 -3 -5 -5 -4 rrcurveto
          -105 -88 rlineto
          -3 -2 -2 -1 -2 0 rrcurveto
          -2016 -8 rmoveto
          1681 hlineto
          8 0 10 -2 10 -5 10 -5 8 -5 5 -6 rrcurveto
          88 -116 rlineto
          1 -1 1 -2 0 -2 0 -6 -3 -5 -5 -4 rrcurveto
          -137 -114 rlineto
          -32 -30 -16 -32 0 -34 0 -20 6 -19 13 -15 18 -24 26 -12 35 0 28 0 29 10 28 21 rrcurveto
          555 457 rlineto
          33 31 17 32 0 35 0 20 -6 19 -13 16 rrcurveto
          -360 460 rlineto
          -22 23 -26 12 -30 0 -30 0 -28 -10 -27 -21 -35 -26 -17 -33 0 -38 0 -20 6 -19 12 -18 rrcurveto
          90 -113 rlineto
          1 -1 0 -2 0 -1 0 -6 -2 -5 -5 -5 rrcurveto
          -139 -113 rlineto
          -8 -7 -11 -6 -14 -5 -13 -5 -11 -3 -9 0 rrcurveto
          -1680 hlineto
          -8 0 -10 2 -10 5 -10 5 -8 5 -5 6 rrcurveto
          -88 113 rlineto
          -1 2 -1 2 0 3 0 4 2 4 5 5 rrcurveto
          137 113 rlineto
          33 30 16 33 0 36 0 21 -7 19 -14 15 -19 23 -26 11 -32 0 -28 0 -29 -11 -29 -21 rrcurveto
          -555 -459 rlineto
          -33 -28 -17 -32 0 -35 0 -20 6 -19 12 -19 rrcurveto
          362 -458 rlineto
          22 -23 26 -11 30 0 32 0 29 11 27 21 32 27 16 31 0 37 0 19 -6 19 -12 18 rrcurveto
          -89 112 rlineto
          -1 2 0 2 0 3 0 5 2 5 5 5 rrcurveto
          138 116 rlineto
          8 7 11 6 14 5 14 5 11 3 8 0 rrcurveto
          endchar
        </CharString>
        <CharString name="left_right_arrow_single_alt">
          0 710 715 rmoveto
          -2326 hlineto
          2 0 1 -1 1 -2 2 -2 0 -1 0 0 0 0 1 1 2 1 rrcurveto
          315 262 rlineto
          26 24 16 26 6 28 7 34 -6 28 -19 24 -20 23 -25 12 -32 0 -28 0 -28 -10 -28 -21 rrcurveto
          -555 -460 rlineto
          -27 -22 -16 -26 -6 -30 -7 -29 6 -29 18 -27 rrcurveto
          361 -459 rlineto
          22 -22 26 -11 29 0 32 0 28 11 25 21 26 20 16 26 6 32 7 29 -6 27 -17 27 rrcurveto
          -210 266 rlineto
          1 -1 0 -2 0 -1 0 1 1 1 0 1 1 1 1 0 0 0 rrcurveto
          2338 hlineto
          -2 0 -1 1 -2 2 -1 2 0 1 0 0 0 0 -1 -1 -2 -1 rrcurveto
          -322 -266 rlineto
          -26 -24 -16 -26 -5 -27 -8 -34 6 -28 19 -22 17 -24 27 -12 34 0 27 0 28 10 28 20 rrcurveto
          556 458 rlineto
          26 25 17 26 6 28 6 31 -6 28 -18 25 rrcurveto
          -361 460 rlineto
          -22 23 -25 12 -29 0 -30 0 -28 -10 -26 -21 -27 -22 -16 -26 -7 -32 -6 -29 5 -28 18 -27 rrcurveto
          204 -262 rlineto
          -1 1 0 2 0 1 0 -1 -1 -1 0 -1 -1 -1 -1 0 0 0 rrcurveto
          endchar
        </CharString>
        <CharString name="left_right_arrow_single_long">
          0 -2874 502 rmoveto
          -2 0 -13 15 -25 31 -24 30 -12 17 0 2 0 1 19 16 38 31 37 31 20 16 2 0 2 0 13 -15 25 -31 24 -31 12 -17 0 -1 -1 -2 -19 -16 -37 -31 -37 -31 -20 -15 -2 0 rrcurveto
          3562 hmoveto
          -2 0 -13 15 -25 30 -24 31 -12 16 0 3 0 1 19 17 38 31 37 31 20 15 2 0 2 0 13 -16 25 -31 24 -31 12 -16 0 -1 -1 -1 -19 -16 -37 -31 -37 -31 -20 -16 -2 0 rrcurveto
          -299 -475 rmoveto
          28 0 28 10 29 21 rrcurveto
          557 459 rlineto
          35 33 18 35 0 37 0 21 -7 19 -13 17 rrcurveto
          -360 460 rlineto
          -20 21 -24 11 -28 0 -29 0 -29 -11 -28 -21 -37 -29 -18 -35 0 -42 0 -20 5 -19 12 -18 61 -77 30 -39 0 -2 0 -2 -47 -40 -94 -77 -8 -7 -11 -5 -13 -5 -13 -5 -12 -3 -9 0 rrcurveto
          -2880 hlineto
          -9 0 -11 3 -11 5 -11 5 -9 5 -5 7 -61 77 -30 40 0 2 1 1 47 40 93 77 35 32 17 36 0 39 0 21 -7 19 -13 16 -19 21 -24 11 -29 0 -28 0 -29 -11 -29 -21 rrcurveto
          -556 -460 rlineto
          -36 -30 -17 -35 0 -38 0 -21 6 -19 12 -19 rrcurveto
          361 -459 rlineto
          21 -21 24 -10 28 0 32 0 29 11 27 22 35 29 17 34 0 41 0 19 -5 19 -12 18 -61 77 -30 39 0 3 1 2 47 41 93 79 8 6 11 6 14 5 13 5 11 3 9 0 rrcurveto
          2881 hlineto
          9 0 11 -2 11 -5 11 -5 9 -6 5 -7 60 -78 30 -41 0 -3 -1 -2 -47 -40 -93 -77 -35 -32 -17 -35 0 -38 0 -21 6 -18 13 -16 17 -22 25 -11 32 0 rrcurveto
          endchar
        </CharString>
        <CharString name="left_right_arrow_single_long_alt">
          0 710 715 rmoveto
          -3526 hlineto
          2 0 1 -1 1 -2 2 -2 0 -1 0 0 0 0 1 1 2 1 rrcurveto
          315 262 rlineto
          26 24 16 26 6 28 7 34 -6 28 -19 24 -20 23 -25 12 -32 0 -28 0 -28 -10 -28 -21 rrcurveto
          -555 -460 rlineto
          -27 -22 -16 -26 -6 -30 -7 -29 6 -29 18 -27 rrcurveto
          361 -459 rlineto
          22 -22 26 -11 29 0 32 0 28 11 25 21 26 20 16 26 6 32 7 29 -6 27 -17 27 rrcurveto
          -210 266 rlineto
          1 -1 0 -2 0 -1 0 1 1 1 0 1 1 1 1 0 0 0 rrcurveto
          3538 hlineto
          -2 0 -1 1 -2 2 -1 2 0 1 0 0 0 0 -1 -1 -2 -1 rrcurveto
          -322 -266 rlineto
          -26 -24 -16 -26 -5 -27 -8 -34 6 -28 19 -22 17 -24 27 -12 34 0 27 0 28 10 28 20 rrcurveto
          556 458 rlineto
          26 25 17 26 6 28 6 31 -6 28 -18 25 rrcurveto
          -361 460 rlineto
          -22 23 -25 12 -29 0 -30 0 -28 -10 -26 -21 -27 -22 -16 -26 -7 -32 -6 -29 5 -28 18 -27 rrcurveto
          204 -262 rlineto
          -1 1 0 2 0 1 0 -1 -1 -1 0 -1 -1 -1 -1 0 0 0 rrcurveto
          endchar
        </CharString>
        <CharString name="leftfiveeighthsblock">
          0 -600 vmoveto
          750 2640 -750 hlineto
          endchar
        </CharString>
        <CharString name="lefthalfblock">
          0 -600 vmoveto
          600 2640 -600 hlineto
          endchar
        </CharString>
        <CharString name="leftoneeighthblock">
          0 -600 vmoveto
          150 2640 -150 hlineto
          endchar
        </CharString>
        <CharString name="leftonequarterblock">
          0 -600 vmoveto
          300 2640 -300 hlineto
          endchar
        </CharString>
        <CharString name="leftrightarrow">
          0 139 567 rmoveto
          6 -1 9 -1 11 -1 28 -3 25 -1 22 0 rrcurveto
          720 hlineto
          23 0 26 1 27 2 9 1 8 0 6 1 -6 -6 -7 -7 -9 -8 -18 -17 -16 -18 -14 -19 rrcurveto
          -348 -440 rlineto
          271 hlineto
          477 610 -479 610 rlineto
          -269 hlineto
          348 -439 rlineto
          18 -21 18 -19 17 -17 6 -8 6 -6 5 -5 -6 1 -8 0 -9 1 -27 2 -26 1 -23 0 rrcurveto
          -720 hlineto
          -22 0 -25 -1 -28 -1 -9 0 -7 -1 -6 0 5 5 7 7 8 7 18 17 16 18 14 19 rrcurveto
          348 440 rlineto
          -271 hlineto
          -477 -610 479 -610 rlineto
          269 hlineto
          -348 439 rlineto
          -18 21 -17 19 -17 18 rrcurveto
          endchar
        </CharString>
        <CharString name="leftseveneighthsblock">
          0 -600 vmoveto
          1050 2640 -1050 hlineto
          endchar
        </CharString>
</ttFont>
